<svg width="466" height="644" viewBox="0 0 466 644" fill="none" xmlns="http://www.w3.org/2000/svg">
<path opacity="0.2" fill-rule="evenodd" clip-rule="evenodd" d="M324.743 567.525L282.279 571.57C288.75 540.019 298.051 512.108 302.5 475.702C306.949 440.914 309.779 406.935 312.61 370.125C315.846 326.438 320.699 176.77 317.059 138.342L309.779 164.635C302.5 200.232 297.647 208.322 295.221 247.155C292.794 286.392 288.75 326.843 284.301 365.676C278.235 417.453 259.228 542.446 233.75 575.616L192.096 583.706C199.375 563.885 210.699 542.446 219.191 521.007C243.456 460.735 269.338 366.485 273.787 301.359L261.25 345.45C241.029 419.475 194.522 523.434 152.868 584.919C144.779 596.65 127.39 599.077 110.404 601.504C122.132 581.683 150.441 566.312 159.338 538.805C149.632 553.368 105.147 592.605 89.7794 603.122C82.0956 608.381 6.47059 644.786 0 646C11.7279 646 61.4706 630.629 78.8603 626.988C237.39 593.009 384.596 586.133 545.956 607.976C607.831 616.471 657.978 632.247 715 644.786C686.287 621.325 654.743 627.393 593.676 573.997C581.544 563.48 571.434 548.918 560.919 540.423C570.625 563.885 592.059 581.279 606.618 599.077C563.346 592.605 571.838 593.009 543.125 544.064C495.404 462.758 468.713 389.137 446.066 294.482C444.853 346.664 477.206 463.567 498.235 516.557C506.324 536.783 520.882 565.098 526.544 582.088L486.912 576.829C429.081 498.759 436.765 214.389 402.39 136.724C401.177 238.66 404.007 369.316 416.949 470.039C422.206 509.681 431.103 537.187 437.169 571.57L393.088 569.548C387.831 474.893 380.956 381.047 376.912 285.583C374.89 236.637 372.463 186.478 373.272 137.533C373.676 101.127 378.529 26.293 361.14 0C342.941 27.1021 344.559 233.401 343.346 282.751C342.132 331.292 340.11 379.429 337.684 427.97C335.257 468.825 333.64 528.288 324.743 567.525Z" fill="#99A7B2"/>
</svg>
