<svg width="257" height="462" viewBox="0 0 257 462" fill="none" xmlns="http://www.w3.org/2000/svg">
<path opacity="0.05" fill-rule="evenodd" clip-rule="evenodd" d="M257 241.012C257 240.102 256.816 239.191 256.816 238.281C256.632 234.641 256.08 231.182 255.344 227.905C254.608 224.629 253.688 221.716 252.768 218.986C250.745 213.525 248.353 208.974 246.145 205.515C245.593 204.605 245.041 203.877 244.489 202.967C243.937 202.239 243.569 201.511 243.017 200.783C242.097 199.508 241.178 198.416 240.442 197.506C239.706 196.596 239.154 196.05 238.786 195.686C238.418 195.322 238.234 195.14 238.234 195.14L238.05 195.322C238.05 195.322 238.602 196.414 239.522 198.234C240.442 200.236 241.729 202.967 243.017 206.79C244.305 210.612 245.593 215.163 246.513 220.442C246.881 223.173 247.433 225.903 247.433 228.998C247.433 229.362 247.433 229.726 247.433 230.09C247.433 230.454 247.433 230.818 247.433 231.182C247.433 231.91 247.433 232.638 247.433 233.548C247.433 235.187 247.433 236.643 247.249 238.281C247.249 239.92 246.881 241.558 246.697 243.196C246.513 244.835 246.145 246.473 245.777 248.293C245.593 249.203 245.409 249.931 245.225 250.842C245.041 251.752 244.857 252.48 244.489 253.39C244.305 254.3 243.937 255.028 243.753 255.939C243.569 256.849 243.201 257.577 242.833 258.487C241.546 261.946 240.258 265.404 238.418 268.863C236.762 272.322 234.738 275.78 232.53 279.057C231.427 280.695 230.323 282.333 229.035 284.154C228.483 285.064 227.747 285.792 227.195 286.52C226.643 287.248 225.907 288.158 225.171 288.887C224.435 289.615 223.883 290.525 223.147 291.253C222.411 291.981 221.675 292.891 220.94 293.619C219.468 295.258 217.996 296.714 216.34 298.17L215.788 298.716L215.236 299.262L213.948 300.355L212.66 301.447L212.108 301.993C211.924 302.175 211.74 302.357 211.556 302.539C209.901 303.813 208.429 305.27 206.589 306.544C203.093 309.274 199.414 311.641 195.734 314.007C188.191 318.74 180.096 322.745 172 326.749C163.905 330.754 155.81 334.395 147.899 338.035C139.988 341.676 132.26 345.317 125.085 349.139C117.91 352.962 111.102 356.785 105.031 360.608C98.9595 364.612 93.6241 368.617 89.2085 372.622C86.6328 374.988 84.425 377.173 82.4012 379.175C81.4813 374.624 80.1934 370.255 78.5376 366.069C78.7216 365.705 78.9055 365.158 79.0895 364.612C79.8254 362.246 81.1133 358.605 82.9531 354.236C83.5051 353.144 84.057 352.052 84.6089 350.778C84.9769 350.232 85.1609 349.504 85.5289 348.957C85.8968 348.411 86.2648 347.683 86.4488 347.137C87.1847 345.863 87.7367 344.589 88.6566 343.132C89.3925 341.858 90.3124 340.402 91.2323 338.946C94.912 333.303 99.5115 327.296 105.215 321.288C110.918 315.099 117.542 308.91 125.085 302.721C132.628 296.532 140.907 290.161 149.555 283.608C158.202 277.054 167.217 270.137 176.232 262.674C178.44 260.853 180.648 258.851 182.855 256.849C183.959 255.939 185.063 254.846 186.167 253.936C187.271 252.844 188.375 251.934 189.479 250.842C193.71 246.655 197.942 242.468 201.989 237.917C202.909 236.825 204.013 235.733 204.933 234.459L207.693 231L209.165 229.18C209.717 228.634 210.085 227.905 210.453 227.359L213.028 223.719C213.948 222.444 214.684 221.17 215.604 219.896C216.34 218.622 217.26 217.348 217.996 216.073C218.732 214.799 219.468 213.343 220.388 212.069L221.491 210.066L222.043 209.156L222.595 208.246C223.147 206.972 223.883 205.697 224.435 204.423L225.355 202.603L225.539 202.421L225.723 202.057V201.875L225.907 201.329L226.275 200.236C226.827 198.962 227.563 197.506 228.115 196.232C228.667 194.957 229.219 193.501 229.771 192.045L230.507 190.043C230.691 189.314 231.059 188.586 231.243 188.04C231.794 186.584 232.162 185.31 232.714 183.853C233.082 182.397 233.45 181.123 233.818 179.667C234.186 178.21 234.554 176.936 234.922 175.48C235.106 174.752 235.29 174.024 235.29 173.296L235.474 172.203L235.658 171.111C235.842 169.655 236.026 168.199 236.21 166.924C236.394 164.012 236.762 161.281 236.762 158.369C236.762 152.726 236.21 147.265 235.106 141.986C234.002 136.707 232.346 131.792 230.323 127.241C228.299 122.69 225.723 118.504 223.147 114.681C220.572 110.858 217.628 107.582 214.684 104.669C213.948 103.941 213.212 103.213 212.476 102.485C211.74 101.756 211.005 101.21 210.269 100.482C209.901 100.118 209.533 99.7542 209.165 99.5721C208.797 99.2081 208.429 99.026 208.061 98.662C207.325 98.1159 206.589 97.3877 205.853 96.8416C205.117 96.2955 204.381 95.7494 203.645 95.2033C203.277 95.0213 202.909 94.6572 202.541 94.4752C202.173 94.2931 201.805 93.9291 201.437 93.7471C200.702 93.201 199.966 92.8369 199.414 92.2908C198.678 91.9267 197.942 91.3806 197.39 91.0166C196.102 90.1064 194.63 89.5603 193.526 88.8321C192.238 88.104 190.951 87.5579 189.847 87.0118C188.743 86.4657 187.639 85.9196 186.535 85.5556C185.431 85.0095 184.511 84.6454 183.591 84.2813C181.751 83.5532 180.096 83.0071 178.808 82.643C177.52 82.279 176.416 81.9149 175.864 81.7329C175.128 81.5508 174.76 81.3688 174.76 81.3688C174.76 81.3688 175.128 81.5508 175.68 81.9149C176.232 82.279 177.336 82.643 178.44 83.3711C180.831 84.6454 184.327 86.6478 188.375 89.5603C189.479 90.2884 190.583 91.0166 191.502 91.9267C192.606 92.8369 193.71 93.565 194.814 94.6572C195.366 95.2033 195.918 95.5674 196.654 96.1135C197.206 96.6596 197.758 97.2057 198.494 97.7518C198.862 97.9338 199.046 98.2979 199.414 98.4799C199.782 98.844 199.966 99.026 200.334 99.3901C200.886 99.9362 201.437 100.482 202.173 101.21C204.565 103.759 206.957 106.307 209.165 109.402C209.717 110.13 210.269 110.858 210.821 111.768C211.372 112.496 211.924 113.407 212.476 114.135C213.028 115.045 213.58 115.773 214.132 116.683C214.684 117.593 215.052 118.504 215.604 119.414C217.444 123.054 219.284 126.877 220.572 131.064C221.859 135.251 222.779 139.619 223.331 144.17C223.883 148.721 223.883 153.454 223.515 158.187C223.515 160.553 223.147 162.92 222.779 165.468C222.411 167.835 222.043 170.383 221.491 172.749C221.124 175.298 220.388 177.664 219.652 180.213C219.284 181.487 218.916 182.761 218.548 183.853C218.364 184.4 218.18 185.128 217.996 185.674L217.26 187.494C216.708 188.768 216.34 190.043 215.788 191.135C215.236 192.409 214.684 193.501 214.132 194.775L213.764 195.686L213.58 196.232V196.414L213.396 196.596L212.476 198.416C211.74 199.69 211.189 200.965 210.453 202.239L209.901 203.149L209.349 204.059L208.429 205.697C207.693 206.79 207.141 208.064 206.405 209.156C205.669 210.248 204.933 211.522 204.197 212.615C203.461 213.707 202.725 214.981 201.805 216.073L199.414 219.35C199.046 219.896 198.678 220.442 198.126 220.988L196.838 222.626L194.262 225.903C193.342 226.995 192.422 228.087 191.502 228.998C187.823 233.184 183.959 237.189 179.912 241.012C178.808 241.922 177.888 242.832 176.784 243.924C175.68 244.835 174.76 245.927 173.656 246.837C171.448 248.657 169.425 250.478 167.217 252.298C158.57 259.579 149.739 266.314 141.091 272.868C132.444 279.421 123.981 285.974 116.07 292.345C108.159 298.898 101.167 305.452 94.912 312.187C88.8405 318.922 83.6891 325.475 79.6415 331.846C78.7216 333.485 77.8017 334.941 76.8817 336.397C75.9619 337.853 75.2259 339.492 74.49 340.766C74.122 341.494 73.7541 342.222 73.3861 342.768C73.0181 343.496 72.6502 344.225 72.4662 344.771C71.9142 346.045 71.1783 347.319 70.6264 348.593C70.4424 349.139 70.0744 349.868 69.8904 350.414C66.7627 346.227 63.0831 342.404 59.2195 339.128C59.2195 338.946 59.2195 338.946 59.2195 338.764C58.8515 336.215 58.2996 332.392 58.6675 327.66C58.8515 322.927 59.9554 317.102 62.3472 310.731C64.739 304.359 68.4186 297.078 73.0181 289.433C75.4099 285.61 77.9857 281.605 80.7454 277.6C83.5051 273.596 86.4488 269.409 89.5765 265.04C92.7042 260.853 95.8318 256.303 99.3275 251.934C102.639 247.383 106.135 242.832 109.63 238.281C116.622 228.998 123.797 219.168 130.788 208.974C132.444 206.426 134.284 203.877 135.94 201.147C137.596 198.416 139.252 195.868 140.907 193.137C142.563 190.407 144.035 187.676 145.691 184.946C146.427 183.671 147.163 182.215 147.899 180.759L150.107 176.572C155.994 165.286 160.961 153.272 164.089 140.894C164.825 137.799 165.561 134.704 166.113 131.61C166.665 128.515 167.217 125.421 167.585 122.326C167.769 120.688 167.953 119.232 167.953 117.775C167.953 117.047 168.137 116.319 168.137 115.409C168.137 114.681 168.321 113.953 168.321 113.043C168.505 109.948 168.505 106.853 168.689 103.759C168.689 100.846 168.505 97.9338 168.505 95.2033V95.0213V94.6572V94.4752V93.9291V92.8369C168.505 92.1088 168.321 91.3806 168.321 90.6525C168.137 89.1962 167.953 87.5579 167.769 86.1016C166.849 80.0945 165.193 74.4515 162.985 69.1726C160.777 63.8936 157.834 58.9787 154.706 54.792C151.394 50.4232 147.899 46.7825 144.035 43.5059C136.492 36.9527 128.397 32.766 120.853 30.2175C119.014 29.4894 117.174 28.9433 115.334 28.5792C113.494 28.2152 111.838 27.669 110.182 27.487C106.871 26.7589 103.743 26.5768 100.983 26.3948C99.5115 26.3948 98.2236 26.2128 96.9358 26.3948C95.6479 26.3948 94.544 26.3948 93.4401 26.5768C92.3362 26.7589 91.4163 26.7589 90.4964 26.7589C89.5765 26.9409 88.8406 26.9409 88.1046 27.1229C87.7367 27.1229 87.3687 27.305 87.0008 27.305C86.6328 27.305 86.4488 27.487 86.0808 27.487C85.5289 27.669 85.1609 27.669 84.6089 27.851C83.873 28.0331 83.5051 28.0331 83.5051 28.0331C83.5051 28.0331 83.873 28.0331 84.6089 28.0331C84.9769 28.0331 85.5289 28.0331 86.0808 28.0331C86.4488 28.0331 86.6328 28.0331 87.0008 28.0331C87.3687 28.0331 87.7367 28.0331 88.1046 28.0331C91.0484 28.2151 95.2799 28.5792 100.431 29.6714C101.167 29.8534 101.719 30.0355 102.455 30.2175C103.191 30.3995 103.927 30.5816 104.479 30.7636C105.951 31.1277 107.423 31.6738 108.895 32.2199C111.838 33.3121 115.15 34.5863 118.278 36.2246C121.589 37.8629 124.901 39.8653 128.213 42.0497C128.949 42.5958 129.868 43.3239 130.604 43.87C131.34 44.4161 132.26 45.1442 132.996 45.8724C134.652 47.1466 136.124 48.6029 137.78 50.2411C143.851 56.4303 149.371 64.2577 152.866 73.3593C154.522 77.9101 155.81 82.825 156.546 87.922C156.73 89.1962 156.73 90.4704 156.914 91.7447C156.914 92.4728 156.914 93.0189 156.914 93.7471V94.6572L156.73 95.2033H156.546L156.73 95.3853C156.73 98.2979 156.73 101.028 156.73 103.941C156.546 106.671 156.362 109.402 156.178 112.314C156.178 113.043 155.994 113.771 155.994 114.499C155.81 115.227 155.81 115.955 155.81 116.683C155.626 118.139 155.442 119.596 155.258 120.87C154.89 123.783 154.154 126.513 153.602 129.244C152.866 131.974 152.13 134.887 151.394 137.617C148.083 148.721 143.483 159.825 137.78 170.383C132.076 180.941 125.453 191.135 118.462 200.965C111.47 210.794 104.479 220.442 97.4877 229.544C95.6479 231.91 93.992 234.095 92.3362 236.461C90.6804 238.827 88.8406 241.012 87.1848 243.196C83.8731 247.747 80.5614 252.116 77.4337 256.485C74.306 260.853 71.1783 265.222 68.4186 269.409C65.6588 273.596 62.8991 277.783 60.3234 281.969C55.3559 290.161 51.3083 298.17 48.5486 305.998C45.7888 313.643 44.6849 321.106 44.5009 327.114C44.5009 328.024 44.5009 328.752 44.5009 329.662C37.1417 326.021 29.4144 323.837 20.7673 322.927C20.7673 322.017 20.7673 320.924 20.9513 319.832C20.9513 318.74 20.9512 317.466 21.1352 316.374C21.1352 315.099 21.3192 313.825 21.3192 312.551C21.3192 312.187 21.3192 311.823 21.3192 311.459C21.3192 311.095 21.3192 310.731 21.5032 310.366C21.5032 309.638 21.6872 308.91 21.6872 308.182C21.8712 305.27 22.4231 302.175 22.7911 298.898C23.895 292.163 25.5508 284.7 27.9426 276.69C30.3343 268.681 33.462 259.943 37.1417 250.842C40.8213 241.74 45.0529 232.274 49.4685 222.262C53.884 212.433 58.6675 202.057 63.0831 191.499C67.6826 180.941 71.9142 169.837 75.7778 158.733C79.6414 147.447 82.9532 135.979 85.3449 124.511C85.7129 123.054 85.8969 121.598 86.2648 120.142C86.6328 118.686 86.8168 117.229 87.0008 115.773C87.1847 114.317 87.5527 112.861 87.7367 111.404C87.9207 109.948 88.1046 108.674 88.2886 107.217C88.4726 105.761 88.6566 104.305 88.8406 103.031C89.0245 101.574 89.2085 100.118 89.2085 98.662C89.3925 95.7494 89.5765 92.8369 89.5765 89.9243C89.5765 84.0993 89.2085 78.4563 88.4726 72.9953C87.7367 67.5343 86.4488 62.2553 84.9769 57.1584C83.5051 52.0615 81.6653 47.3286 79.4575 42.7778C77.2497 38.409 74.8579 34.2222 72.2822 30.3996C71.5463 29.4894 70.9943 28.5792 70.2584 27.6691C69.5225 26.7589 68.9705 25.8487 68.2346 25.1205C66.7627 23.4822 65.4749 21.844 64.003 20.3877C63.2671 19.6596 62.5311 18.9314 61.7952 18.2033C61.0593 17.4752 60.3234 16.747 59.5875 16.2009C58.1156 14.9267 56.6437 13.6525 55.1718 12.5603C53.7 11.4681 52.2281 10.5579 50.7563 9.46574C50.0204 8.91964 49.2845 8.55556 48.5486 8.19149C47.8126 7.82742 47.0767 7.2813 46.3408 6.91724C45.6048 6.55317 44.8689 6.18915 44.3169 5.82508C43.581 5.46102 42.8451 5.27898 42.2931 4.91492C41.5572 4.55085 41.0053 4.36882 40.2694 4.00475C39.5334 3.82272 38.9815 3.45861 38.4295 3.27657C33.462 1.45624 29.4144 0.728155 26.6547 0.364088C25.3668 0.182055 24.2629 0.182033 23.527 0C22.7911 0 22.4231 0 22.4231 0C22.4231 0 22.7911 0.182055 23.527 0.364088C23.895 0.546122 24.2629 0.546088 24.8148 0.728121C25.3668 0.910154 25.9188 1.09222 26.4707 1.27425C27.7586 1.82035 29.4144 2.18442 31.0703 3.09459C31.4382 3.27662 31.9902 3.45863 32.5421 3.64066C33.0941 3.8227 33.462 4.18675 34.0139 4.36878C34.5659 4.55082 35.1179 4.91487 35.4858 5.0969C36.0378 5.27894 36.5897 5.643 37.1417 6.00707C41.5572 8.3735 46.5247 11.8322 51.3083 16.7471C52.5962 17.8393 53.7 19.2955 54.9879 20.5697C55.5399 21.2979 56.0918 22.026 56.8277 22.7541C57.3797 23.4823 57.9316 24.2104 58.4836 24.9386C60.6913 28.0331 62.8991 31.3097 64.9229 34.9504C66.9467 38.591 68.7865 42.5958 70.2584 46.7825C71.7303 50.9693 73.0181 55.3381 74.122 60.0709C76.1458 69.3546 76.8817 79.3665 76.3298 89.5603C76.1458 92.1088 75.9618 94.6572 75.5938 97.3877C75.4099 98.6619 75.2259 99.9362 75.0419 101.21C74.8579 102.485 74.674 103.941 74.306 105.215C74.122 106.671 73.754 107.946 73.57 109.402C73.2021 110.676 73.0181 112.132 72.6501 113.407C72.2822 114.681 72.0982 116.137 71.7302 117.411C71.3622 118.686 70.9943 120.142 70.8103 121.416C68.0506 132.156 64.7389 143.078 60.8753 153.818C57.0117 164.558 52.5961 175.116 47.9966 185.492C43.397 195.868 38.6135 206.062 34.1979 216.073C29.7824 226.085 25.3668 235.733 21.6872 245.199C18.3755 253.572 15.4318 261.764 13.224 269.591C11.0162 261.764 8.07251 253.572 4.76083 245.199C1.08119 235.733 -3.33435 225.903 -7.74991 216.073C-12.1655 206.062 -16.949 195.868 -21.5486 185.492C-26.1481 175.116 -30.5637 164.558 -34.4273 153.818C-38.4749 143.078 -41.7865 132.338 -44.3623 121.416C-44.7303 120.142 -45.0982 118.686 -45.2822 117.411C-45.6502 116.137 -45.8341 114.681 -46.2021 113.407C-46.5701 112.132 -46.754 110.676 -47.122 109.402C-47.306 107.946 -47.674 106.671 -47.858 105.215C-48.042 103.941 -48.4099 102.485 -48.5939 101.21C-48.7779 99.9362 -48.9618 98.6619 -49.1458 97.3877C-49.5138 94.8392 -49.6978 92.2908 -49.8817 89.5603C-50.4337 79.3665 -49.6978 69.1726 -47.674 60.0709C-46.7541 55.5201 -45.4662 50.9693 -43.8104 46.7825C-42.3385 42.5958 -40.4987 38.7731 -38.4749 34.9504C-36.4511 31.3097 -34.2433 28.0331 -32.0355 24.9386C-31.4836 24.2104 -30.9317 23.4823 -30.3797 22.7541C-29.8278 22.026 -29.2758 21.2979 -28.5399 20.5697C-27.252 19.2955 -26.1481 17.8393 -24.8603 16.7471C-20.0767 11.8322 -14.9252 8.55553 -10.6936 6.00707C-10.1417 5.643 -9.58975 5.46097 -9.0378 5.0969C-8.48586 4.91487 -7.93388 4.55082 -7.56592 4.36878C-7.01396 4.18675 -6.64603 3.8227 -6.09409 3.64066C-5.54213 3.45863 -5.17419 3.27662 -4.62225 3.09459C-2.78242 2.36645 -1.31058 1.82035 -0.0227051 1.27425C0.529236 1.09222 1.26521 0.910154 1.63318 0.728121C2.18512 0.546088 2.55305 0.546122 2.92102 0.364088C3.65695 0.182055 4.02492 0 4.02492 0C4.02492 0 3.65695 0 2.92102 0C2.18509 0 1.08124 0.182055 -0.206635 0.364088C-2.96637 0.728155 -7.01401 1.45624 -11.9815 3.27657C-12.5335 3.45861 -13.2694 3.82272 -13.8214 4.00475C-14.3733 4.18678 -15.1092 4.55085 -15.8451 4.91492C-16.581 5.27898 -17.133 5.46102 -17.8689 5.82508C-18.6048 6.18915 -19.1568 6.55317 -19.8927 6.91724C-20.6286 7.2813 -21.3646 7.64539 -22.1005 8.19149C-22.8365 8.55556 -23.5723 9.10168 -24.3083 9.46574C-25.7801 10.3759 -27.252 11.286 -28.7238 12.5603C-30.1957 13.6525 -31.6676 14.9267 -33.1394 16.2009C-33.8754 16.9291 -34.6113 17.4752 -35.3472 18.2033C-36.0831 18.9314 -36.8191 19.6596 -37.555 20.3877C-39.0268 21.844 -40.3147 23.4822 -41.7865 25.1205C-42.5225 26.0307 -43.0744 26.9409 -43.8104 27.6691C-44.5463 28.5792 -45.0983 29.4894 -45.8342 30.3996C-48.4099 34.2222 -50.8017 38.409 -53.0095 42.7778C-55.2172 47.3286 -56.8731 52.0615 -58.5289 57.1584C-60.0008 62.2553 -61.2886 67.5343 -62.0246 72.9953C-62.7605 78.4563 -63.1285 84.0993 -63.1285 89.9243C-63.1285 92.8369 -62.9445 95.7494 -62.7605 98.662C-62.5765 100.118 -62.3925 101.574 -62.3925 103.031C-62.2086 104.487 -62.0246 105.943 -61.8406 107.217C-61.6566 108.674 -61.4726 109.948 -61.2886 111.404C-61.1047 112.861 -60.7367 114.317 -60.5527 115.773C-60.3687 117.229 -60.0008 118.686 -59.8168 120.142C-59.4488 121.598 -59.2649 123.054 -58.8969 124.511C-56.5051 135.979 -53.1934 147.447 -49.3298 158.733C-45.4662 170.019 -41.0506 180.941 -36.6351 191.499C-32.2195 202.239 -27.436 212.433 -23.0204 222.262C-18.6049 232.092 -14.3733 241.74 -10.6936 250.842C-7.01399 259.943 -3.88631 268.681 -1.49454 276.69C0.897232 284.7 2.55304 292.163 3.65694 298.898C4.20888 302.175 4.57686 305.27 4.76083 308.182C4.76083 308.91 4.94482 309.638 4.94482 310.366C4.94482 310.731 4.94484 311.095 5.12881 311.459C5.12881 311.823 5.12881 312.187 5.12881 312.551C5.12881 313.825 5.31282 315.099 5.31282 316.374C5.31282 317.466 5.49675 318.74 5.49675 319.832C5.49675 320.924 5.49675 322.017 5.49675 322.927C-2.96642 323.837 -11.0616 326.021 -18.2369 329.662C-18.2369 328.934 -18.2369 328.024 -18.2369 327.114C-18.4209 321.106 -19.5247 313.643 -22.2845 305.998C-25.0442 298.17 -29.0918 290.161 -34.0593 281.969C-36.4511 277.783 -39.2108 273.596 -42.1545 269.409C-45.0983 265.222 -48.0419 260.853 -51.1696 256.485C-54.2973 252.116 -57.609 247.747 -60.9207 243.196C-62.5765 241.012 -64.2324 238.645 -66.0722 236.461C-67.728 234.277 -69.5678 231.91 -71.2236 229.544C-78.215 220.442 -85.3902 210.794 -92.1976 200.965C-99.0049 191.135 -105.812 180.941 -111.516 170.383C-117.219 159.825 -122.003 148.903 -125.13 137.617C-125.866 134.887 -126.602 131.974 -127.338 129.244C-127.89 126.331 -128.442 123.6 -128.994 120.87C-129.178 119.414 -129.362 117.957 -129.546 116.683C-129.546 115.955 -129.73 115.227 -129.73 114.499C-129.73 113.771 -129.914 113.043 -129.914 112.314C-130.098 109.584 -130.282 106.853 -130.466 103.941C-130.466 101.028 -130.834 98.1158 -130.834 95.3853L-131.018 95.2033H-130.834L-130.65 94.6572L-130.466 93.7471C-130.466 93.0189 -130.466 92.4728 -130.282 91.7447C-130.098 90.4704 -130.098 89.1962 -129.914 87.922C-129.362 82.825 -128.074 77.9101 -126.234 73.3593C-122.739 64.2577 -117.403 56.4303 -111.148 50.2411C-109.676 48.6029 -108.02 47.3286 -106.364 45.8724C-105.628 45.1442 -104.708 44.5981 -103.972 43.87C-103.237 43.3239 -102.317 42.5958 -101.581 42.0497C-98.269 39.6832 -94.9573 37.8629 -91.6456 36.2246C-88.334 34.5863 -85.2063 33.3121 -82.2626 32.2199C-80.7907 31.6738 -79.3189 31.3097 -77.847 30.7636C-77.1111 30.5816 -76.3751 30.3995 -75.8232 30.2175C-75.0873 30.0355 -74.5353 29.8534 -73.7994 29.6714C-68.6479 28.5792 -64.2324 28.0331 -61.4726 28.0331C-61.1047 28.0331 -60.7367 28.0331 -60.3687 28.0331C-60.0008 28.0331 -59.8168 28.0331 -59.4488 28.0331C-58.8969 28.0331 -58.345 28.0331 -57.977 28.0331C-57.2411 28.0331 -56.8731 28.0331 -56.8731 28.0331C-56.8731 28.0331 -57.2411 28.0331 -57.977 27.851C-58.345 27.851 -58.8969 27.669 -59.4488 27.487C-59.8168 27.487 -60.0008 27.305 -60.3687 27.305C-60.7367 27.305 -61.1047 27.1229 -61.4726 27.1229C-62.2086 26.9409 -62.9445 26.9409 -63.8644 26.7589C-64.7843 26.7589 -65.7042 26.5768 -66.8081 26.5768C-67.912 26.3948 -69.0159 26.3948 -70.3037 26.3948C-71.5916 26.3948 -72.8795 26.3948 -74.3514 26.3948C-77.1111 26.5768 -80.2388 26.7589 -83.5505 27.487C-85.2063 27.8511 -87.0461 28.2152 -88.7019 28.5792C-90.5417 29.1253 -92.3816 29.6714 -94.2214 30.2175C-101.765 32.766 -109.86 37.1347 -117.403 43.5059C-121.267 46.7825 -124.762 50.4232 -128.074 54.792C-131.386 59.1608 -134.145 63.8936 -136.353 69.1726C-138.561 74.4515 -140.217 80.2766 -141.137 86.1016C-141.321 87.5579 -141.505 89.0142 -141.689 90.6525C-141.689 91.3806 -141.873 92.1088 -141.873 92.8369V93.9291V94.4752V94.6572V95.0213V95.2033C-141.873 98.1158 -142.057 100.846 -142.057 103.759C-142.057 106.853 -141.873 109.948 -141.689 113.043C-141.689 113.771 -141.505 114.499 -141.505 115.409C-141.505 116.137 -141.321 116.865 -141.321 117.775C-141.137 119.232 -140.953 120.87 -140.953 122.326C-140.585 125.421 -140.033 128.515 -139.481 131.61C-138.745 134.704 -138.193 137.799 -137.457 140.894C-134.329 153.272 -129.362 165.286 -123.475 176.572L-121.267 180.759C-120.531 182.215 -119.795 183.671 -119.059 184.946C-117.403 187.676 -115.931 190.407 -114.275 193.137C-112.62 195.868 -110.964 198.416 -109.308 201.147C-107.652 203.695 -105.812 206.243 -104.156 208.974C-97.1651 219.168 -89.9898 228.998 -82.9985 238.281C-79.5028 242.832 -76.0072 247.565 -72.6955 251.934C-69.3839 256.303 -66.0722 260.853 -62.9445 265.04C-59.8168 269.227 -56.8731 273.414 -54.1134 277.6C-51.3536 281.605 -48.7779 285.61 -46.3861 289.433C-41.6026 297.078 -38.1069 304.359 -35.7152 310.731C-33.3234 317.102 -32.4035 322.927 -32.0355 327.66C-31.8515 332.392 -32.2195 336.215 -32.5875 338.764C-32.5875 338.946 -32.5875 339.128 -32.5875 339.128C-36.6351 342.404 -40.1308 346.227 -43.2584 350.414C-43.4424 349.868 -43.8104 349.322 -43.9944 348.593C-44.5463 347.319 -45.0983 346.045 -45.8342 344.771C-46.2021 344.043 -46.3861 343.314 -46.7541 342.768C-47.1221 342.04 -47.49 341.312 -47.858 340.766C-48.5939 339.31 -49.3298 337.853 -50.2497 336.397C-51.1696 334.941 -52.0896 333.303 -53.0095 331.846C-57.0571 325.657 -62.2085 318.922 -68.2799 312.187C-74.3513 305.452 -81.5266 298.898 -89.4378 292.345C-97.1651 285.792 -105.812 279.421 -114.459 272.868C-123.107 266.314 -131.938 259.579 -140.585 252.298C-142.793 250.478 -144.816 248.657 -147.024 246.837C-148.128 245.927 -149.048 245.017 -150.152 243.924C-151.256 243.014 -152.176 242.104 -153.28 241.012C-157.327 237.189 -161.191 233.184 -164.87 228.998C-165.79 227.905 -166.71 226.995 -167.63 225.903L-170.206 222.626L-171.494 220.988C-171.862 220.442 -172.23 219.896 -172.782 219.35L-175.173 216.073C-176.093 214.981 -176.645 213.707 -177.565 212.615C-178.301 211.522 -179.037 210.248 -179.773 209.156C-180.509 208.064 -181.061 206.79 -181.797 205.697L-182.717 204.059L-183.269 203.149L-183.821 202.239C-184.556 200.965 -185.108 199.69 -185.66 198.416L-186.58 196.596V196.414V196.232L-186.764 195.686L-187.132 194.775C-187.684 193.501 -188.236 192.409 -188.788 191.135C-189.34 189.861 -189.708 188.586 -190.26 187.494L-190.996 185.674C-191.18 185.128 -191.364 184.4 -191.548 183.853C-191.916 182.579 -192.284 181.305 -192.652 180.213C-193.204 177.664 -193.94 175.298 -194.491 172.749C-195.043 170.383 -195.411 167.835 -195.779 165.468C-195.963 163.102 -196.331 160.553 -196.515 158.187C-196.883 153.454 -196.883 148.721 -196.331 144.17C-195.779 139.619 -194.859 135.251 -193.572 131.064C-192.284 126.877 -190.628 123.054 -188.604 119.414C-188.052 118.504 -187.684 117.593 -187.132 116.683C-186.58 115.773 -186.028 115.045 -185.476 114.135C-184.924 113.225 -184.373 112.496 -183.821 111.768C-183.269 111.04 -182.717 110.13 -182.165 109.402C-179.957 106.307 -177.381 103.759 -175.173 101.21C-174.621 100.664 -173.886 99.9362 -173.334 99.3901C-172.966 99.026 -172.782 98.844 -172.414 98.4799C-172.046 98.1159 -171.862 97.9338 -171.494 97.7518C-170.942 97.2057 -170.39 96.6596 -169.654 96.1135C-169.102 95.5674 -168.55 95.2033 -167.814 94.6572C-166.71 93.7471 -165.606 92.8369 -164.502 91.9267C-163.399 91.0166 -162.295 90.2884 -161.375 89.5603C-157.327 86.6478 -153.832 84.6454 -151.44 83.3711C-150.336 82.643 -149.232 82.279 -148.68 81.9149C-148.128 81.5508 -147.76 81.3688 -147.76 81.3688C-147.76 81.3688 -148.128 81.5508 -148.864 81.7329C-149.6 81.9149 -150.52 82.279 -151.808 82.643C-153.096 83.0071 -154.751 83.5532 -156.591 84.2813C-157.511 84.6454 -158.615 85.0095 -159.535 85.5556C-160.639 86.1017 -161.743 86.4657 -162.847 87.0118C-163.951 87.5579 -165.238 88.104 -166.526 88.8321C-167.814 89.5603 -169.102 90.2884 -170.39 91.0166C-171.126 91.3806 -171.678 91.9267 -172.414 92.2908C-173.15 92.6549 -173.702 93.201 -174.437 93.7471C-174.805 93.9291 -175.173 94.2931 -175.541 94.4752C-175.909 94.6572 -176.277 95.0213 -176.645 95.2033C-177.381 95.7494 -178.117 96.2955 -178.853 96.8416C-179.589 97.3877 -180.325 97.9338 -181.061 98.662C-181.429 99.026 -181.797 99.2081 -182.165 99.5721C-182.533 99.9362 -182.901 100.3 -183.269 100.482C-184.005 101.21 -184.74 101.756 -185.476 102.485C-186.212 103.213 -186.948 103.941 -187.684 104.669C-190.628 107.582 -193.572 110.858 -196.147 114.681C-198.723 118.504 -201.299 122.69 -203.323 127.241C-205.346 131.792 -207.002 136.889 -208.106 141.986C-209.394 147.265 -209.946 152.726 -209.762 158.369C-209.762 161.099 -209.578 164.012 -209.21 166.924C-209.026 168.381 -208.842 169.837 -208.658 171.111L-208.474 172.203L-208.29 173.296C-208.106 174.024 -207.922 174.752 -207.922 175.48C-207.554 176.936 -207.37 178.392 -206.818 179.667C-206.45 181.123 -206.082 182.397 -205.714 183.853C-205.162 185.31 -204.794 186.584 -204.243 188.04C-204.059 188.768 -203.875 189.496 -203.507 190.043L-202.771 192.045C-202.219 193.319 -201.667 194.775 -201.115 196.232C-200.563 197.506 -199.827 198.962 -199.275 200.236L-198.907 201.329L-198.723 201.875V202.057L-198.539 202.421L-198.355 202.603L-197.435 204.423C-196.883 205.697 -196.147 206.972 -195.595 208.246L-195.043 209.156L-194.491 210.066L-193.388 212.069C-192.652 213.343 -191.916 214.799 -190.996 216.073C-190.26 217.348 -189.34 218.622 -188.604 219.896C-187.684 221.17 -186.948 222.444 -186.028 223.719L-183.453 227.359C-183.085 227.905 -182.533 228.634 -182.165 229.18L-180.693 231L-177.933 234.459C-177.013 235.551 -175.909 236.643 -174.989 237.917C-171.126 242.468 -166.894 246.655 -162.479 250.842C-161.375 251.934 -160.271 252.844 -159.167 253.936C-158.063 254.846 -156.959 255.939 -155.855 256.849C-153.648 258.851 -151.44 260.671 -149.232 262.674C-140.217 270.137 -131.202 277.054 -122.555 283.608C-113.907 290.161 -105.628 296.532 -98.085 302.721C-90.5418 308.91 -83.9184 315.281 -78.215 321.288C-72.5116 327.478 -67.912 333.485 -64.2324 338.946C-63.3125 340.402 -62.5765 341.676 -61.6566 343.132C-60.9207 344.407 -60.1848 345.863 -59.4488 347.137C-59.0809 347.683 -58.7129 348.411 -58.5289 348.957C-58.1609 349.504 -57.977 350.232 -57.609 350.778C-57.0571 352.052 -56.5051 353.144 -55.9532 354.236C-54.1134 358.605 -52.8255 362.064 -52.0896 364.612C-51.9056 365.158 -51.7216 365.705 -51.5376 366.069C-53.1935 370.255 -54.4813 374.624 -55.4012 379.175C-57.425 376.991 -59.6328 374.806 -62.2086 372.622C-66.6241 368.617 -71.9596 364.43 -78.031 360.608C-84.1024 356.603 -90.9097 352.78 -98.085 349.139C-105.26 345.317 -112.988 341.858 -120.899 338.035C-128.81 334.395 -136.905 330.754 -145 326.749C-153.096 322.745 -161.191 318.74 -168.734 314.007C-172.414 311.641 -176.277 309.274 -179.589 306.544C-181.429 305.27 -182.901 303.995 -184.556 302.539C-184.74 302.357 -184.924 302.175 -185.108 301.993L-185.66 301.447L-186.948 300.355L-188.236 299.262L-188.788 298.716L-189.34 298.17C-190.812 296.714 -192.468 295.076 -193.94 293.619C-194.675 292.891 -195.411 291.981 -196.147 291.253C-196.883 290.525 -197.435 289.615 -198.171 288.887C-198.907 288.158 -199.459 287.248 -200.195 286.52C-200.747 285.61 -201.483 284.882 -202.035 284.154C-203.139 282.515 -204.427 280.877 -205.53 279.057C-207.738 275.78 -209.762 272.322 -211.418 268.863C-213.258 265.404 -214.546 261.946 -215.833 258.487C-216.201 257.577 -216.385 256.849 -216.753 255.939C-216.937 255.028 -217.305 254.3 -217.489 253.39C-217.673 252.48 -217.857 251.752 -218.225 250.842C-218.409 249.931 -218.593 249.203 -218.777 248.293C-219.145 246.655 -219.329 244.835 -219.697 243.196C-219.881 241.558 -220.065 239.92 -220.249 238.281C-220.433 236.643 -220.433 235.005 -220.433 233.548C-220.433 232.82 -220.433 231.91 -220.433 231.182C-220.433 230.818 -220.433 230.454 -220.433 230.09C-220.433 229.726 -220.433 229.362 -220.433 228.998C-220.249 226.085 -219.881 223.173 -219.513 220.442C-218.593 215.163 -217.305 210.612 -216.017 206.79C-214.73 203.149 -213.442 200.236 -212.522 198.234C-211.602 196.232 -211.05 195.322 -211.05 195.322L-211.234 195.14C-211.234 195.14 -211.418 195.322 -211.786 195.686C-212.154 196.05 -212.706 196.778 -213.442 197.506C-214.178 198.416 -215.097 199.326 -216.017 200.783C-216.569 201.511 -216.937 202.057 -217.489 202.967C-218.041 203.695 -218.593 204.605 -219.145 205.515C-221.353 208.974 -223.745 213.525 -225.768 218.986C-226.688 221.716 -227.608 224.811 -228.344 227.905C-229.08 231.182 -229.632 234.641 -229.816 238.281C-229.816 239.191 -230 240.102 -230 241.012C-230 241.922 -230 242.832 -230 243.924C-230 245.745 -230 247.747 -229.816 249.749C-229.448 253.754 -228.896 257.759 -227.792 261.946C-227.608 262.492 -227.608 263.038 -227.424 263.584C-227.24 264.13 -227.056 264.676 -227.056 265.04C-226.688 266.132 -226.504 267.043 -226.136 268.135C-225.768 269.227 -225.4 270.137 -225.032 271.229C-224.665 272.322 -224.297 273.232 -223.745 274.324C-223.561 274.87 -223.377 275.416 -223.009 275.78C-222.825 276.326 -222.457 276.872 -222.273 277.236C-221.721 278.329 -221.353 279.239 -220.801 280.331C-219.697 282.333 -218.593 284.336 -217.305 286.338C-212.338 294.165 -206.266 301.447 -199.459 308L-198.907 308.546L-198.171 309.274L-196.883 310.366L-195.595 311.459L-195.043 312.005L-194.308 312.551C-192.468 314.189 -190.444 315.827 -188.604 317.284C-184.74 320.196 -180.693 322.927 -176.645 325.475C-168.55 330.572 -160.087 334.941 -151.808 338.946C-143.529 342.95 -135.249 346.773 -127.522 350.414C-119.611 354.054 -112.252 357.513 -105.26 361.154C-98.269 364.794 -92.0136 368.253 -86.4942 371.894C-80.9747 375.534 -76.1912 379.175 -72.1436 382.634C-68.2799 386.092 -64.9683 389.369 -62.7605 392.281C-62.2085 393.009 -61.6566 393.738 -61.1046 394.284C-60.5527 395.012 -60.1848 395.558 -59.8168 396.104C-59.4488 396.65 -59.0809 397.196 -58.7129 397.742C-58.3449 398.288 -58.161 398.652 -57.793 399.199C-57.425 399.745 -57.2411 400.109 -57.0571 400.473C-56.6891 404.113 -55.7692 407.754 -54.8493 411.213C-58.1609 409.393 -61.4726 407.39 -65.1523 405.57C-70.6717 402.839 -76.7431 400.291 -83.1825 397.924C-86.3102 396.832 -89.6219 395.74 -92.9335 394.648C-96.2452 393.738 -99.5569 392.827 -103.053 391.917C-109.86 390.279 -116.667 388.823 -123.475 387.366C-126.786 386.638 -130.282 385.91 -133.41 385.182C-136.721 384.454 -140.033 383.544 -143.161 382.816L-144.264 382.452L-145.368 382.088C-146.104 381.906 -146.84 381.723 -147.576 381.359C-148.312 381.177 -149.232 380.813 -149.968 380.631L-150.52 380.449L-151.072 380.267L-152.176 379.903C-153.648 379.357 -155.119 378.811 -156.591 378.265C-158.063 377.537 -159.351 376.991 -160.823 376.262C-166.158 373.532 -171.126 370.437 -175.173 366.797C-179.221 363.156 -182.717 359.333 -185.292 355.147C-187.868 351.142 -189.892 346.955 -191.18 343.132C-192.468 339.31 -193.388 335.851 -193.94 332.939C-194.124 332.21 -194.124 331.482 -194.308 330.936C-194.492 330.208 -194.491 329.662 -194.491 329.116C-194.675 328.024 -194.675 326.931 -194.859 326.203C-195.043 324.565 -195.043 323.655 -195.043 323.655C-195.043 323.655 -195.043 323.837 -195.227 324.201C-195.227 324.565 -195.411 325.293 -195.595 326.021C-195.963 327.66 -196.331 330.026 -196.515 333.121C-196.699 334.577 -196.699 336.397 -196.515 338.217C-196.515 339.128 -196.331 340.22 -196.331 341.13C-196.147 342.222 -196.147 343.132 -195.963 344.225C-195.411 348.593 -194.124 353.508 -191.916 358.423C-190.812 360.972 -189.524 363.52 -187.684 366.069C-186.028 368.617 -184.189 370.983 -181.981 373.532C-177.565 378.265 -172.414 382.634 -166.342 386.274C-163.399 388.095 -160.271 389.733 -156.959 391.189L-155.671 391.735L-155.119 392.099L-154.383 392.463C-153.648 392.827 -152.912 393.009 -151.992 393.374C-151.256 393.738 -150.336 393.92 -149.416 394.284L-148.128 394.83L-146.84 395.194C-140.033 397.56 -133.226 399.381 -126.418 401.201C-123.107 402.111 -119.795 402.839 -116.299 403.749C-112.988 404.66 -109.676 405.57 -106.548 406.48C-101.949 407.754 -97.5331 409.21 -93.3015 410.667C-93.6694 411.031 -93.8534 411.213 -94.2214 411.577C-94.9573 412.305 -95.5093 413.033 -96.0612 414.125C-96.6131 415.035 -97.1651 416.128 -97.717 417.584C-98.085 418.858 -98.269 420.314 -98.269 421.953C-98.085 423.591 -97.717 425.229 -96.9811 426.686C-96.2452 428.142 -95.3253 429.598 -94.2214 430.872C-94.0374 431.054 -94.0374 431.236 -93.8535 431.236L-93.6695 431.418L-93.4855 431.6L-93.3015 431.783L-92.9335 432.147L-92.7495 432.329L-92.5656 432.511L-92.0136 433.057C-91.8297 433.239 -91.6456 433.239 -91.4617 433.421C-91.0937 433.603 -90.7257 433.967 -90.5417 434.149C-87.782 435.969 -84.8383 437.243 -81.8946 438.336C-78.9509 439.246 -76.0072 439.974 -73.0635 440.52C-70.1198 441.066 -67.1761 441.43 -64.4164 441.794C-61.6566 442.158 -58.8969 442.523 -56.3211 442.705C-51.1696 443.251 -46.3861 443.797 -42.5225 444.343C-38.6588 444.889 -35.7152 445.617 -33.6914 446.163C-32.7715 446.527 -32.0355 446.709 -31.4836 446.891C-30.9316 447.073 -30.7476 447.255 -30.7476 447.255L-30.5636 447.073C-18.6048 456.357 -3.51836 462 12.856 462C29.2304 462 44.3169 456.357 56.2758 447.073L56.4597 447.255C56.4597 447.255 56.6437 447.073 57.1957 446.891C57.7476 446.709 58.4836 446.527 59.4035 446.163C61.4273 445.617 64.371 444.889 68.2346 444.343C72.0982 443.797 76.8817 443.251 82.0332 442.705C84.609 442.34 87.3687 442.158 90.1284 441.794C92.8881 441.43 95.8319 441.066 98.7756 440.52C101.719 439.974 104.663 439.246 107.607 438.336C110.55 437.426 113.494 436.151 116.254 434.149C116.622 433.967 116.99 433.603 117.174 433.421C117.358 433.239 117.542 433.239 117.726 433.057L118.278 432.511L118.462 432.329L118.646 432.147L119.014 431.783L119.198 431.6L119.382 431.418L119.565 431.236C119.749 431.054 119.75 430.872 119.934 430.872C121.037 429.598 121.957 428.324 122.693 426.686C123.429 425.229 123.797 423.591 123.981 421.953C123.981 420.314 123.797 418.858 123.429 417.584C123.061 416.31 122.509 415.218 121.773 414.125C121.221 413.215 120.485 412.305 119.934 411.577C119.566 411.213 119.382 411.031 119.014 410.667C123.245 409.21 127.661 407.754 132.26 406.48C135.388 405.57 138.7 404.66 142.011 403.749C145.323 402.839 148.635 402.111 152.13 401.201C158.938 399.381 165.745 397.56 172.552 395.194L173.84 394.83L175.128 394.284C176.048 393.92 176.784 393.738 177.704 393.374C178.44 393.009 179.36 392.827 180.096 392.463L180.832 392.099L181.383 391.735L182.671 391.189C185.983 389.733 189.111 388.095 192.054 386.274C198.126 382.634 203.277 378.447 207.693 373.532C209.901 371.166 211.74 368.617 213.396 366.069C215.052 363.52 216.34 360.972 217.444 358.423C219.652 353.326 220.94 348.411 221.491 344.225C221.675 343.132 221.675 342.04 221.859 341.13C221.859 340.038 222.043 339.128 222.043 338.217C222.043 336.397 222.043 334.577 222.043 333.121C221.859 330.026 221.491 327.66 221.124 326.021C220.94 325.293 220.756 324.565 220.756 324.201C220.572 323.837 220.572 323.655 220.572 323.655C220.572 323.655 220.572 324.565 220.388 326.203C220.388 326.931 220.204 328.024 220.02 329.116C220.02 329.662 219.836 330.39 219.836 330.936C219.652 331.664 219.652 332.21 219.468 332.939C218.916 335.851 218.18 339.31 216.708 343.132C215.42 346.955 213.396 351.142 210.821 355.147C208.245 359.151 204.749 363.156 200.702 366.797C196.47 370.437 191.686 373.532 186.351 376.262C185.063 376.991 183.591 377.537 182.119 378.265C180.647 378.811 179.36 379.539 177.704 379.903L176.6 380.267L176.048 380.449L175.496 380.631C174.76 380.813 173.84 381.177 173.104 381.359C172.368 381.541 171.632 381.906 170.896 382.088L169.793 382.452L168.689 382.816C165.561 383.726 162.249 384.454 158.938 385.182C155.626 385.91 152.314 386.638 149.003 387.366C142.195 388.823 135.388 390.279 128.581 391.917C125.269 392.827 121.773 393.738 118.462 394.648C115.15 395.74 111.838 396.65 108.711 397.924C102.271 400.291 96.1998 402.839 90.6804 405.57C87.0008 407.39 83.5051 409.21 80.3774 411.213C81.4813 407.754 82.2172 404.113 82.5852 400.473C82.7692 400.109 83.1371 399.745 83.3211 399.199C83.5051 398.835 83.873 398.288 84.241 397.742C84.609 397.196 84.977 396.65 85.3449 396.104C85.7129 395.558 86.2648 394.83 86.6328 394.284C87.1847 393.556 87.7366 393.009 88.2886 392.281C90.4964 389.369 93.808 386.092 97.6717 382.634C101.535 379.175 106.319 375.534 112.022 371.894C117.542 368.253 123.981 364.612 130.788 361.154C137.78 357.513 145.139 354.054 153.05 350.414C160.961 346.773 169.057 342.95 177.336 338.946C185.615 334.941 194.078 330.39 202.173 325.475C206.221 322.927 210.269 320.196 214.132 317.284C215.972 315.827 217.996 314.189 219.836 312.551L220.572 312.005L221.124 311.459L222.411 310.366L223.699 309.274L224.435 308.546L224.987 308C231.794 301.265 238.05 294.165 242.833 286.338C244.121 284.336 245.225 282.333 246.329 280.331C246.881 279.239 247.249 278.329 247.801 277.236C247.985 276.69 248.353 276.144 248.537 275.78C248.721 275.234 248.905 274.688 249.273 274.324C249.641 273.232 250.193 272.322 250.561 271.229C250.929 270.137 251.297 269.227 251.665 268.135C252.033 267.043 252.216 266.132 252.584 265.04C252.768 264.494 252.952 263.948 252.952 263.584C253.136 263.038 253.136 262.492 253.32 261.946C254.424 257.759 254.976 253.754 255.344 249.749C255.528 247.747 255.528 245.745 255.528 243.924C257 242.832 257 241.922 257 241.012ZM-61.8406 428.688C-64.6003 428.506 -67.3601 428.506 -69.9358 428.142C-72.5116 427.96 -75.0873 427.596 -77.479 427.232C-79.8708 426.868 -82.0786 426.139 -83.9184 425.229C-84.1024 425.047 -84.2864 425.047 -84.6544 424.865L-85.2063 424.501C-85.2063 424.501 -85.2063 424.501 -85.3903 424.501L-85.5743 424.319L-85.9422 423.955L-86.1262 423.773C-86.3102 423.773 -86.3102 423.591 -86.4942 423.591C-87.2301 423.045 -87.966 422.499 -88.334 421.953C-88.8859 421.407 -89.2539 420.861 -89.4378 420.132C-89.8058 419.404 -89.8058 418.858 -89.9898 417.948C-90.1738 416.492 -89.8058 414.671 -89.2539 413.215C-89.0699 412.487 -88.7019 411.941 -88.5179 411.395C-87.966 411.577 -87.414 411.759 -86.8621 411.941C-85.3903 412.487 -83.9184 413.033 -82.6306 413.579C-81.8946 413.943 -81.1587 414.125 -80.4227 414.489C-79.6868 414.853 -78.9509 415.036 -78.3989 415.4C-77.663 415.764 -77.1111 415.946 -76.3752 416.31C-75.6393 416.674 -75.0873 416.856 -74.3514 417.22C-73.6154 417.584 -73.0635 417.766 -72.3275 418.13C-71.5916 418.494 -71.0397 418.676 -70.4877 419.04C-65.3362 421.589 -60.7367 424.137 -56.5051 426.686C-55.4012 427.232 -54.4813 427.96 -53.3774 428.506C-53.5614 428.506 -53.7454 428.506 -53.9294 428.506C-56.3211 428.87 -59.0808 428.688 -61.8406 428.688ZM-22.1005 435.241C-22.8365 434.513 -23.5724 433.967 -24.4923 433.057C-25.2282 432.329 -26.1481 431.6 -27.068 430.69C-36.6351 420.678 -42.5225 407.208 -42.5225 392.281C-42.5225 361.336 -17.133 336.215 14.1439 336.215C45.4208 336.215 70.8103 361.336 70.8103 392.281C70.8103 407.208 64.9229 420.678 55.3558 430.69C54.4359 431.6 53.5161 432.329 52.7801 433.057C51.8602 433.967 51.1243 434.695 50.5723 435.241C40.8213 443.433 28.1266 448.348 14.3279 448.348C0.345291 448.348 -12.1655 443.433 -22.1005 435.241ZM98.5916 419.404C99.1435 419.04 99.8795 418.858 100.431 418.494C101.167 418.13 101.719 417.948 102.455 417.584C103.191 417.22 103.743 417.038 104.479 416.674C105.215 416.31 105.767 416.128 106.503 415.764C107.239 415.4 107.791 415.218 108.527 414.854C109.263 414.489 109.998 414.307 110.734 413.943C112.206 413.397 113.678 412.851 114.966 412.305C115.518 412.123 116.07 411.941 116.622 411.759C116.806 412.305 117.174 413.033 117.358 413.579C117.91 415.036 118.278 416.674 118.094 418.312C118.094 419.04 117.91 419.768 117.542 420.496C117.358 421.225 116.806 421.771 116.438 422.317C115.886 422.863 115.334 423.409 114.598 423.955C114.598 423.955 114.414 424.137 114.23 424.137H114.414L114.046 424.501L113.862 424.683C113.862 424.683 113.862 424.683 113.678 424.683L113.126 425.047C112.942 425.229 112.758 425.229 112.39 425.411C110.55 426.322 108.343 426.868 105.951 427.414C103.559 427.778 100.983 428.142 98.4076 428.324C95.8318 428.506 93.0721 428.688 90.3124 428.87C87.5527 429.052 84.793 429.052 82.2172 429.234C82.0332 429.234 81.8493 429.234 81.6653 429.234C82.5852 428.688 83.6891 427.96 84.7929 427.414C88.8405 424.501 93.6241 421.771 98.5916 419.404Z" fill="#4D4E4E"/>
</svg>
