<svg width="233" height="136" viewBox="0 0 233 136" fill="none" xmlns="http://www.w3.org/2000/svg">
<g id="Group">
<path id="Vector" d="M232.5 135.7V134.8C228 134.8 223.7 131.4 223.1 116.5V60.9C223.1 57.4 220.3 54.6 216.8 54.6H214.4H202.9V55.5C207.4 55.5 211.8 58.8 212.3 74V116.3C211.8 131.5 207.4 134.9 202.9 134.9V135.8H232.5V135.7ZM196.2 81.4C189.6 82.2 182 89.6 178.2 97.7V87.7C178.2 84.2 175.4 81.4 171.9 81.4H158V82.3C162.6 82.3 166.9 85.6 167.4 100.9V116.2C166.9 131.4 162.6 134.8 158 134.8V135.7H187.6V134.8C183.1 134.8 178.8 131.4 178.2 116.5V114.4C178.2 114.5 178.2 114.5 178.3 114.6C178.3 114.5 178.2 114.4 178.2 114.1V104C178.8 100.2 180.1 96.2 183.1 93.7C188.4 89.2 196 89.2 202.5 92.5L205.9 82.9C204.2 81.8 200.3 80.9 196.2 81.4ZM121.2 116.2C125.7 101.6 136.8 101.1 139.3 93C140.5 101.5 139.6 111.2 139.5 120.5C132.1 139.3 118.5 124.7 121.2 116.2ZM150.4 122.4C150.2 107.7 150.9 109.7 150.5 100.9C150 89.2 144.6 81 130.2 81C115.8 81 108.4 96.4 117.1 104.1C119.9 102.6 122.7 101 125.5 99.5C121.1 94.2 122.1 90.1 123.8 87.2C128.3 79.2 137.3 83.1 138.7 89.3C138.8 89.8 138.8 90.2 138.9 90.6C137.7 94 135.2 97.8 129.7 100.2C118.7 105.2 112.9 109.6 110.8 114.4C105.6 126.5 115.4 137.7 126.4 135.4C133.5 133.9 137.7 128.9 139.6 123.1C139.6 125.8 139.7 128.4 139.9 131C140.6 136.8 150.8 137 155.7 133.6C152.9 132.6 150.5 127.5 150.4 122.4ZM68.4 105.8C68.3 97.1 71.2 88 79.7 84.7C80.2 84.5 80.6 84.4 81.2 84.1C81.8 84 82.2 83.8 82.8 83.6C83 83.6 83.3 83.6 83.5 83.5C84.1 83.4 84.7 83.4 85.2 83.3C88.3 83.2 91.4 84.3 92.3 88.6C95.9 104.7 86.7 109.7 80.6 109.6C73.5 109.5 70.2 107.7 68.4 105.8ZM103.7 104.4C105.2 101.7 102 85.6 90.7 82.5C90.6 82.5 90.5 82.4 90.4 82.4C88.4 81.8 85.4 81.5 81.9 81.8C81.4 81.9 80.9 81.9 80.4 82C80.3 82 80.2 82 80.1 82C78.1 82.3 76.6 82.8 75.7 83.2C67.7 85.9 59.4 92.5 57.9 106.5C55.7 126 72.3 138.7 89.6 135.5C95.6 134.5 100.7 130.7 103.6 127.3L103.4 126.5C87.8 139.4 72.4 125.8 69.6 114.8C69 112.7 68.7 110.5 68.6 108.1C70.2 109.6 73 110.9 77.7 111.5C81.9 111.8 100.6 110.1 103.7 104.4ZM44.9 88.6C38.4 96.5 28.6 101 20.2 102.6V73.7C20.4 67.1 21.5 62.8 22.9 60C24.9 57.1 32.7 52.9 41.4 58.5C50.3 64.3 50.2 82.2 44.9 88.6ZM52.1 58.9C44.7 52.7 23.5 54.1 18.3 54.6H0V55.5C4.5 55.5 8.89999 58.8 9.39999 74V116.3C8.89999 131.5 4.5 134.9 0 134.9V135.8H29.6V134.9C25.1 134.9 20.8 131.5 20.2 116.6V104.2C31.3 102.5 41.7 98.2 47.5 94.6C63 84.7 63.1 67.9 52.1 58.9Z" fill="white"/>
<path id="Vector_2" fill-rule="evenodd" clip-rule="evenodd" d="M149.9 33.1C149.9 33 149.9 32.8 149.9 32.7C149.9 32.2 149.8 31.7 149.7 31.2C149.6 30.7 149.5 30.3 149.3 29.9C149 29.1 148.7 28.5 148.4 28C148.3 27.9 148.2 27.8 148.2 27.7C148.1 27.6 148.1 27.5 148 27.4C147.9 27.2 147.8 27.1 147.7 27C147.6 26.9 147.5 26.8 147.5 26.7C147.4 26.6 147.4 26.6 147.4 26.6C147.4 26.6 147.5 26.7 147.6 27C147.7 27.3 147.9 27.7 148.1 28.2C148.3 28.7 148.5 29.4 148.6 30.1C148.7 30.5 148.7 30.9 148.7 31.3C148.7 31.4 148.7 31.4 148.7 31.5C148.7 31.6 148.7 31.6 148.7 31.7C148.7 31.8 148.7 31.9 148.7 32C148.7 32.2 148.7 32.4 148.7 32.7C148.7 32.9 148.7 33.2 148.6 33.4C148.6 33.6 148.5 33.9 148.5 34.1C148.5 34.2 148.5 34.3 148.4 34.5C148.4 34.6 148.3 34.7 148.3 34.9C148.3 35 148.2 35.1 148.2 35.3C148.2 35.4 148.1 35.5 148.1 35.7C147.9 36.2 147.7 36.7 147.5 37.2C147.3 37.7 147 38.2 146.7 38.6C146.6 38.8 146.4 39.1 146.2 39.3C146.1 39.4 146 39.5 145.9 39.6C145.8 39.7 145.7 39.8 145.6 39.9C145.5 40 145.4 40.1 145.3 40.2C145.2 40.3 145.1 40.4 145 40.5C144.8 40.7 144.6 40.9 144.4 41.1L144.3 41.2L144.2 41.3L144 41.5L143.8 41.7L143.7 41.8C143.7 41.8 143.6 41.8 143.6 41.9C143.4 42.1 143.2 42.3 142.9 42.5C142.4 42.9 141.9 43.2 141.4 43.5C140.3 44.2 139.2 44.7 138.1 45.3C137 45.8 135.8 46.4 134.7 46.9C133.6 47.4 132.5 47.9 131.5 48.4C130.5 48.9 129.6 49.5 128.7 50C127.9 50.6 127.1 51.1 126.5 51.7C126.1 52 125.8 52.3 125.6 52.6C125.5 52 125.3 51.3 125.1 50.8C125.1 50.7 125.1 50.7 125.2 50.6C125.3 50.3 125.5 49.8 125.7 49.2C125.8 49 125.8 48.9 125.9 48.7C125.9 48.6 126 48.5 126 48.4C126 48.3 126.1 48.2 126.1 48.1C126.2 47.9 126.3 47.7 126.4 47.5C126.5 47.3 126.6 47.1 126.8 46.9C127.3 46.1 127.9 45.3 128.7 44.4C129.5 43.5 130.4 42.7 131.5 41.8C132.5 40.9 133.7 40 134.9 39.1C136.1 38.2 137.4 37.2 138.6 36.2C138.9 35.9 139.2 35.7 139.5 35.4C139.7 35.3 139.8 35.1 140 35C140.2 34.9 140.3 34.7 140.5 34.6C141.1 34 141.7 33.4 142.2 32.8C142.3 32.6 142.5 32.5 142.6 32.3L143 31.8L143.2 31.6C143.3 31.5 143.3 31.4 143.4 31.3L143.8 30.8C143.9 30.6 144 30.4 144.1 30.3C144.2 30.1 144.3 29.9 144.4 29.8C144.5 29.6 144.6 29.4 144.7 29.2L144.9 28.9L145 28.8L145.1 28.7C145.2 28.5 145.3 28.3 145.4 28.2L145.5 27.9V27.8L145.6 27.7C145.7 27.5 145.8 27.3 145.9 27.1C146 26.9 146.1 26.7 146.1 26.5L146.2 26.2C146.2 26.1 146.3 26 146.3 25.9C146.4 25.7 146.4 25.5 146.5 25.3C146.6 25.1 146.6 24.9 146.7 24.7C146.8 24.5 146.8 24.3 146.8 24.1C146.8 24 146.8 23.9 146.9 23.8V23.7V23.6C146.9 23.4 147 23.2 147 23C147 22.6 147.1 22.2 147.1 21.8C147.1 21 147 20.2 146.9 19.5C146.7 18.8 146.5 18.1 146.2 17.4C145.9 16.8 145.6 16.2 145.2 15.6C144.8 15.1 144.4 14.6 144 14.2C143.9 14.1 143.8 14 143.7 13.9C143.6 13.8 143.5 13.7 143.4 13.6C143.3 13.6 143.3 13.5 143.2 13.5C143.1 13.5 143.1 13.4 143 13.4C142.9 13.3 142.8 13.2 142.7 13.2C142.6 13.1 142.5 13 142.4 13L142.3 12.9C142.2 12.9 142.2 12.8 142.2 12.8C142.1 12.7 142 12.7 141.9 12.6C141.8 12.5 141.7 12.5 141.6 12.4C141.4 12.3 141.2 12.2 141.1 12.1C140.9 12 140.8 11.9 140.6 11.8C140.4 11.7 140.3 11.7 140.1 11.6C140 11.5 139.8 11.5 139.7 11.4C139.4 11.3 139.2 11.2 139 11.2C138.8 11.1 138.7 11.1 138.6 11.1C138.5 11.1 138.5 11.1 138.5 11.1C138.5 11.1 138.5 11.1 138.6 11.2C138.7 11.2 138.8 11.3 139 11.4C139.3 11.6 139.8 11.9 140.4 12.3C140.5 12.4 140.7 12.5 140.8 12.6C141 12.7 141.1 12.8 141.3 13C141.4 13.1 141.5 13.1 141.5 13.2C141.6 13.3 141.7 13.3 141.7 13.4L141.8 13.5L141.9 13.6C142 13.7 142.1 13.8 142.1 13.9C142.4 14.3 142.8 14.6 143.1 15.1C143.2 15.2 143.3 15.3 143.3 15.4C143.4 15.5 143.5 15.6 143.5 15.7C143.6 15.8 143.6 15.9 143.7 16.1C143.8 16.2 143.8 16.3 143.9 16.5C144.2 17 144.4 17.6 144.6 18.1C144.8 18.7 144.9 19.3 145 19.9C145.1 20.5 145.1 21.2 145 21.9C145 22.2 144.9 22.6 144.9 22.9C144.8 23.2 144.8 23.6 144.7 23.9C144.6 24.2 144.5 24.6 144.4 24.9C144.3 25.1 144.3 25.2 144.2 25.4C144.2 25.5 144.1 25.6 144.1 25.7L144 26C143.9 26.2 143.9 26.3 143.8 26.5C143.7 26.7 143.7 26.8 143.6 27L143.5 27.1V27.2L143.4 27.5C143.3 27.7 143.2 27.9 143.1 28L143 28.1L142.9 28.2L142.8 28.4C142.7 28.6 142.6 28.7 142.5 28.9C142.4 29.1 142.3 29.2 142.2 29.4C142.1 29.6 142 29.7 141.9 29.9L141.6 30.4C141.5 30.5 141.5 30.6 141.4 30.6L141.2 30.8L140.8 31.3C140.7 31.5 140.5 31.6 140.4 31.7C139.9 32.3 139.3 32.8 138.8 33.4C138.7 33.5 138.5 33.7 138.4 33.8C138.3 33.9 138.1 34.1 138 34.2C137.7 34.5 137.4 34.7 137.1 35C135.9 36 134.7 37 133.5 37.9C132.3 38.8 131.1 39.7 130 40.6C128.9 41.5 127.9 42.4 127.1 43.4C126.2 44.3 125.5 45.3 125 46.1C124.9 46.3 124.7 46.5 124.6 46.7C124.5 46.9 124.4 47.1 124.3 47.3C124.2 47.4 124.2 47.5 124.1 47.6C124 47.7 124 47.8 124 47.9C123.9 48.1 123.8 48.3 123.8 48.4C123.8 48.5 123.7 48.6 123.7 48.6C123.3 48 122.8 47.5 122.2 47C122.2 47 122.2 47 122.2 46.9C122.1 46.5 122.1 46 122.1 45.3C122.1 44.6 122.3 43.8 122.6 42.9C122.9 42 123.4 41 124.1 39.9C124.4 39.4 124.8 38.8 125.2 38.2C125.6 37.6 126 37 126.4 36.4C126.8 35.8 127.3 35.2 127.7 34.6C128.2 34 128.6 33.3 129.1 32.7C130.1 31.4 131.1 30 132 28.6C132.2 28.2 132.5 27.9 132.7 27.5C132.9 27.1 133.2 26.8 133.4 26.4C133.6 26 133.8 25.6 134.1 25.3C134.2 25.1 134.3 24.9 134.4 24.7L134.7 24.1C135.5 22.5 136.2 20.8 136.6 19.1C136.7 18.7 136.8 18.2 136.9 17.8C137 17.4 137 16.9 137.1 16.5C137.1 16.3 137.1 16.1 137.2 15.9C137.2 15.8 137.2 15.7 137.2 15.6C137.2 15.5 137.2 15.4 137.2 15.3C137.2 14.9 137.2 14.4 137.2 14C137.2 13.6 137.2 13.2 137.2 12.8V12.7V12.5C137.2 12.4 137.2 12.3 137.2 12.2C137.2 12 137.1 11.8 137.1 11.6C137 10.8 136.7 10 136.4 9.2C136.1 8.5 135.7 7.8 135.2 7.2C134.7 6.6 134.2 6.09999 133.7 5.59999C132.7 4.69999 131.5 4.1 130.5 3.7C130.2 3.6 130 3.5 129.7 3.5C129.4 3.4 129.2 3.4 129 3.3C128.5 3.2 128.1 3.19999 127.7 3.09999C127.5 3.09999 127.3 3.09999 127.1 3.09999C126.9 3.09999 126.8 3.09999 126.6 3.09999C126.5 3.09999 126.3 3.09999 126.2 3.09999C126.1 3.09999 126 3.1 125.9 3.2C125.8 3.2 125.8 3.2 125.8 3.2H125.9C126.3 3.2 126.9 3.29999 127.6 3.39999C127.7 3.39999 127.8 3.4 127.9 3.5C128 3.5 128.1 3.49999 128.2 3.59999C128.4 3.69999 128.6 3.7 128.8 3.8C129.2 3.9 129.7 4.09999 130.1 4.39999C130.6 4.59999 131 4.9 131.5 5.2C131.6 5.3 131.7 5.4 131.8 5.5C131.9 5.6 132 5.7 132.1 5.8C132.3 6 132.5 6.19999 132.8 6.39999C133.7 7.29999 134.4 8.4 134.9 9.7C135.1 10.3 135.3 11 135.4 11.7C135.4 11.9 135.4 12.1 135.5 12.2C135.5 12.3 135.5 12.4 135.5 12.5V12.6V12.7C135.5 13.1 135.5 13.5 135.5 13.9C135.5 14.3 135.5 14.7 135.4 15.1C135.4 15.2 135.4 15.3 135.4 15.4C135.4 15.5 135.4 15.6 135.4 15.7C135.4 15.9 135.4 16.1 135.3 16.3C135.2 16.7 135.2 17.1 135.1 17.5C135 17.9 134.9 18.3 134.8 18.7C134.4 20.3 133.7 21.8 132.9 23.3C132.1 24.8 131.2 26.2 130.2 27.6C129.2 29 128.3 30.3 127.3 31.6C127.1 31.9 126.8 32.2 126.6 32.6C126.4 32.9 126.1 33.2 125.9 33.6C125.4 34.2 125 34.9 124.5 35.5C124.1 36.1 123.6 36.7 123.2 37.3C122.8 37.9 122.4 38.5 122.1 39.1C121.4 40.3 120.8 41.4 120.5 42.5C120.1 43.6 120 44.6 119.9 45.5C119.9 45.6 119.9 45.7 119.9 45.8C118.9 45.3 117.8 45 116.6 44.9C116.6 44.8 116.6 44.6 116.6 44.5C116.6 44.3 116.6 44.2 116.6 44C116.6 43.8 116.6 43.7 116.6 43.5V43.4V43.3C116.6 43.2 116.6 43.1 116.6 43C116.6 42.6 116.7 42.2 116.8 41.7C116.9 40.8 117.2 39.7 117.5 38.6C117.8 37.5 118.3 36.3 118.8 35C119.3 33.7 119.9 32.4 120.5 31C121.1 29.6 121.8 28.2 122.4 26.7C123 25.2 123.6 23.7 124.2 22.1C124.7 20.5 125.2 18.9 125.5 17.3C125.5 17.1 125.6 16.9 125.6 16.7C125.6 16.5 125.7 16.3 125.7 16.1C125.7 15.9 125.8 15.7 125.8 15.5C125.8 15.3 125.9 15.1 125.9 14.9C125.9 14.7 126 14.5 126 14.3C126 14.1 126 13.9 126.1 13.7C126.1 13.3 126.2 12.9 126.2 12.5C126.2 11.7 126.2 10.9 126.1 10.1C126 9.29999 125.8 8.59999 125.6 7.89999C125.4 7.19999 125.1 6.49999 124.8 5.89999C124.5 5.29999 124.2 4.7 123.8 4.2C123.7 4.1 123.6 3.9 123.5 3.8C123.4 3.7 123.3 3.59999 123.2 3.39999C123 3.19999 122.8 2.9 122.6 2.7C122.5 2.6 122.4 2.49999 122.3 2.39999C122.2 2.29999 122.1 2.19999 122 2.09999C121.8 1.89999 121.6 1.69999 121.4 1.59999C121.2 1.39999 121 1.3 120.8 1.2C120.7 1.1 120.6 1.1 120.5 1C120.4 0.9 120.3 0.900003 120.2 0.800003C120.1 0.700003 120 0.699997 119.9 0.699997C119.8 0.699997 119.7 0.599991 119.6 0.599991C119.5 0.599991 119.4 0.5 119.3 0.5C119.2 0.5 119.1 0.399994 119 0.399994C118.3 0.199994 117.7 0.1 117.4 0C117.2 0 117.1 0 117 0C117 0 117.1 -9.15676e-06 117.2 0.0999908C117.3 0.0999908 117.4 0.0999969 117.4 0.199997C117.6 0.299997 117.8 0.299994 118.1 0.399994C118.2 0.399994 118.2 0.5 118.3 0.5C118.4 0.5 118.4 0.599991 118.5 0.599991C118.6 0.599991 118.6 0.699997 118.7 0.699997C118.8 0.699997 118.8 0.800003 118.9 0.800003C119.5 1.1 120.2 1.6 120.9 2.3C121.1 2.5 121.2 2.6 121.4 2.8C121.5 2.9 121.6 2.99999 121.6 3.09999C121.7 3.19999 121.8 3.29999 121.8 3.39999C122.1 3.79999 122.4 4.3 122.7 4.8C123 5.3 123.2 5.9 123.4 6.5C123.6 7.1 123.8 7.69999 123.9 8.39999C124.2 9.69999 124.3 11.1 124.2 12.5C124.2 12.9 124.1 13.2 124.1 13.6C124.1 13.8 124 14 124 14.1C124 14.3 123.9 14.5 123.9 14.7C123.9 14.9 123.8 15.1 123.8 15.3C123.8 15.5 123.7 15.7 123.7 15.9C123.7 16.1 123.6 16.3 123.6 16.5C123.6 16.7 123.5 16.9 123.5 17.1C123.1 18.6 122.7 20.1 122.1 21.6C121.6 23.1 120.9 24.6 120.3 26C119.7 27.5 119 28.9 118.4 30.3C117.8 31.7 117.2 33.1 116.7 34.4C116.2 35.6 115.8 36.7 115.5 37.8C115.2 36.7 114.8 35.6 114.3 34.4C113.8 33.1 113.2 31.7 112.6 30.3C112 28.9 111.3 27.5 110.7 26C110.1 24.5 109.4 23.1 108.9 21.6C108.3 20.1 107.9 18.6 107.5 17.1C107.5 16.9 107.4 16.7 107.4 16.5C107.4 16.3 107.3 16.1 107.3 15.9C107.3 15.7 107.2 15.5 107.2 15.3C107.2 15.1 107.1 14.9 107.1 14.7C107.1 14.5 107 14.3 107 14.1C107 13.9 106.9 13.7 106.9 13.6C106.9 13.2 106.8 12.9 106.8 12.5C106.7 11.1 106.8 9.59999 107.1 8.39999C107.2 7.79999 107.4 7.1 107.6 6.5C107.8 5.9 108.1 5.4 108.3 4.8C108.6 4.3 108.9 3.79999 109.2 3.39999C109.3 3.29999 109.4 3.19999 109.4 3.09999C109.5 2.99999 109.6 2.9 109.6 2.8C109.8 2.6 109.9 2.4 110.1 2.3C110.8 1.6 111.5 1.1 112.1 0.800003C112.2 0.800003 112.2 0.699997 112.3 0.699997C112.4 0.699997 112.4 0.599991 112.5 0.599991C112.6 0.599991 112.6 0.5 112.7 0.5C112.8 0.5 112.8 0.399994 112.9 0.399994C113.2 0.299994 113.4 0.199997 113.6 0.199997C113.7 0.199997 113.8 0.0999908 113.8 0.0999908C113.9 0.0999908 113.9 0.1 114 0C114.1 0 114.1 0 114.1 0C114.1 0 114 0 113.9 0C113.8 0 113.7 0 113.5 0C113.1 0 112.6 0.199994 111.9 0.399994C111.8 0.399994 111.7 0.5 111.6 0.5C111.5 0.5 111.4 0.599991 111.3 0.599991C111.2 0.599991 111.1 0.699997 111 0.699997C110.9 0.699997 110.8 0.800003 110.7 0.800003C110.6 0.800003 110.5 0.9 110.4 1C110.3 1.1 110.2 1.1 110.1 1.2C109.9 1.3 109.7 1.49999 109.5 1.59999C109.3 1.79999 109.1 1.89999 108.9 2.09999C108.8 2.19999 108.7 2.29999 108.6 2.39999C108.5 2.49999 108.4 2.6 108.3 2.7C108.1 2.9 107.9 3.09999 107.7 3.39999C107.6 3.49999 107.5 3.6 107.4 3.8C107.3 3.9 107.2 4.1 107.1 4.2C106.7 4.7 106.4 5.29999 106.1 5.89999C105.8 6.49999 105.6 7.19999 105.3 7.89999C105.1 8.59999 104.9 9.39999 104.8 10.1C104.7 10.9 104.6 11.7 104.7 12.5C104.7 12.9 104.7 13.3 104.8 13.7C104.8 13.9 104.8 14.1 104.9 14.3C104.9 14.5 105 14.7 105 14.9C105 15.1 105.1 15.3 105.1 15.5C105.1 15.7 105.2 15.9 105.2 16.1C105.2 16.3 105.3 16.5 105.3 16.7C105.3 16.9 105.4 17.1 105.4 17.3C105.7 18.9 106.2 20.5 106.7 22.1C107.2 23.7 107.8 25.2 108.5 26.7C109.1 28.2 109.8 29.6 110.4 31C111 32.4 111.6 33.7 112.1 35C112.6 36.3 113 37.5 113.4 38.6C113.7 39.7 114 40.8 114.1 41.7C114.2 42.2 114.2 42.6 114.3 43C114.3 43.1 114.3 43.2 114.3 43.3V43.4V43.5C114.3 43.7 114.3 43.9 114.3 44C114.3 44.2 114.3 44.3 114.3 44.5C114.3 44.7 114.3 44.8 114.3 44.9C113.1 45 112 45.3 111 45.8C111 45.7 111 45.6 111 45.5C111 44.7 110.8 43.6 110.4 42.5C110 41.4 109.5 40.3 108.8 39.1C108.5 38.5 108.1 37.9 107.7 37.3C107.3 36.7 106.9 36.1 106.4 35.5C106 34.9 105.5 34.3 105 33.6C104.8 33.3 104.5 33 104.3 32.6C104.1 32.3 103.8 32 103.6 31.6C102.6 30.3 101.6 29 100.7 27.6C99.7001 26.2 98.8001 24.8 98.0001 23.3C97.2001 21.8 96.6001 20.3 96.1001 18.7C96.0001 18.3 95.9001 17.9 95.8001 17.5C95.7001 17.1 95.6001 16.7 95.6001 16.3C95.6001 16.1 95.5001 15.9 95.5001 15.7C95.5001 15.6 95.5001 15.5 95.5001 15.4C95.5001 15.3 95.5001 15.2 95.5001 15.1C95.5001 14.7 95.4001 14.3 95.4001 13.9C95.4001 13.5 95.4001 13.1 95.4001 12.7V12.6V12.5C95.4001 12.4 95.4001 12.3 95.4001 12.2C95.4001 12 95.4001 11.8 95.5001 11.7C95.6001 11 95.8001 10.3 96.0001 9.7C96.5001 8.4 97.2001 7.29999 98.1001 6.39999C98.3001 6.19999 98.5001 6 98.8001 5.8C98.9001 5.7 99.0001 5.6 99.1001 5.5C99.2001 5.4 99.3001 5.3 99.4001 5.2C99.9001 4.9 100.3 4.59999 100.8 4.39999C101.3 4.19999 101.7 4 102.1 3.8C102.3 3.7 102.5 3.69999 102.7 3.59999C102.8 3.59999 102.9 3.5 103 3.5C103.1 3.5 103.2 3.49999 103.3 3.39999C104 3.19999 104.6 3.2 105 3.2C105.1 3.2 105.1 3.2 105.1 3.2H105C104.9 3.2 104.8 3.19999 104.7 3.09999C104.6 3.09999 104.4 3.09999 104.3 3.09999C104.2 3.09999 104 3.09999 103.8 3.09999C103.6 3.09999 103.4 3.09999 103.2 3.09999C102.8 3.09999 102.4 3.2 101.9 3.3C101.7 3.3 101.4 3.4 101.2 3.5C101 3.6 100.7 3.6 100.4 3.7C99.4001 4.1 98.2001 4.69999 97.2001 5.59999C96.7001 6.09999 96.2001 6.6 95.7001 7.2C95.3001 7.8 94.9001 8.5 94.5001 9.2C94.2001 9.9 94.0001 10.7 93.8001 11.6C93.8001 11.8 93.7001 12 93.7001 12.2C93.7001 12.3 93.7001 12.4 93.7001 12.5V12.7V12.8C93.7001 13.2 93.7001 13.6 93.7001 14C93.7001 14.4 93.7001 14.9 93.7001 15.3C93.7001 15.4 93.7001 15.5 93.7001 15.6C93.7001 15.7 93.7001 15.8 93.7001 15.9C93.7001 16.1 93.7001 16.3 93.8001 16.5C93.9001 16.9 93.9001 17.4 94.0001 17.8C94.1001 18.2 94.2001 18.7 94.3001 19.1C94.7001 20.8 95.4001 22.5 96.2001 24.1L96.5001 24.7C96.6001 24.9 96.7001 25.1 96.8001 25.3C97.0001 25.7 97.2001 26.1 97.5001 26.4C97.7001 26.8 98.0001 27.1 98.2001 27.5C98.4001 27.9 98.7001 28.2 98.9001 28.6C99.9001 30 100.9 31.4 101.8 32.7C102.3 33.4 102.8 34 103.2 34.6C103.7 35.2 104.1 35.8 104.5 36.4C104.9 37 105.3 37.6 105.7 38.2C106.1 38.8 106.4 39.3 106.8 39.9C107.5 41 108 42 108.3 42.9C108.6 43.8 108.8 44.6 108.8 45.3C108.8 46 108.8 46.5 108.7 46.9C108.7 46.9 108.7 46.9 108.7 47C108.1 47.5 107.6 48 107.2 48.6C107.2 48.5 107.1 48.4 107.1 48.4C107 48.2 106.9 48 106.9 47.9C106.9 47.8 106.8 47.7 106.8 47.6C106.7 47.5 106.7 47.4 106.6 47.3C106.5 47.1 106.4 46.9 106.3 46.7C106.2 46.5 106 46.3 105.9 46.1C105.3 45.2 104.6 44.3 103.8 43.4C102.9 42.5 102 41.5 100.9 40.6C99.8001 39.7 98.6001 38.8 97.4001 37.9C96.2001 37 95.0001 36 93.8001 35C93.5001 34.8 93.2001 34.5 92.9001 34.2C92.8001 34.1 92.6001 33.9 92.5001 33.8C92.4001 33.7 92.2001 33.5 92.1001 33.4C91.5001 32.9 91.0001 32.3 90.5001 31.7C90.4001 31.6 90.2001 31.4 90.1001 31.3L89.7001 30.8L89.5001 30.6C89.4001 30.5 89.4001 30.4 89.3001 30.4L89.0001 29.9C88.9001 29.7 88.8001 29.6 88.7001 29.4C88.6001 29.2 88.5001 29.1 88.4001 28.9C88.3001 28.7 88.2001 28.6 88.1001 28.4L88.0001 28.2L87.9001 28.1L87.8001 28C87.7001 27.8 87.6001 27.6 87.5001 27.5L87.4001 27.2V27.1L87.3001 27C87.2001 26.8 87.2001 26.7 87.1001 26.5C87.0001 26.3 87.0001 26.2 86.9001 26L86.8001 25.7C86.8001 25.6 86.7001 25.5 86.7001 25.4C86.6001 25.2 86.6001 25.1 86.5001 24.9C86.4001 24.6 86.3001 24.2 86.2001 23.9C86.1001 23.6 86.1001 23.2 86.0001 22.9C86.0001 22.6 85.9001 22.2 85.9001 21.9C85.9001 21.2 85.9001 20.6 85.9001 19.9C86.0001 19.3 86.1001 18.6 86.3001 18.1C86.5001 17.5 86.7001 17 87.0001 16.5C87.1001 16.4 87.1001 16.2 87.2001 16.1C87.3001 16 87.3001 15.9 87.4001 15.7C87.5001 15.6 87.6001 15.5 87.6001 15.4C87.7001 15.3 87.7001 15.2 87.8001 15.1C88.1001 14.7 88.5001 14.3 88.8001 13.9C88.9001 13.8 89.0001 13.7 89.0001 13.6L89.1001 13.5L89.2001 13.4C89.3001 13.3 89.4001 13.2 89.4001 13.2C89.5001 13.1 89.6001 13.1 89.6001 13C89.8001 12.9 89.9001 12.7 90.1001 12.6C90.2001 12.5 90.4001 12.4 90.5001 12.3C91.1001 11.9 91.6001 11.6 91.9001 11.4C92.1001 11.3 92.2001 11.2 92.3001 11.2C92.4001 11.2 92.4001 11.1 92.4001 11.1C92.4001 11.1 92.4001 11.1 92.3001 11.1C92.2001 11.1 92.1001 11.2 91.9001 11.2C91.7001 11.3 91.5001 11.3 91.2001 11.4C91.1001 11.4 90.9001 11.5 90.8001 11.6C90.7001 11.7 90.5001 11.7 90.3001 11.8C90.1001 11.9 90.0001 12 89.8001 12.1C89.6001 12.2 89.4001 12.3 89.3001 12.4C89.2001 12.5 89.1001 12.5 89.0001 12.6C88.9001 12.7 88.8001 12.7 88.7001 12.8L88.6001 12.9L88.5001 13C88.4001 13.1 88.3001 13.1 88.2001 13.2C88.1001 13.3 88.0001 13.4 87.9001 13.4C87.8001 13.4 87.8001 13.5 87.7001 13.5C87.6001 13.5 87.6001 13.6 87.5001 13.6C87.4001 13.7 87.3001 13.8 87.2001 13.9C87.1001 14 87.0001 14.1 86.9001 14.2C86.5001 14.6 86.1001 15.1 85.7001 15.6C85.3001 16.1 85.0001 16.7 84.7001 17.4C84.4001 18 84.2001 18.7 84.0001 19.5C83.8001 20.2 83.8001 21 83.8001 21.8C83.8001 22.2 83.8001 22.6 83.9001 23C83.9001 23.2 84.0001 23.4 84.0001 23.6V23.7V23.8C84.0001 23.9 84.0001 24 84.1001 24.1C84.1001 24.3 84.2001 24.5 84.2001 24.7C84.3001 24.9 84.3001 25.1 84.4001 25.3C84.5001 25.5 84.5001 25.7 84.6001 25.9C84.6001 26 84.7001 26.1 84.7001 26.2L84.8001 26.5C84.9001 26.7 84.9001 26.9 85.0001 27.1C85.1001 27.3 85.2001 27.5 85.3001 27.7L85.4001 27.8V27.9L85.5001 28.2C85.6001 28.4 85.7001 28.6 85.8001 28.7L85.9001 28.8L86.0001 28.9L86.2001 29.2C86.3001 29.4 86.4001 29.6 86.5001 29.8C86.6001 30 86.7001 30.2 86.8001 30.3C86.9001 30.5 87.0001 30.7 87.2001 30.8L87.6001 31.3C87.7001 31.4 87.7001 31.5 87.8001 31.6L88.0001 31.8L88.4001 32.3C88.5001 32.5 88.7001 32.6 88.8001 32.8C89.3001 33.4 89.9001 34 90.5001 34.6C90.6001 34.7 90.8001 34.9 91.0001 35C91.2001 35.1 91.3001 35.3 91.5001 35.4C91.8001 35.7 92.1001 35.9 92.4001 36.2C93.6001 37.3 94.9001 38.2 96.1001 39.1C97.3001 40 98.5001 40.9 99.5001 41.8C100.5 42.7 101.5 43.6 102.3 44.4C103.1 45.3 103.7 46.1 104.2 46.9C104.3 47.1 104.4 47.3 104.6 47.5C104.7 47.7 104.8 47.9 104.9 48.1C104.9 48.2 105 48.3 105 48.4C105 48.5 105.1 48.6 105.1 48.7C105.2 48.9 105.3 49 105.3 49.2C105.6 49.8 105.7 50.3 105.8 50.6C105.8 50.7 105.8 50.7 105.9 50.8C105.7 51.4 105.5 52 105.4 52.6C105.1 52.3 104.8 52 104.5 51.7C103.9 51.1 103.1 50.6 102.3 50C101.5 49.4 100.5 48.9 99.5001 48.4C98.5001 47.9 97.4001 47.4 96.3001 46.9C95.2001 46.4 94.1001 45.9 92.9001 45.3C91.8001 44.7 90.7001 44.2 89.6001 43.5C89.1001 43.2 88.6001 42.8 88.1001 42.5C87.8001 42.3 87.6001 42.1 87.4001 41.9C87.4001 41.9 87.3001 41.9 87.3001 41.8L87.2001 41.7L87.0001 41.5L86.8001 41.3L86.7001 41.2L86.6001 41.1C86.4001 40.9 86.2001 40.7 86.0001 40.5C85.9001 40.4 85.8001 40.3 85.7001 40.2C85.6001 40.1 85.5001 40 85.4001 39.9C85.3001 39.8 85.2001 39.7 85.1001 39.6C85.0001 39.5 84.9001 39.4 84.8001 39.3C84.6001 39.1 84.5001 38.8 84.3001 38.6C84.0001 38.1 83.7001 37.6 83.5001 37.2C83.3001 36.7 83.1001 36.2 82.9001 35.7C82.9001 35.6 82.8001 35.5 82.8001 35.3C82.8001 35.2 82.7001 35.1 82.7001 34.9C82.7001 34.8 82.6001 34.7 82.6001 34.5C82.6001 34.4 82.5001 34.3 82.5001 34.1C82.4001 33.9 82.4001 33.6 82.4001 33.4C82.4001 33.2 82.3001 32.9 82.3001 32.7C82.3001 32.5 82.3001 32.2 82.3001 32C82.3001 31.9 82.3001 31.8 82.3001 31.7C82.3001 31.6 82.3001 31.6 82.3001 31.5C82.3001 31.4 82.3001 31.4 82.3001 31.3C82.3001 30.9 82.4001 30.5 82.4001 30.1C82.5001 29.4 82.7001 28.7 82.9001 28.2C83.1001 27.7 83.3001 27.3 83.4001 27C83.5001 26.7 83.6001 26.6 83.6001 26.6C83.6001 26.6 83.6001 26.6 83.5001 26.7C83.4001 26.8 83.4001 26.8 83.3001 27C83.2001 27.1 83.1001 27.3 83.0001 27.4C82.9001 27.5 82.9001 27.6 82.8001 27.7C82.7001 27.8 82.7001 27.9 82.6001 28C82.3001 28.5 82.0001 29.1 81.7001 29.9C81.6001 30.3 81.4001 30.7 81.3001 31.2C81.2001 31.7 81.1001 32.1 81.1001 32.7C81.1001 32.8 81.1001 33 81.1001 33.1C81.1001 33.2 81.1001 33.4 81.1001 33.5C81.1001 33.8 81.1001 34 81.1001 34.3C81.1001 34.9 81.2001 35.4 81.4001 36C81.4001 36.1 81.4001 36.1 81.5001 36.2C81.5001 36.3 81.5001 36.3 81.6001 36.4C81.6001 36.5 81.7001 36.7 81.7001 36.8C81.8001 36.9 81.8001 37.1 81.9001 37.2C82.0001 37.3 82.0001 37.5 82.1001 37.6C82.1001 37.7 82.2001 37.7 82.2001 37.8C82.2001 37.9 82.3001 37.9 82.3001 38C82.4001 38.1 82.4001 38.3 82.5001 38.4C82.7001 38.7 82.8001 39 83.0001 39.2C83.7001 40.3 84.5001 41.3 85.5001 42.2L85.6001 42.3L85.7001 42.4L85.9001 42.6L86.1001 42.8L86.2001 42.9L86.3001 43C86.6001 43.2 86.8001 43.5 87.1001 43.7C87.6001 44.1 88.2001 44.5 88.8001 44.9C89.9001 45.6 91.1001 46.2 92.3001 46.8C93.5001 47.4 94.6001 47.9 95.7001 48.4C96.8001 48.9 97.8001 49.4 98.8001 49.9C99.8001 50.4 100.6 50.9 101.4 51.4C102.2 51.9 102.8 52.4 103.4 52.9C103.9 53.4 104.4 53.8 104.7 54.3C104.8 54.4 104.9 54.5 104.9 54.6C105 54.7 105 54.8 105.1 54.9C105.2 55 105.2 55.1 105.3 55.1C105.3 55.2 105.4 55.2 105.4 55.3C105.4 55.4 105.5 55.4 105.5 55.5C105.6 56 105.7 56.5 105.8 57C105.3 56.7 104.9 56.5 104.4 56.2C103.6 55.8 102.8 55.5 101.9 55.1C101.5 54.9 101 54.8 100.5 54.7C100 54.6 99.6001 54.4 99.1001 54.3C98.2001 54.1 97.2001 53.9 96.3001 53.7C95.8001 53.6 95.4001 53.5 94.9001 53.4C94.4001 53.3 94.0001 53.2 93.6001 53.1H93.4001H93.2001C93.1001 53.1 93.0001 53 92.9001 53C92.8001 53 92.7001 52.9 92.6001 52.9H92.5001H92.4001L92.2001 52.8C92.0001 52.7 91.8001 52.6 91.6001 52.6C91.4001 52.5 91.2001 52.4 91.0001 52.3C90.2001 51.9 89.6001 51.5 89.0001 51C88.4001 50.5 87.9001 49.9 87.6001 49.4C87.2001 48.8 87.0001 48.3 86.8001 47.7C86.6001 47.2 86.5001 46.7 86.4001 46.3C86.4001 46.2 86.4001 46.1 86.4001 46C86.4001 45.9 86.4001 45.8 86.4001 45.7C86.4001 45.5 86.4001 45.4 86.4001 45.3C86.4001 45.1 86.4001 45 86.4001 45C86.4001 45 86.4001 45 86.4001 45.1C86.4001 45.2 86.4001 45.2 86.3001 45.4C86.3001 45.6 86.2001 46 86.2001 46.4C86.2001 46.6 86.2001 46.9 86.2001 47.1C86.2001 47.2 86.2001 47.4 86.2001 47.5C86.2001 47.6 86.2001 47.8 86.3001 47.9C86.4001 48.5 86.6001 49.2 86.9001 49.9C87.1001 50.3 87.2001 50.6 87.5001 51C87.7001 51.4 88.0001 51.7 88.3001 52C88.9001 52.7 89.6001 53.3 90.5001 53.8C90.9001 54.1 91.4001 54.3 91.8001 54.5L92.0001 54.6H92.1001H92.2001C92.3001 54.6 92.4001 54.7 92.5001 54.7C92.6001 54.7 92.7001 54.8 92.9001 54.8L93.1001 54.9L93.3001 55C94.2001 55.3 95.2001 55.6 96.1001 55.8C96.6001 55.9 97.0001 56 97.5001 56.2C98.0001 56.3 98.4001 56.4 98.9001 56.6C99.5001 56.8 100.2 57 100.7 57.2L100.6 57.3C100.5 57.4 100.4 57.5 100.3 57.6C100.2 57.7 100.1 57.9 100.1 58.1C100 58.3 100 58.5 100 58.7C100 58.9 100.1 59.2 100.2 59.4C100.3 59.6 100.4 59.8 100.6 60C100.6 60 100.6 60 100.7 60.1L100.8 60.2C100.8 60.2 100.8 60.2 100.9 60.3L101 60.4C101.4 60.7 101.8 60.8 102.2 61C102.6 61.1 103 61.2 103.4 61.3C103.8 61.4 104.2 61.4 104.6 61.5C105 61.6 105.4 61.6 105.7 61.6C106.4 61.7 107.1 61.7 107.6 61.8C108.1 61.9 108.6 62 108.8 62.1C108.9 62.1 109 62.2 109.1 62.2C109.2 62.2 109.2 62.2 109.2 62.2C110.9 63.5 113 64.3 115.2 64.3C117.5 64.3 119.6 63.5 121.2 62.2C121.2 62.2 121.2 62.2 121.3 62.2C121.4 62.2 121.5 62.1 121.6 62.1C121.9 62 122.3 61.9 122.8 61.8C123.3 61.7 124 61.6 124.7 61.6C125.1 61.6 125.4 61.5 125.8 61.5C126.2 61.5 126.6 61.4 127 61.3C127.4 61.2 127.8 61.1 128.2 61C128.6 60.9 129 60.7 129.4 60.4L129.5 60.3C129.5 60.3 129.5 60.3 129.6 60.2L129.7 60.1C129.7 60.1 129.7 60.1 129.8 60C130 59.8 130.1 59.6 130.2 59.4C130.3 59.2 130.4 59 130.4 58.7C130.4 58.5 130.4 58.3 130.3 58.1C130.2 57.9 130.2 57.8 130.1 57.6C130 57.5 129.9 57.4 129.8 57.3L129.7 57.2C130.3 57 130.9 56.8 131.5 56.6C131.9 56.5 132.4 56.3 132.9 56.2C133.4 56.1 133.8 56 134.3 55.8C135.2 55.6 136.2 55.3 137.1 55L137.3 54.9L137.5 54.8C137.6 54.8 137.7 54.7 137.9 54.7C138 54.7 138.1 54.6 138.2 54.6H138.3H138.4L138.6 54.5C139.1 54.3 139.5 54.1 139.9 53.8C140.7 53.3 141.5 52.7 142.1 52C142.4 51.7 142.7 51.3 142.9 51C143.1 50.6 143.3 50.3 143.5 49.9C143.8 49.2 144 48.5 144.1 47.9C144.1 47.7 144.1 47.6 144.2 47.5C144.2 47.4 144.2 47.2 144.2 47.1C144.2 46.8 144.2 46.6 144.2 46.4C144.2 46 144.1 45.6 144.1 45.4C144.1 45.3 144.1 45.2 144 45.1C144 45 144 45 144 45C144 45 144 45.1 144 45.3C144 45.4 144 45.6 144 45.7C144 45.8 144 45.9 144 46C144 46.1 144 46.2 144 46.3C143.9 46.7 143.8 47.2 143.6 47.7C143.4 48.2 143.2 48.8 142.8 49.4C142.4 50 142 50.5 141.4 51C140.8 51.5 140.2 52 139.4 52.3C139.2 52.4 139 52.5 138.8 52.6C138.6 52.7 138.4 52.8 138.2 52.8L138 52.9H137.9H137.8C137.7 52.9 137.6 53 137.5 53C137.4 53 137.3 53.1 137.2 53.1H137H136.8C136.4 53.2 135.9 53.3 135.5 53.4C135 53.5 134.6 53.6 134.1 53.7C133.2 53.9 132.2 54.1 131.3 54.3C130.8 54.4 130.4 54.6 129.9 54.7C129.4 54.8 129 55 128.5 55.1C127.6 55.4 126.8 55.8 126 56.2C125.5 56.5 125 56.7 124.6 57C124.7 56.5 124.8 56 124.9 55.5C124.9 55.4 125 55.4 125 55.3C125 55.2 125.1 55.2 125.1 55.1C125.1 55 125.2 55 125.3 54.9C125.4 54.8 125.4 54.7 125.5 54.6C125.6 54.5 125.6 54.4 125.7 54.3C126 53.9 126.5 53.4 127 52.9C127.5 52.4 128.2 51.9 129 51.4C129.8 50.9 130.7 50.4 131.6 49.9C132.6 49.4 133.6 48.9 134.7 48.4C135.8 47.9 136.9 47.4 138.1 46.8C139.3 46.2 140.4 45.6 141.6 44.9C142.2 44.5 142.7 44.2 143.3 43.7C143.6 43.5 143.8 43.3 144.1 43L144.2 42.9L144.3 42.8L144.5 42.6L144.7 42.4L144.8 42.3L144.9 42.2C145.8 41.3 146.7 40.2 147.4 39.2C147.6 38.9 147.7 38.6 147.9 38.4C148 38.3 148 38.1 148.1 38C148.1 37.9 148.2 37.9 148.2 37.8C148.2 37.7 148.3 37.7 148.3 37.6C148.4 37.5 148.4 37.3 148.5 37.2C148.6 37.1 148.6 36.9 148.7 36.8C148.7 36.7 148.8 36.5 148.8 36.4C148.8 36.3 148.8 36.3 148.9 36.2C148.9 36.1 148.9 36.1 149 36C149.1 35.4 149.2 34.8 149.3 34.3C149.3 34 149.3 33.7 149.3 33.5C149.9 33.4 149.9 33.2 149.9 33.1ZM105.7 59.4C105.3 59.4 104.9 59.4 104.6 59.3C104.2 59.3 103.9 59.2 103.5 59.2C103.2 59.1 102.9 59 102.6 58.9H102.5H102.4H102.3C102.2 58.8 102.1 58.7 102 58.7C101.9 58.6 101.9 58.5 101.8 58.4C101.8 58.3 101.7 58.2 101.7 58.1C101.7 57.9 101.7 57.6 101.8 57.4C101.8 57.3 101.9 57.2 101.9 57.1C102 57.1 102.1 57.2 102.1 57.2C102.3 57.3 102.5 57.4 102.7 57.4C102.8 57.4 102.9 57.5 103 57.5C103.1 57.5 103.2 57.6 103.3 57.6C103.4 57.6 103.5 57.7 103.6 57.7C103.7 57.7 103.8 57.8 103.9 57.8C104 57.8 104.1 57.9 104.2 57.9C104.3 57.9 104.4 58 104.5 58C105.2 58.3 105.9 58.7 106.4 59.1C106.5 59.2 106.7 59.3 106.8 59.4H106.7C106.4 59.5 106 59.4 105.7 59.4ZM111.2 60.4C111.1 60.3 111 60.2 110.9 60.1C110.8 60 110.7 59.9 110.5 59.8C109.2 58.4 108.3 56.5 108.3 54.4C108.3 50.1 111.8 46.5 116.2 46.5C120.5 46.5 124.1 50 124.1 54.4C124.1 56.5 123.3 58.4 121.9 59.8C121.8 59.9 121.6 60 121.5 60.1C121.4 60.2 121.3 60.3 121.2 60.4C119.8 61.5 118.1 62.2 116.2 62.2C114.3 62.2 112.5 61.5 111.2 60.4ZM128 58.1C128.1 58.1 128.2 58 128.3 58C128.4 58 128.5 57.9 128.6 57.9C128.7 57.9 128.8 57.8 128.9 57.8C129 57.8 129.1 57.7 129.2 57.7C129.3 57.7 129.4 57.6 129.5 57.6C129.6 57.6 129.7 57.5 129.8 57.5C130 57.4 130.2 57.3 130.4 57.3C130.5 57.3 130.6 57.2 130.6 57.2C130.6 57.3 130.7 57.4 130.7 57.5C130.8 57.7 130.8 57.9 130.8 58.2C130.8 58.3 130.8 58.4 130.7 58.5C130.7 58.6 130.6 58.7 130.5 58.8C130.4 58.9 130.3 59 130.2 59H130.1H130H129.9C129.6 59.1 129.3 59.2 129 59.3C128.7 59.4 128.3 59.4 127.9 59.4C127.5 59.4 127.2 59.4 126.8 59.5C126.4 59.5 126 59.5 125.7 59.5H125.6C125.7 59.4 125.9 59.3 126 59.2C126.6 58.9 127.2 58.5 128 58.1Z" fill="white"/>
</g>
</svg>
