<svg width="264" height="250" viewBox="0 0 264 250" fill="none" xmlns="http://www.w3.org/2000/svg">
<path opacity="0.05" fill-rule="evenodd" clip-rule="evenodd" d="M263.06 130.418C263.06 129.925 262.96 129.433 262.96 128.94C262.861 126.97 262.563 125.099 262.165 123.325C261.768 121.552 261.271 119.976 260.774 118.499C259.681 115.544 258.389 113.081 257.196 111.21C256.898 110.717 256.6 110.323 256.302 109.831C256.004 109.437 255.805 109.043 255.507 108.649C255.01 107.959 254.513 107.368 254.115 106.875C253.718 106.383 253.42 106.087 253.221 105.89C253.022 105.693 252.923 105.595 252.923 105.595L252.824 105.693C252.824 105.693 253.122 106.284 253.619 107.27C254.115 108.353 254.811 109.831 255.507 111.899C256.202 113.968 256.898 116.43 257.395 119.287C257.594 120.764 257.892 122.242 257.892 123.916C257.892 124.113 257.892 124.31 257.892 124.507C257.892 124.704 257.892 124.902 257.892 125.099C257.892 125.493 257.892 125.887 257.892 126.379C257.892 127.266 257.892 128.054 257.793 128.94C257.793 129.827 257.594 130.713 257.494 131.6C257.395 132.486 257.196 133.373 256.997 134.358C256.898 134.85 256.799 135.244 256.699 135.737C256.6 136.229 256.501 136.623 256.302 137.116C256.202 137.608 256.004 138.002 255.904 138.495C255.805 138.987 255.606 139.381 255.407 139.874C254.712 141.745 254.016 143.617 253.022 145.489C252.128 147.36 251.035 149.232 249.842 151.005C249.246 151.891 248.65 152.778 247.954 153.763C247.656 154.255 247.258 154.649 246.96 155.043C246.662 155.437 246.264 155.93 245.867 156.324C245.469 156.718 245.171 157.21 244.774 157.604C244.376 157.998 243.979 158.491 243.581 158.885C242.786 159.771 241.991 160.559 241.097 161.348L240.798 161.643L240.5 161.939L239.805 162.53L239.109 163.121L238.811 163.416C238.712 163.515 238.612 163.613 238.513 163.712C237.618 164.401 236.823 165.189 235.829 165.879C233.941 167.356 231.954 168.637 229.966 169.917C225.891 172.478 221.519 174.645 217.146 176.812C212.773 178.98 208.401 180.95 204.127 182.92C199.854 184.89 195.68 186.86 191.804 188.928C187.928 190.997 184.251 193.065 180.972 195.134C177.692 197.301 174.81 199.468 172.425 201.635C171.033 202.916 169.841 204.098 168.748 205.181C168.251 202.719 167.555 200.355 166.661 198.089C166.76 197.892 166.86 197.597 166.959 197.301C167.356 196.02 168.052 194.05 169.046 191.686C169.344 191.095 169.642 190.504 169.94 189.815C170.139 189.519 170.238 189.125 170.437 188.83C170.636 188.534 170.835 188.14 170.934 187.845C171.332 187.155 171.63 186.466 172.127 185.678C172.524 184.988 173.021 184.2 173.518 183.412C175.506 180.359 177.99 177.108 181.071 173.857C184.152 170.508 187.729 167.159 191.804 163.81C195.879 160.461 200.351 157.013 205.022 153.467C209.692 149.921 214.562 146.178 219.432 142.139C220.624 141.154 221.817 140.071 223.009 138.987C223.606 138.495 224.202 137.904 224.798 137.411C225.395 136.82 225.991 136.328 226.587 135.737C228.873 133.471 231.159 131.206 233.345 128.743C233.842 128.152 234.438 127.561 234.935 126.872L236.426 125L237.221 124.015C237.519 123.719 237.718 123.325 237.916 123.03L239.308 121.06C239.805 120.37 240.202 119.681 240.699 118.991C241.097 118.302 241.594 117.612 241.991 116.923C242.389 116.233 242.786 115.445 243.283 114.756L243.879 113.672L244.177 113.18L244.476 112.687C244.774 111.998 245.171 111.308 245.469 110.619L245.966 109.634L246.066 109.535L246.165 109.338V109.24L246.264 108.944L246.463 108.353C246.761 107.664 247.159 106.875 247.457 106.186C247.755 105.496 248.053 104.708 248.351 103.92L248.749 102.837C248.848 102.443 249.047 102.049 249.146 101.753C249.445 100.965 249.643 100.276 249.941 99.4878C250.14 98.6998 250.339 98.0103 250.538 97.2222C250.737 96.4342 250.935 95.7447 251.134 94.9567C251.233 94.5626 251.333 94.1687 251.333 93.7746L251.432 93.1836L251.532 92.5926C251.631 91.8046 251.73 91.0166 251.83 90.327C251.929 88.751 252.128 87.2734 252.128 85.6974C252.128 82.6438 251.83 79.6887 251.233 76.8322C250.637 73.9756 249.743 71.316 248.65 68.8534C247.556 66.3909 246.165 64.1253 244.774 62.0567C243.382 59.9882 241.792 58.2151 240.202 56.6391C239.805 56.2451 239.407 55.8511 239.01 55.457C238.612 55.063 238.215 54.7675 237.817 54.3735C237.618 54.1765 237.42 53.9795 237.221 53.881C237.022 53.684 236.823 53.5855 236.625 53.3885C236.227 53.093 235.829 52.699 235.432 52.4035C235.034 52.108 234.637 51.8124 234.239 51.5169C234.041 51.4184 233.842 51.2214 233.643 51.1229C233.444 51.0244 233.246 50.8274 233.047 50.7289C232.649 50.4334 232.252 50.2364 231.954 49.9409C231.556 49.7439 231.159 49.4484 230.86 49.2514C230.165 48.7589 229.37 48.4633 228.773 48.0693C228.078 47.6753 227.382 47.3798 226.786 47.0843C226.19 46.7888 225.593 46.4933 224.997 46.2963C224.401 46.0008 223.904 45.8038 223.407 45.6068C222.413 45.2128 221.519 44.9173 220.823 44.7202C220.127 44.5232 219.531 44.3262 219.233 44.2277C218.835 44.1292 218.637 44.0307 218.637 44.0307C218.637 44.0307 218.835 44.1292 219.134 44.3262C219.432 44.5232 220.028 44.7202 220.624 45.1143C221.916 45.8038 223.804 46.8873 225.991 48.4634C226.587 48.8574 227.183 49.2514 227.68 49.7439C228.277 50.2364 228.873 50.6304 229.469 51.2214C229.767 51.5169 230.065 51.7139 230.463 52.0094C230.761 52.305 231.059 52.6005 231.457 52.896C231.656 52.9945 231.755 53.1915 231.954 53.29C232.152 53.487 232.252 53.5855 232.451 53.7825C232.749 54.078 233.047 54.3735 233.444 54.7675C234.736 56.1466 236.028 57.5256 237.221 59.2002C237.519 59.5942 237.817 59.9882 238.115 60.4807C238.413 60.8747 238.711 61.3672 239.01 61.7612C239.308 62.2538 239.606 62.6478 239.904 63.1403C240.202 63.6328 240.401 64.1253 240.699 64.6178C241.693 66.5879 242.687 68.6564 243.382 70.922C244.078 73.1876 244.575 75.5516 244.873 78.0142C245.171 80.4768 245.171 83.0378 244.972 85.5989C244.972 86.8794 244.774 88.16 244.575 89.539C244.376 90.8195 244.177 92.1986 243.879 93.4791C243.681 94.8582 243.283 96.1387 242.885 97.5177C242.687 98.2073 242.488 98.8968 242.289 99.4878C242.19 99.7833 242.09 100.177 241.991 100.473L241.594 101.458C241.295 102.147 241.097 102.837 240.798 103.428C240.5 104.117 240.202 104.708 239.904 105.398L239.705 105.89L239.606 106.186V106.284L239.507 106.383L239.01 107.368C238.612 108.058 238.314 108.747 237.916 109.437L237.618 109.929L237.32 110.422L236.823 111.308C236.426 111.899 236.128 112.589 235.73 113.18C235.333 113.771 234.935 114.46 234.538 115.051C234.14 115.642 233.742 116.332 233.246 116.923L231.954 118.696C231.755 118.991 231.556 119.287 231.258 119.582L230.562 120.469L229.171 122.242C228.674 122.833 228.177 123.424 227.68 123.916C225.693 126.182 223.606 128.349 221.419 130.418C220.823 130.91 220.326 131.403 219.73 131.994C219.134 132.486 218.637 133.077 218.04 133.57C216.848 134.555 215.755 135.54 214.562 136.525C209.891 140.465 205.121 144.11 200.45 147.656C195.779 151.202 191.208 154.748 186.934 158.195C182.661 161.742 178.885 165.288 175.506 168.932C172.226 172.577 169.443 176.123 167.257 179.571C166.76 180.457 166.263 181.245 165.766 182.033C165.269 182.821 164.872 183.708 164.474 184.397C164.276 184.791 164.077 185.185 163.878 185.481C163.679 185.875 163.481 186.269 163.381 186.564C163.083 187.254 162.686 187.943 162.387 188.633C162.288 188.928 162.089 189.322 161.99 189.618C160.3 187.352 158.313 185.284 156.226 183.511C156.226 183.412 156.226 183.412 156.226 183.314C156.027 181.935 155.729 179.866 155.928 177.305C156.027 174.744 156.623 171.592 157.915 168.144C159.207 164.697 161.195 160.757 163.679 156.619C164.971 154.551 166.363 152.384 167.853 150.217C169.344 148.05 170.934 145.784 172.624 143.42C174.313 141.154 176.003 138.692 177.891 136.328C179.68 133.865 181.568 131.403 183.456 128.94C187.232 123.916 191.108 118.597 194.885 113.081C195.779 111.702 196.773 110.323 197.667 108.846C198.562 107.368 199.456 105.989 200.351 104.511C201.245 103.034 202.04 101.556 202.935 100.079C203.332 99.3893 203.73 98.6012 204.127 97.8132L205.32 95.5477C208.5 89.4405 211.183 82.9393 212.873 76.2411C213.27 74.5666 213.668 72.892 213.966 71.2175C214.264 69.5429 214.562 67.8684 214.761 66.1939C214.86 65.3073 214.96 64.5193 214.96 63.7313C214.96 63.3373 215.059 62.9433 215.059 62.4507C215.059 62.0567 215.158 61.6627 215.158 61.1702C215.258 59.4957 215.258 57.8211 215.357 56.1466C215.357 54.5705 215.258 52.9945 215.258 51.5169V51.4185V51.2214V51.1229V50.8274V50.2364C215.258 49.8424 215.158 49.4484 215.158 49.0544C215.059 48.2663 214.96 47.3798 214.86 46.5918C214.363 43.3412 213.469 40.2876 212.276 37.431C211.084 34.5745 209.494 31.9149 207.804 29.6493C206.015 27.2853 204.127 25.3152 202.04 23.5422C197.966 19.9961 193.593 17.7305 189.518 16.3515C188.524 15.9575 187.531 15.662 186.537 15.4649C185.543 15.2679 184.649 14.9724 183.754 14.8739C181.965 14.4799 180.276 14.3814 178.785 14.2829C177.99 14.2829 177.294 14.1844 176.599 14.2829C175.903 14.2829 175.307 14.2829 174.711 14.3814C174.114 14.4799 173.617 14.4799 173.12 14.4799C172.624 14.5784 172.226 14.5784 171.829 14.6769C171.63 14.6769 171.431 14.7754 171.232 14.7754C171.034 14.7754 170.934 14.8739 170.735 14.8739C170.437 14.9724 170.238 14.9724 169.94 15.0709C169.543 15.1694 169.344 15.1694 169.344 15.1694C169.344 15.1694 169.543 15.1694 169.94 15.1694C170.139 15.1694 170.437 15.1694 170.735 15.1694C170.934 15.1694 171.034 15.1694 171.232 15.1694C171.431 15.1694 171.63 15.1694 171.829 15.1694C173.419 15.2679 175.704 15.4649 178.487 16.0559C178.885 16.1544 179.183 16.253 179.58 16.3515C179.978 16.45 180.375 16.5485 180.673 16.647C181.468 16.844 182.263 17.1395 183.059 17.435C184.649 18.026 186.437 18.7155 188.127 19.602C189.916 20.4886 191.705 21.5721 193.493 22.7541C193.891 23.0497 194.388 23.4437 194.785 23.7392C195.183 24.0347 195.68 24.4287 196.077 24.8227C196.972 25.5122 197.767 26.3002 198.661 27.1868C201.941 30.5359 204.922 34.7715 206.81 39.6966C207.705 42.1592 208.4 44.8187 208.798 47.5768C208.897 48.2663 208.897 48.9559 208.997 49.6454C208.997 50.0394 208.997 50.3349 208.997 50.7289V51.2214L208.897 51.5169H208.798L208.897 51.6154C208.897 53.1915 208.897 54.669 208.897 56.2451C208.798 57.7226 208.699 59.2002 208.599 60.7762C208.599 61.1702 208.5 61.5642 208.5 61.9582C208.401 62.3522 208.4 62.7463 208.4 63.1403C208.301 63.9283 208.202 64.7163 208.102 65.4058C207.904 66.9819 207.506 68.4594 207.208 69.937C206.81 71.4145 206.413 72.9906 206.015 74.4681C204.227 80.4768 201.742 86.4854 198.661 92.1986C195.58 97.9118 192.003 103.428 188.226 108.747C184.45 114.066 180.673 119.287 176.897 124.212C175.903 125.493 175.009 126.675 174.114 127.955C173.22 129.236 172.226 130.418 171.332 131.6C169.543 134.062 167.754 136.426 166.064 138.79C164.375 141.154 162.686 143.519 161.195 145.784C159.704 148.05 158.213 150.315 156.822 152.581C154.139 157.013 151.952 161.348 150.462 165.583C148.971 169.72 148.375 173.759 148.275 177.009C148.275 177.502 148.275 177.896 148.275 178.389C144.3 176.418 140.126 175.236 135.455 174.744C135.455 174.251 135.455 173.66 135.555 173.069C135.555 172.478 135.555 171.789 135.654 171.198C135.654 170.508 135.753 169.819 135.753 169.129C135.753 168.932 135.753 168.735 135.753 168.538C135.753 168.341 135.753 168.144 135.853 167.947C135.853 167.553 135.952 167.159 135.952 166.765C136.052 165.189 136.35 163.515 136.549 161.742C137.145 158.097 138.039 154.058 139.331 149.724C140.623 145.39 142.313 140.662 144.3 135.737C146.288 130.812 148.574 125.69 150.959 120.272C153.344 114.953 155.928 109.338 158.313 103.625C160.797 97.9118 163.083 91.9031 165.17 85.8944C167.257 79.7872 169.046 73.5816 170.338 67.3759C170.537 66.5879 170.636 65.7998 170.835 65.0118C171.034 64.2238 171.133 63.4358 171.232 62.6478C171.332 61.8597 171.53 61.0717 171.63 60.2837C171.729 59.4957 171.829 58.8061 171.928 58.0181C172.027 57.2301 172.127 56.4421 172.226 55.7526C172.325 54.9645 172.425 54.1765 172.425 53.3885C172.524 51.8125 172.624 50.2364 172.624 48.6604C172.624 45.5083 172.425 42.4547 172.027 39.4996C171.63 36.5445 170.934 33.6879 170.139 30.9299C169.344 28.1718 168.35 25.6107 167.158 23.1481C165.965 20.7841 164.673 18.5185 163.282 16.45C162.884 15.9575 162.586 15.4649 162.189 14.9724C161.791 14.4799 161.493 13.9874 161.095 13.5934C160.3 12.7068 159.605 11.8203 158.81 11.0323C158.412 10.6383 158.015 10.2443 157.617 9.85028C157.22 9.45627 156.822 9.06225 156.425 8.76674C155.63 8.07722 154.835 7.3877 154.039 6.79668C153.244 6.20567 152.449 5.71317 151.654 5.12216C151.257 4.82665 150.859 4.62963 150.462 4.43262C150.064 4.23562 149.667 3.9401 149.269 3.74309C148.872 3.54609 148.474 3.34911 148.176 3.1521C147.779 2.95509 147.381 2.85659 147.083 2.65959C146.685 2.46258 146.387 2.36408 145.99 2.16707C145.592 2.06857 145.294 1.87154 144.996 1.77304C142.313 0.78801 140.126 0.394023 138.636 0.197018C137.94 0.0985148 137.344 0.0985028 136.946 0C136.549 0 136.35 0 136.35 0C136.35 0 136.549 0.0985148 136.946 0.197018C137.145 0.29552 137.344 0.295502 137.642 0.394005C137.94 0.492508 138.238 0.591029 138.536 0.689531C139.232 0.98504 140.126 1.18205 141.021 1.67456C141.219 1.77306 141.518 1.87155 141.816 1.97006C142.114 2.06856 142.313 2.26556 142.611 2.36406C142.909 2.46256 143.207 2.65956 143.406 2.75807C143.704 2.85657 144.002 3.05357 144.3 3.25058C146.685 4.53112 149.369 6.40269 151.952 9.06227C152.648 9.65328 153.244 10.4413 153.94 11.1308C154.238 11.5248 154.536 11.9188 154.934 12.3128C155.232 12.7069 155.53 13.1009 155.828 13.4949C157.021 15.1694 158.213 16.9425 159.307 18.9125C160.4 20.8826 161.394 23.0497 162.189 25.3152C162.984 27.5808 163.679 29.9448 164.276 32.5059C165.369 37.5296 165.766 42.9472 165.468 48.4634C165.369 49.8424 165.269 51.2214 165.071 52.699C164.971 53.3885 164.872 54.078 164.773 54.7675C164.673 55.4571 164.574 56.2451 164.375 56.9346C164.276 57.7226 164.077 58.4121 163.977 59.2002C163.779 59.8897 163.679 60.6777 163.481 61.3672C163.282 62.0567 163.182 62.8448 162.984 63.5343C162.785 64.2238 162.586 65.0118 162.487 65.7014C160.996 71.513 159.207 77.4232 157.12 83.2348C155.033 89.0465 152.648 94.7597 150.164 100.374C147.679 105.989 145.095 111.505 142.71 116.923C140.325 122.34 137.94 127.561 135.952 132.683C134.163 137.214 132.573 141.647 131.381 145.883C130.188 141.647 128.598 137.214 126.809 132.683C124.822 127.561 122.437 122.242 120.051 116.923C117.666 111.505 115.082 105.989 112.598 100.374C110.113 94.7597 107.728 89.0465 105.641 83.2348C103.455 77.4232 101.666 71.6115 100.275 65.7014C100.076 65.0118 99.8772 64.2238 99.7778 63.5343C99.5791 62.8448 99.4797 62.0567 99.2809 61.3672C99.0822 60.6777 98.9828 59.8897 98.784 59.2002C98.6847 58.4121 98.4859 57.7226 98.3865 56.9346C98.2871 56.2451 98.0884 55.4571 97.989 54.7675C97.8896 54.078 97.7902 53.3885 97.6908 52.699C97.4921 51.3199 97.3927 49.9409 97.2933 48.4634C96.9952 42.9472 97.3927 37.431 98.4859 32.5059C98.9828 30.0433 99.6784 27.5808 100.573 25.3152C101.368 23.0497 102.362 20.9811 103.455 18.9125C104.548 16.9425 105.741 15.1694 106.933 13.4949C107.231 13.1009 107.529 12.7069 107.828 12.3128C108.126 11.9188 108.424 11.5248 108.821 11.1308C109.517 10.4413 110.113 9.65328 110.809 9.06227C113.393 6.40269 116.176 4.62962 118.461 3.25058C118.759 3.05357 119.058 2.95507 119.356 2.75807C119.654 2.65956 119.952 2.46256 120.151 2.36406C120.449 2.26556 120.648 2.06856 120.946 1.97006C121.244 1.87155 121.443 1.77306 121.741 1.67456C122.735 1.28055 123.53 0.98504 124.225 0.689531C124.524 0.591029 124.921 0.492508 125.12 0.394005C125.418 0.295502 125.617 0.29552 125.815 0.197018C126.213 0.0985148 126.412 0 126.412 0C126.412 0 126.213 0 125.815 0C125.418 0 124.822 0.0985148 124.126 0.197018C122.635 0.394023 120.449 0.78801 117.766 1.77304C117.468 1.87154 117.07 2.06857 116.772 2.16707C116.474 2.26558 116.076 2.46258 115.679 2.65959C115.281 2.85659 114.983 2.95509 114.585 3.1521C114.188 3.34911 113.89 3.54609 113.492 3.74309C113.095 3.9401 112.697 4.13712 112.3 4.43262C111.902 4.62963 111.505 4.92515 111.107 5.12216C110.312 5.61467 109.517 6.10717 108.722 6.79668C107.927 7.3877 107.132 8.07722 106.337 8.76674C105.939 9.16075 105.542 9.45627 105.144 9.85028C104.747 10.2443 104.349 10.6383 103.952 11.0323C103.157 11.8203 102.461 12.7068 101.666 13.5934C101.269 14.0859 100.97 14.5784 100.573 14.9724C100.175 15.4649 99.8772 15.9575 99.4797 16.45C98.0884 18.5185 96.7964 20.7841 95.6039 23.1481C94.4113 25.6107 93.5169 28.1718 92.6224 30.9299C91.8274 33.6879 91.1317 36.5445 90.7342 39.4996C90.3367 42.4547 90.1379 45.5083 90.1379 48.6604C90.1379 50.2364 90.2373 51.8125 90.3367 53.3885C90.4361 54.1765 90.5355 54.9645 90.5355 55.7526C90.6348 56.5406 90.7342 57.3286 90.8336 58.0181C90.933 58.8061 91.0324 59.4957 91.1317 60.2837C91.2311 61.0717 91.4299 61.8597 91.5293 62.6478C91.6286 63.4358 91.8274 64.2238 91.9268 65.0118C92.1255 65.7998 92.2249 66.5879 92.4237 67.3759C93.7156 73.5816 95.5045 79.7872 97.5915 85.8944C99.6784 92.0016 102.064 97.9118 104.449 103.625C106.834 109.437 109.418 114.953 111.803 120.272C114.188 125.591 116.474 130.812 118.461 135.737C120.449 140.662 122.138 145.39 123.43 149.724C124.722 154.058 125.617 158.097 126.213 161.742C126.511 163.515 126.71 165.189 126.809 166.765C126.809 167.159 126.909 167.553 126.909 167.947C126.909 168.144 126.909 168.341 127.008 168.538C127.008 168.735 127.008 168.932 127.008 169.129C127.008 169.819 127.107 170.508 127.107 171.198C127.107 171.789 127.207 172.478 127.207 173.069C127.207 173.66 127.207 174.251 127.207 174.744C122.635 175.236 118.263 176.418 114.387 178.389C114.387 177.994 114.387 177.502 114.387 177.009C114.287 173.759 113.691 169.72 112.2 165.583C110.71 161.348 108.523 157.013 105.84 152.581C104.548 150.315 103.057 148.05 101.467 145.784C99.8772 143.519 98.2871 141.154 96.5977 138.79C94.9082 136.426 93.1194 134.062 91.3305 131.6C90.4361 130.418 89.5416 129.137 88.5478 127.955C87.6534 126.773 86.6596 125.493 85.7652 124.212C81.9888 119.287 78.1129 114.066 74.4359 108.747C70.7588 103.428 67.0817 97.9118 64.0009 92.1986C60.9201 86.4854 58.3362 80.5753 56.6468 74.4681C56.2493 72.9906 55.8517 71.4145 55.4542 69.937C55.1561 68.3609 54.8579 66.8834 54.5598 65.4058C54.4604 64.6178 54.361 63.8298 54.2616 63.1403C54.2616 62.7463 54.1623 62.3522 54.1623 61.9582C54.1623 61.5642 54.0629 61.1702 54.0629 60.7762C53.9635 59.2987 53.8641 57.8211 53.7647 56.2451C53.7647 54.669 53.566 53.093 53.566 51.6154L53.4666 51.5169H53.566L53.6654 51.2214L53.7647 50.7289C53.7647 50.3349 53.7647 50.0394 53.8641 49.6454C53.9635 48.9559 53.9635 48.2663 54.0629 47.5768C54.361 44.8187 55.0567 42.1592 56.0505 39.6966C57.9387 34.7715 60.8207 30.5359 64.1997 27.1868C64.9947 26.3002 65.8891 25.6107 66.7836 24.8227C67.1811 24.4287 67.678 24.1332 68.0755 23.7392C68.473 23.4437 68.9699 23.0497 69.3675 22.7541C71.1563 21.4736 72.9451 20.4886 74.734 19.602C76.5228 18.7155 78.2123 18.026 79.8024 17.435C80.5974 17.1395 81.3925 16.9425 82.1875 16.647C82.585 16.5485 82.9826 16.45 83.2807 16.3515C83.6782 16.253 83.9764 16.1544 84.3739 16.0559C87.1565 15.4649 89.5416 15.1694 91.0324 15.1694C91.2311 15.1694 91.4299 15.1694 91.6286 15.1694C91.8274 15.1694 91.9268 15.1694 92.1255 15.1694C92.4237 15.1694 92.7218 15.1694 92.9206 15.1694C93.3181 15.1694 93.5169 15.1694 93.5169 15.1694C93.5169 15.1694 93.3181 15.1694 92.9206 15.0709C92.7218 15.0709 92.4237 14.9724 92.1255 14.8739C91.9268 14.8739 91.8274 14.7754 91.6286 14.7754C91.4299 14.7754 91.2311 14.6769 91.0324 14.6769C90.6348 14.5784 90.2373 14.5784 89.7404 14.4799C89.2435 14.4799 88.7466 14.3814 88.1503 14.3814C87.554 14.2829 86.9578 14.2829 86.2621 14.2829C85.5665 14.2829 84.8708 14.2829 84.0757 14.2829C82.585 14.3814 80.8956 14.4799 79.1067 14.8739C78.2123 15.0709 77.2185 15.2679 76.3241 15.4649C75.3303 15.7605 74.3365 16.056 73.3427 16.3515C69.2681 17.7305 64.8953 20.0946 60.8207 23.5422C58.7338 25.3152 56.8455 27.2853 55.0567 29.6493C53.2678 32.0134 51.7771 34.5745 50.5846 37.431C49.392 40.2876 48.4976 43.4397 48.0007 46.5918C47.9013 47.3798 47.8019 48.1678 47.7025 49.0544C47.7025 49.4484 47.6032 49.8424 47.6032 50.2364V50.8274V51.1229V51.2214V51.4185V51.5169C47.6032 53.093 47.5038 54.5705 47.5038 56.1466C47.5038 57.8211 47.6032 59.4957 47.7025 61.1702C47.7025 61.5642 47.8019 61.9582 47.8019 62.4507C47.8019 62.8448 47.9013 63.2388 47.9013 63.7313C48.0007 64.5193 48.1001 65.4058 48.1001 66.1939C48.2988 67.8684 48.597 69.5429 48.8951 71.2175C49.2926 72.892 49.5908 74.5666 49.9883 76.2411C51.6778 82.9393 54.361 89.4405 57.5412 95.5477L58.7338 97.8132C59.1313 98.6012 59.5288 99.3893 59.9263 100.079C60.8208 101.556 61.6158 103.034 62.5102 104.511C63.4046 105.989 64.299 107.368 65.1935 108.846C66.0879 110.225 67.0817 111.604 67.9761 113.081C71.7526 118.597 75.6284 123.916 79.4049 128.94C81.2931 131.403 83.1813 133.964 84.9701 136.328C86.759 138.692 88.5479 141.154 90.2373 143.42C91.9268 145.686 93.5169 147.951 95.0076 150.217C96.4983 152.384 97.8896 154.551 99.1815 156.619C101.765 160.757 103.654 164.697 104.946 168.144C106.238 171.592 106.734 174.744 106.933 177.305C107.033 179.866 106.834 181.935 106.635 183.314C106.635 183.412 106.635 183.511 106.635 183.511C104.449 185.284 102.56 187.352 100.871 189.618C100.772 189.322 100.573 189.027 100.473 188.633C100.175 187.943 99.8772 187.254 99.4797 186.564C99.2809 186.17 99.1815 185.776 98.9828 185.481C98.784 185.087 98.5853 184.693 98.3865 184.397C97.989 183.609 97.5915 182.821 97.0946 182.033C96.5977 181.245 96.1008 180.359 95.6039 179.571C93.4175 176.221 90.6348 172.577 87.3553 168.932C84.0758 165.288 80.1999 161.742 75.9266 158.195C71.7526 154.649 67.0817 151.202 62.4108 147.656C57.74 144.11 52.9697 140.465 48.2988 136.525C47.1063 135.54 46.0131 134.555 44.8205 133.57C44.2242 133.077 43.7273 132.585 43.131 131.994C42.5348 131.501 42.0379 131.009 41.4416 130.418C39.2552 128.349 37.1682 126.182 35.1806 123.916C34.6837 123.325 34.1868 122.833 33.6899 122.242L32.2986 120.469L31.6029 119.582C31.4042 119.287 31.2054 118.991 30.9073 118.696L29.6153 116.923C29.1184 116.332 28.8203 115.642 28.3234 115.051C27.9259 114.46 27.5283 113.771 27.1308 113.18C26.7333 112.589 26.4352 111.899 26.0376 111.308L25.5407 110.422L25.2426 109.929L24.9444 109.437C24.5469 108.747 24.2488 108.058 23.9506 107.368L23.4537 106.383V106.284V106.186L23.3544 105.89L23.1556 105.398C22.8575 104.708 22.5593 104.117 22.2612 103.428C21.963 102.738 21.7643 102.049 21.4661 101.458L21.0686 100.473C20.9692 100.177 20.8699 99.7833 20.7705 99.4878C20.5717 98.7983 20.373 98.1087 20.1742 97.5177C19.8761 96.1387 19.4785 94.8582 19.1804 93.4791C18.8823 92.1986 18.6835 90.8195 18.4847 89.539C18.3853 88.2585 18.1866 86.8794 18.0872 85.5989C17.8885 83.0378 17.8885 80.4768 18.1866 78.0142C18.4847 75.5516 18.9816 73.1876 19.6773 70.922C20.373 68.6564 21.2674 66.5879 22.3606 64.6178C22.6587 64.1253 22.8575 63.6328 23.1556 63.1403C23.4538 62.6478 23.7519 62.2538 24.05 61.7612C24.3482 61.2687 24.6463 60.8747 24.9444 60.4807C25.2426 60.0867 25.5407 59.5942 25.8389 59.2002C27.0314 57.5256 28.4228 56.1466 29.6153 54.7675C29.9135 54.472 30.311 54.078 30.6091 53.7825C30.8079 53.5855 30.9073 53.487 31.106 53.29C31.3048 53.093 31.4042 52.9945 31.6029 52.896C31.9011 52.6005 32.1992 52.305 32.5967 52.0094C32.8949 51.7139 33.193 51.5169 33.5905 51.2214C34.1868 50.7289 34.7831 50.2364 35.3794 49.7439C35.9757 49.2514 36.572 48.8574 37.0689 48.4634C39.2552 46.8873 41.1434 45.8038 42.4354 45.1143C43.0317 44.7202 43.628 44.5232 43.9261 44.3262C44.2242 44.1292 44.423 44.0307 44.423 44.0307C44.423 44.0307 44.2242 44.1292 43.8267 44.2277C43.4292 44.3262 42.9323 44.5232 42.2366 44.7202C41.541 44.9173 40.6465 45.2128 39.6527 45.6068C39.1558 45.8038 38.5596 46.0008 38.0627 46.2963C37.4664 46.5918 36.8701 46.7888 36.2738 47.0843C35.6775 47.3798 34.9819 47.6753 34.2862 48.0693C33.5905 48.4633 32.8949 48.8574 32.1992 49.2514C31.8017 49.4484 31.5036 49.7439 31.106 49.9409C30.7085 50.1379 30.4104 50.4334 30.0128 50.7289C29.8141 50.8274 29.6153 51.0244 29.4166 51.1229C29.2178 51.2214 29.0191 51.4184 28.8203 51.5169C28.4228 51.8124 28.0252 52.108 27.6277 52.4035C27.2302 52.699 26.8327 52.9945 26.4352 53.3885C26.2364 53.5855 26.0376 53.684 25.8389 53.881C25.6401 54.078 25.4414 54.275 25.2426 54.3735C24.8451 54.7675 24.4476 55.063 24.05 55.457C23.6525 55.8511 23.255 56.2451 22.8575 56.6391C21.2674 58.2151 19.6773 59.9882 18.286 62.0567C16.8946 64.1253 15.5033 66.3909 14.4101 68.8534C13.317 71.316 12.4225 74.0741 11.8263 76.8322C11.1306 79.6887 10.8325 82.6438 10.9318 85.6974C10.9318 87.1749 11.0312 88.751 11.23 90.327C11.3294 91.1151 11.4287 91.9031 11.5281 92.5926L11.6275 93.1836L11.7269 93.7746C11.8263 94.1687 11.9256 94.5626 11.9256 94.9567C12.1244 95.7447 12.2238 96.5327 12.5219 97.2222C12.7207 98.0103 12.9194 98.6998 13.1182 99.4878C13.4163 100.276 13.6151 100.965 13.9132 101.753C14.0126 102.147 14.112 102.541 14.3108 102.837L14.7083 103.92C15.0064 104.61 15.3046 105.398 15.6027 106.186C15.9008 106.875 16.2984 107.664 16.5965 108.353L16.7953 108.944L16.8947 109.24V109.338L16.994 109.535L17.0934 109.634L17.5903 110.619C17.8885 111.308 18.286 111.998 18.5841 112.687L18.8823 113.18L19.1804 113.672L19.7767 114.756C20.1742 115.445 20.5717 116.233 21.0686 116.923C21.4661 117.612 21.963 118.302 22.3606 118.991C22.8575 119.681 23.255 120.37 23.7519 121.06L25.1432 123.03C25.342 123.325 25.6401 123.719 25.8389 124.015L26.6339 125L28.1246 126.872C28.6215 127.463 29.2178 128.054 29.7147 128.743C31.8017 131.206 34.0874 133.471 36.4726 135.737C37.0689 136.328 37.6651 136.82 38.2614 137.411C38.8577 137.904 39.454 138.495 40.0503 138.987C41.2428 140.071 42.4354 141.056 43.6279 142.139C48.4976 146.178 53.3672 149.921 58.0381 153.467C62.709 157.013 67.1811 160.461 71.2557 163.81C75.3303 167.159 78.908 170.607 81.9887 173.857C85.0695 177.206 87.554 180.457 89.5416 183.412C90.0386 184.2 90.4361 184.89 90.933 185.678C91.3305 186.367 91.728 187.155 92.1255 187.845C92.3243 188.14 92.5231 188.534 92.6224 188.83C92.8212 189.125 92.9206 189.519 93.1193 189.815C93.4175 190.504 93.7156 191.095 94.0138 191.686C95.0076 194.05 95.7032 195.922 96.1008 197.301C96.2001 197.597 96.2995 197.892 96.3989 198.089C95.5045 200.355 94.8088 202.719 94.3119 205.181C93.2187 203.999 92.0262 202.817 90.6348 201.635C88.2497 199.468 85.3677 197.203 82.0881 195.134C78.8086 192.967 75.1315 190.898 71.2557 188.928C67.3798 186.86 63.2059 184.988 58.9325 182.92C54.6592 180.95 50.2864 178.98 45.9137 176.812C41.541 174.645 37.1682 172.478 33.0936 169.917C31.106 168.637 29.019 167.356 27.2302 165.879C26.2364 165.189 25.4414 164.5 24.5469 163.712C24.4476 163.613 24.3482 163.515 24.2488 163.416L23.9506 163.121L23.255 162.53L22.5593 161.939L22.2612 161.643L21.963 161.348C21.168 160.559 20.2736 159.673 19.4785 158.885C19.081 158.491 18.6835 157.998 18.286 157.604C17.8884 157.21 17.5903 156.718 17.1928 156.324C16.7953 155.93 16.4971 155.437 16.0996 155.043C15.8015 154.551 15.4039 154.157 15.1058 153.763C14.5095 152.876 13.8139 151.99 13.2176 151.005C12.025 149.232 10.9318 147.36 10.0374 145.489C9.0436 143.617 8.34794 141.745 7.65228 139.874C7.45352 139.381 7.35414 138.987 7.15538 138.495C7.056 138.002 6.85724 137.608 6.75786 137.116C6.65848 136.623 6.55909 136.229 6.36033 135.737C6.26095 135.244 6.16157 134.85 6.06219 134.358C5.86343 133.471 5.76405 132.486 5.56529 131.6C5.46591 130.713 5.36654 129.827 5.26716 128.94C5.16778 128.054 5.16777 127.167 5.16777 126.379C5.16777 125.985 5.16777 125.493 5.16777 125.099C5.16777 124.902 5.16777 124.704 5.16777 124.507C5.16777 124.31 5.16777 124.113 5.16777 123.916C5.26715 122.34 5.46591 120.764 5.66467 119.287C6.16158 116.43 6.85723 113.968 7.55289 111.899C8.24856 109.929 8.94423 108.353 9.44113 107.27C9.93803 106.186 10.2362 105.693 10.2362 105.693L10.1368 105.595C10.1368 105.595 10.0374 105.693 9.83864 105.89C9.63988 106.087 9.34175 106.481 8.94423 106.875C8.54671 107.368 8.0498 107.861 7.55289 108.649C7.25475 109.043 7.05601 109.338 6.75786 109.831C6.45972 110.225 6.16157 110.717 5.86343 111.21C4.67087 113.081 3.37893 115.544 2.28575 118.499C1.78885 119.976 1.29194 121.651 0.894417 123.325C0.496895 125.099 0.198752 126.97 0.0993712 128.94C0.0993712 129.433 0 129.925 0 130.418C0 130.91 0 131.403 0 131.994C0 132.979 -9.10002e-06 134.062 0.0993712 135.146C0.298132 137.313 0.596279 139.48 1.19256 141.745C1.29194 142.041 1.29194 142.336 1.39132 142.632C1.4907 142.927 1.59008 143.223 1.59008 143.42C1.78884 144.011 1.88822 144.504 2.08698 145.095C2.28574 145.686 2.4845 146.178 2.68327 146.769C2.88203 147.36 3.08078 147.853 3.37892 148.444C3.4783 148.739 3.57769 149.035 3.77645 149.232C3.87584 149.527 4.07459 149.823 4.17397 150.02C4.47211 150.611 4.67087 151.103 4.96902 151.694C5.5653 152.778 6.16157 153.861 6.85724 154.945C9.5405 159.18 12.8201 163.121 16.4971 166.667L16.7953 166.962L17.1928 167.356L17.8885 167.947L18.5841 168.538L18.8823 168.834L19.2798 169.129C20.2736 170.016 21.3668 170.902 22.3606 171.69C24.4476 173.266 26.6339 174.744 28.8203 176.123C33.193 178.881 37.7645 181.245 42.2366 183.412C46.7087 185.579 51.1809 187.648 55.3548 189.618C59.6282 191.588 63.6034 193.459 67.3799 195.429C71.1563 197.4 74.5352 199.271 77.5166 201.241C80.498 203.211 83.0819 205.181 85.2683 207.053C87.3553 208.924 89.1441 210.697 90.3367 212.273C90.6348 212.667 90.933 213.061 91.2311 213.357C91.5293 213.751 91.728 214.046 91.9268 214.342C92.1255 214.637 92.3243 214.933 92.5231 215.229C92.7218 215.524 92.8212 215.721 93.02 216.017C93.2187 216.312 93.3181 216.509 93.4175 216.706C93.6162 218.676 94.1132 220.646 94.6101 222.518C92.8212 221.533 91.0324 220.449 89.0447 219.464C86.0633 217.987 82.7838 216.608 79.3055 215.327C77.616 214.736 75.8272 214.145 74.0383 213.554C72.2495 213.061 70.4606 212.569 68.5724 212.076C64.8953 211.19 61.2183 210.402 57.5412 209.614C55.7523 209.22 53.8641 208.826 52.1747 208.432C50.3858 208.038 48.597 207.545 46.9075 207.151L46.3112 206.954L45.7149 206.757C45.3174 206.659 44.9199 206.56 44.5224 206.363C44.1249 206.265 43.628 206.068 43.2304 205.969L42.9323 205.871L42.6341 205.772L42.0379 205.575C41.2428 205.28 40.4478 204.984 39.6527 204.689C38.8577 204.295 38.162 203.999 37.367 203.605C34.485 202.128 31.8017 200.453 29.6153 198.483C27.429 196.513 25.5407 194.444 24.1494 192.179C22.7581 190.012 21.6649 187.746 20.9692 185.678C20.2736 183.609 19.7767 181.738 19.4785 180.162C19.3792 179.768 19.3792 179.374 19.2798 179.078C19.1804 178.684 19.1804 178.388 19.1804 178.093C19.081 177.502 19.081 176.911 18.9816 176.517C18.8822 175.63 18.8823 175.138 18.8823 175.138C18.8823 175.138 18.8823 175.236 18.7829 175.433C18.7829 175.63 18.6835 176.024 18.5841 176.418C18.3854 177.305 18.1866 178.586 18.0872 180.26C17.9878 181.048 17.9878 182.033 18.0872 183.018C18.0872 183.511 18.1866 184.102 18.1866 184.594C18.286 185.185 18.286 185.678 18.3854 186.269C18.6835 188.633 19.3792 191.292 20.5717 193.952C21.168 195.331 21.8637 196.71 22.8575 198.089C23.7519 199.468 24.7457 200.749 25.9383 202.128C28.3234 204.689 31.106 207.053 34.3856 209.023C35.9757 210.008 37.6651 210.894 39.454 211.682L40.1496 211.978L40.4478 212.175L40.8453 212.372C41.2428 212.569 41.6403 212.667 42.1372 212.864C42.5348 213.061 43.0317 213.16 43.5286 213.357L44.2242 213.653L44.9199 213.849C48.597 215.13 52.274 216.115 55.9511 217.1C57.74 217.593 59.5288 217.987 61.417 218.479C63.2059 218.972 64.9947 219.464 66.6842 219.957C69.1687 220.646 71.5538 221.434 73.8396 222.222C73.6408 222.419 73.5414 222.518 73.3427 222.715C72.9452 223.109 72.647 223.503 72.3489 224.094C72.0507 224.586 71.7526 225.177 71.4545 225.965C71.2557 226.655 71.1563 227.443 71.1563 228.329C71.2557 229.216 71.4544 230.102 71.852 230.891C72.2495 231.679 72.7464 232.467 73.3427 233.156C73.4421 233.255 73.442 233.353 73.5414 233.353L73.6408 233.452L73.7402 233.55L73.8396 233.649L74.0383 233.846L74.1377 233.944L74.2371 234.043L74.5352 234.338C74.6346 234.437 74.734 234.437 74.8334 234.535C75.0321 234.634 75.2309 234.831 75.3303 234.929C76.821 235.914 78.411 236.604 80.0011 237.195C81.5912 237.687 83.1813 238.081 84.7714 238.377C86.3615 238.672 87.9516 238.869 89.4423 239.066C90.933 239.263 92.4237 239.46 93.815 239.559C96.5977 239.854 99.1816 240.15 101.269 240.445C103.356 240.741 104.946 241.135 106.039 241.43C106.536 241.627 106.933 241.726 107.231 241.824C107.53 241.923 107.629 242.021 107.629 242.021L107.728 241.923C114.188 246.946 122.337 250 131.182 250C140.027 250 148.176 246.946 154.636 241.923L154.735 242.021C154.735 242.021 154.835 241.923 155.133 241.824C155.431 241.726 155.828 241.627 156.325 241.43C157.418 241.135 159.008 240.741 161.095 240.445C163.182 240.15 165.766 239.854 168.549 239.559C169.94 239.362 171.431 239.263 172.922 239.066C174.412 238.869 176.003 238.672 177.593 238.377C179.183 238.081 180.773 237.687 182.363 237.195C183.953 236.702 185.543 236.013 187.034 234.929C187.232 234.831 187.431 234.634 187.531 234.535C187.63 234.437 187.729 234.437 187.829 234.338L188.127 234.043L188.226 233.944L188.326 233.846L188.524 233.649L188.624 233.55L188.723 233.452L188.823 233.353C188.922 233.255 188.922 233.156 189.021 233.156C189.618 232.467 190.115 231.777 190.512 230.891C190.91 230.102 191.108 229.216 191.208 228.329C191.208 227.443 191.108 226.655 190.91 225.965C190.711 225.276 190.413 224.685 190.015 224.094C189.717 223.601 189.319 223.109 189.021 222.715C188.823 222.518 188.723 222.419 188.524 222.222C190.81 221.434 193.195 220.646 195.68 219.957C197.369 219.464 199.158 218.972 200.947 218.479C202.736 217.987 204.525 217.593 206.413 217.1C210.09 216.115 213.767 215.13 217.444 213.849L218.14 213.653L218.835 213.357C219.332 213.16 219.73 213.061 220.227 212.864C220.624 212.667 221.121 212.569 221.519 212.372L221.916 212.175L222.214 211.978L222.91 211.682C224.699 210.894 226.388 210.008 227.978 209.023C231.258 207.053 234.041 204.787 236.426 202.128C237.618 200.847 238.612 199.468 239.507 198.089C240.401 196.71 241.097 195.331 241.693 193.952C242.885 191.194 243.581 188.534 243.879 186.269C243.979 185.678 243.979 185.087 244.078 184.594C244.078 184.003 244.177 183.511 244.177 183.018C244.177 182.033 244.177 181.048 244.177 180.26C244.078 178.586 243.879 177.305 243.681 176.418C243.581 176.024 243.482 175.63 243.482 175.433C243.382 175.236 243.382 175.138 243.382 175.138C243.382 175.138 243.382 175.63 243.283 176.517C243.283 176.911 243.184 177.502 243.084 178.093C243.084 178.388 242.985 178.783 242.985 179.078C242.885 179.472 242.885 179.768 242.786 180.162C242.488 181.738 242.09 183.609 241.295 185.678C240.6 187.746 239.507 190.012 238.115 192.179C236.724 194.346 234.836 196.513 232.649 198.483C230.364 200.453 227.78 202.128 224.898 203.605C224.202 203.999 223.407 204.295 222.612 204.689C221.817 204.984 221.121 205.378 220.227 205.575L219.63 205.772L219.332 205.871L219.034 205.969C218.637 206.068 218.14 206.265 217.742 206.363C217.345 206.462 216.947 206.659 216.55 206.757L215.953 206.954L215.357 207.151C213.668 207.644 211.879 208.038 210.09 208.432C208.301 208.826 206.512 209.22 204.723 209.614C201.046 210.402 197.369 211.19 193.692 212.076C191.903 212.569 190.015 213.061 188.226 213.554C186.437 214.145 184.649 214.637 182.959 215.327C179.481 216.608 176.201 217.987 173.22 219.464C171.232 220.449 169.344 221.434 167.655 222.518C168.251 220.646 168.648 218.676 168.847 216.706C168.947 216.509 169.145 216.312 169.245 216.017C169.344 215.82 169.543 215.524 169.742 215.229C169.94 214.933 170.139 214.637 170.338 214.342C170.537 214.046 170.835 213.652 171.034 213.357C171.332 212.963 171.63 212.667 171.928 212.273C173.12 210.697 174.909 208.924 176.996 207.053C179.083 205.181 181.667 203.211 184.748 201.241C187.729 199.271 191.208 197.301 194.885 195.429C198.661 193.459 202.636 191.588 206.91 189.618C211.183 187.648 215.556 185.579 220.028 183.412C224.5 181.245 229.072 178.783 233.444 176.123C235.631 174.744 237.817 173.266 239.904 171.69C240.898 170.902 241.991 170.016 242.985 169.129L243.382 168.834L243.681 168.538L244.376 167.947L245.072 167.356L245.469 166.962L245.768 166.667C249.445 163.022 252.824 159.18 255.407 154.945C256.103 153.861 256.699 152.778 257.296 151.694C257.594 151.103 257.793 150.611 258.091 150.02C258.19 149.724 258.389 149.429 258.488 149.232C258.588 148.936 258.687 148.641 258.886 148.444C259.084 147.853 259.383 147.36 259.581 146.769C259.78 146.178 259.979 145.686 260.178 145.095C260.376 144.504 260.476 144.011 260.675 143.42C260.774 143.125 260.873 142.829 260.873 142.632C260.973 142.336 260.973 142.041 261.072 141.745C261.668 139.48 261.967 137.313 262.165 135.146C262.265 134.062 262.265 132.979 262.265 131.994C263.06 131.403 263.06 130.91 263.06 130.418ZM90.8336 231.974C89.3429 231.876 87.8522 231.876 86.4609 231.679C85.0695 231.58 83.6782 231.383 82.3863 231.186C81.0943 230.989 79.9018 230.595 78.908 230.102C78.8086 230.004 78.7092 230.004 78.5104 229.905L78.2123 229.708C78.2123 229.708 78.2123 229.708 78.1129 229.708L78.0135 229.61L77.8148 229.413L77.7154 229.314C77.616 229.314 77.616 229.216 77.5166 229.216C77.1191 228.92 76.7216 228.625 76.5228 228.329C76.2247 228.034 76.0259 227.738 75.9266 227.344C75.7278 226.95 75.7278 226.655 75.6284 226.162C75.529 225.374 75.7278 224.389 76.0259 223.601C76.1253 223.207 76.3241 222.912 76.4235 222.616C76.7216 222.715 77.0197 222.813 77.3179 222.912C78.1129 223.207 78.908 223.503 79.6036 223.798C80.0011 223.995 80.3987 224.094 80.7962 224.291C81.1937 224.488 81.5912 224.586 81.8894 224.783C82.2869 224.98 82.585 225.079 82.9825 225.276C83.3801 225.473 83.6782 225.571 84.0757 225.768C84.4733 225.965 84.7714 226.064 85.1689 226.261C85.5664 226.458 85.8646 226.556 86.1627 226.753C88.9454 228.132 91.4299 229.511 93.7156 230.891C94.3119 231.186 94.8088 231.58 95.4051 231.876C95.3057 231.876 95.2063 231.876 95.1069 231.876C93.815 232.073 92.3243 231.974 90.8336 231.974ZM112.3 235.52C111.902 235.126 111.505 234.831 111.008 234.338C110.61 233.944 110.113 233.55 109.616 233.058C104.449 227.64 101.269 220.351 101.269 212.273C101.269 195.528 114.983 181.935 131.878 181.935C148.772 181.935 162.487 195.528 162.487 212.273C162.487 220.351 159.307 227.64 154.139 233.058C153.642 233.55 153.145 233.944 152.748 234.338C152.251 234.831 151.853 235.225 151.555 235.52C146.288 239.953 139.431 242.612 131.977 242.612C124.424 242.612 117.666 239.953 112.3 235.52ZM177.493 226.95C177.791 226.753 178.189 226.655 178.487 226.458C178.885 226.261 179.183 226.162 179.58 225.965C179.978 225.768 180.276 225.67 180.673 225.473C181.071 225.276 181.369 225.177 181.767 224.98C182.164 224.783 182.462 224.685 182.86 224.488C183.257 224.291 183.655 224.192 184.052 223.995C184.847 223.7 185.642 223.404 186.338 223.109C186.636 223.01 186.934 222.912 187.233 222.813C187.332 223.109 187.531 223.503 187.63 223.798C187.928 224.586 188.127 225.473 188.028 226.359C188.028 226.753 187.928 227.147 187.729 227.541C187.63 227.935 187.332 228.231 187.133 228.526C186.835 228.822 186.537 229.117 186.139 229.413C186.139 229.413 186.04 229.511 185.941 229.511H186.04L185.841 229.708L185.742 229.807C185.742 229.807 185.742 229.807 185.642 229.807L185.344 230.004C185.245 230.102 185.146 230.102 184.947 230.201C183.953 230.693 182.76 230.989 181.468 231.284C180.176 231.481 178.785 231.678 177.394 231.777C176.003 231.875 174.512 231.974 173.021 232.072C171.53 232.171 170.04 232.171 168.648 232.27C168.549 232.27 168.45 232.27 168.35 232.27C168.847 231.974 169.443 231.58 170.04 231.284C172.226 229.708 174.81 228.231 177.493 226.95Z" fill="#505E69"/>
<g clip-path="url(#clip0_573_1457)">
<path d="M178.324 127.49L170.385 119.551L176.353 113.586C176.88 113.059 177.177 112.345 177.177 111.598C177.177 110.851 176.88 110.137 176.353 109.609L168.363 101.62C167.308 100.565 165.441 100.565 164.386 101.62L158.421 107.587L150.481 99.6474C148.285 97.4508 144.723 97.4508 142.526 99.6474C140.329 101.844 140.329 105.405 142.526 107.602L170.368 135.445C172.565 137.641 176.127 137.641 178.324 135.445C180.52 133.248 180.52 129.687 178.324 127.49Z" fill="#505E69"/>
<path d="M121.474 184.398L93.6318 156.555C91.4349 154.358 87.8737 154.358 85.6767 156.555C83.4802 158.752 83.4802 162.314 85.6767 164.51L93.6164 172.45L87.6605 178.403C87.133 178.931 86.8364 179.645 86.8364 180.392C86.8364 181.139 87.133 181.853 87.6605 182.38L95.6502 190.367C96.1994 190.917 96.9191 191.192 97.6387 191.192C98.3583 191.192 99.0779 190.917 99.6271 190.368L105.581 184.414L113.519 192.353C115.716 194.549 119.277 194.549 121.474 192.353C123.671 190.156 123.671 186.594 121.474 184.398Z" fill="#505E69"/>
<path d="M134.571 131.467L117.496 148.6L129.429 160.533L146.504 143.399L134.571 131.467Z" fill="#505E69"/>
<path d="M170.369 143.4L134.571 107.602C132.375 105.406 128.813 105.406 126.616 107.602C124.42 109.799 124.42 113.36 126.616 115.557L162.414 151.355C164.61 153.551 168.172 153.551 170.369 151.355C172.566 149.158 172.566 145.597 170.369 143.4Z" fill="#505E69"/>
<path d="M137.384 176.443L101.586 140.645C99.3897 138.449 95.8282 138.449 93.6316 140.645C91.4347 142.842 91.4347 146.404 93.6316 148.6L129.429 184.398C131.626 186.594 135.187 186.594 137.384 184.398C139.581 182.201 139.581 178.639 137.384 176.443Z" fill="#505E69"/>
</g>
<defs>
<clipPath id="clip0_573_1457">
<rect width="96" height="96" fill="white" transform="translate(84 98)"/>
</clipPath>
</defs>
</svg>
