<svg width="264" height="250" viewBox="0 0 264 250" fill="none" xmlns="http://www.w3.org/2000/svg">
<path opacity="0.05" fill-rule="evenodd" clip-rule="evenodd" d="M263.119 130.418C263.119 129.925 263.02 129.433 263.02 128.94C262.921 126.97 262.622 125.099 262.225 123.325C261.827 121.552 261.33 119.976 260.834 118.499C259.74 115.544 258.448 113.081 257.256 111.21C256.958 110.717 256.66 110.323 256.361 109.831C256.063 109.437 255.864 109.043 255.566 108.649C255.069 107.959 254.573 107.368 254.175 106.875C253.777 106.383 253.479 106.087 253.281 105.89C253.082 105.693 252.982 105.595 252.982 105.595L252.883 105.693C252.883 105.693 253.181 106.284 253.678 107.27C254.175 108.353 254.871 109.831 255.566 111.899C256.262 113.968 256.958 116.43 257.455 119.287C257.653 120.764 257.951 122.242 257.951 123.916C257.951 124.113 257.951 124.31 257.951 124.507C257.951 124.704 257.951 124.902 257.951 125.099C257.951 125.493 257.951 125.887 257.951 126.379C257.951 127.266 257.952 128.054 257.852 128.94C257.852 129.827 257.653 130.713 257.554 131.6C257.455 132.486 257.256 133.373 257.057 134.358C256.958 134.85 256.858 135.244 256.759 135.737C256.66 136.229 256.56 136.623 256.361 137.116C256.262 137.608 256.063 138.002 255.964 138.495C255.864 138.987 255.666 139.381 255.467 139.874C254.771 141.745 254.076 143.617 253.082 145.489C252.187 147.36 251.094 149.232 249.902 151.005C249.305 151.891 248.709 152.778 248.013 153.763C247.715 154.255 247.318 154.649 247.02 155.043C246.721 155.437 246.324 155.93 245.926 156.324C245.529 156.718 245.231 157.21 244.833 157.604C244.436 157.998 244.038 158.491 243.641 158.885C242.846 159.771 242.051 160.559 241.156 161.348L240.858 161.643L240.56 161.939L239.864 162.53L239.169 163.121L238.87 163.416C238.771 163.515 238.672 163.613 238.572 163.712C237.678 164.401 236.883 165.189 235.889 165.879C234.001 167.356 232.013 168.637 230.026 169.917C225.951 172.478 221.578 174.645 217.206 176.812C212.833 178.98 208.46 180.95 204.187 182.92C199.913 184.89 195.739 186.86 191.864 188.928C187.988 190.997 184.311 193.065 181.031 195.134C177.752 197.301 174.87 199.468 172.484 201.635C171.093 202.916 169.901 204.098 168.807 205.181C168.31 202.719 167.615 200.355 166.72 198.089C166.82 197.892 166.919 197.597 167.018 197.301C167.416 196.02 168.112 194.05 169.105 191.686C169.404 191.095 169.702 190.504 170 189.815C170.199 189.519 170.298 189.125 170.497 188.83C170.696 188.534 170.894 188.14 170.994 187.845C171.391 187.155 171.689 186.466 172.186 185.678C172.584 184.988 173.081 184.2 173.578 183.412C175.565 180.359 178.05 177.108 181.13 173.857C184.211 170.508 187.789 167.159 191.864 163.81C195.938 160.461 200.41 157.013 205.081 153.467C209.752 149.921 214.622 146.178 219.491 142.139C220.684 141.154 221.876 140.071 223.069 138.987C223.665 138.495 224.262 137.904 224.858 137.411C225.454 136.82 226.05 136.328 226.647 135.737C228.932 133.471 231.218 131.206 233.405 128.743C233.901 128.152 234.498 127.561 234.995 126.872L236.485 125L237.28 124.015C237.579 123.719 237.777 123.325 237.976 123.03L239.367 121.06C239.864 120.37 240.262 119.681 240.759 118.991C241.156 118.302 241.653 117.612 242.051 116.923C242.448 116.233 242.846 115.445 243.343 114.756L243.939 113.672L244.237 113.18L244.535 112.687C244.833 111.998 245.231 111.308 245.529 110.619L246.026 109.634L246.125 109.535L246.225 109.338V109.24L246.324 108.944L246.523 108.353C246.821 107.664 247.218 106.875 247.517 106.186C247.815 105.496 248.113 104.708 248.411 103.92L248.808 102.837C248.908 102.443 249.107 102.049 249.206 101.753C249.504 100.965 249.703 100.276 250.001 99.4878C250.2 98.6998 250.399 98.0103 250.597 97.2222C250.796 96.4342 250.995 95.7447 251.194 94.9567C251.293 94.5626 251.392 94.1687 251.392 93.7746L251.492 93.1836L251.591 92.5926C251.691 91.8046 251.79 91.0166 251.889 90.327C251.989 88.751 252.187 87.2734 252.187 85.6974C252.187 82.6438 251.889 79.6887 251.293 76.8322C250.697 73.9756 249.802 71.316 248.709 68.8534C247.616 66.3909 246.225 64.1253 244.833 62.0567C243.442 59.9882 241.852 58.2151 240.262 56.6391C239.864 56.2451 239.467 55.8511 239.069 55.457C238.672 55.063 238.274 54.7675 237.877 54.3735C237.678 54.1765 237.479 53.9795 237.28 53.881C237.082 53.684 236.883 53.5855 236.684 53.3885C236.287 53.093 235.889 52.699 235.492 52.4035C235.094 52.108 234.696 51.8124 234.299 51.5169C234.1 51.4184 233.901 51.2214 233.703 51.1229C233.504 51.0244 233.305 50.8274 233.106 50.7289C232.709 50.4334 232.311 50.2364 232.013 49.9409C231.616 49.7439 231.218 49.4484 230.92 49.2514C230.224 48.7589 229.429 48.4633 228.833 48.0693C228.137 47.6753 227.442 47.3798 226.845 47.0843C226.249 46.7888 225.653 46.4933 225.057 46.2963C224.46 46.0008 223.963 45.8038 223.467 45.6068C222.473 45.2128 221.578 44.9173 220.883 44.7202C220.187 44.5232 219.591 44.3262 219.293 44.2277C218.895 44.1292 218.696 44.0307 218.696 44.0307C218.696 44.0307 218.895 44.1292 219.193 44.3262C219.491 44.5232 220.088 44.7202 220.684 45.1143C221.976 45.8038 223.864 46.8873 226.05 48.4634C226.647 48.8574 227.243 49.2514 227.74 49.7439C228.336 50.2364 228.932 50.6304 229.529 51.2214C229.827 51.5169 230.125 51.7139 230.523 52.0094C230.821 52.305 231.119 52.6005 231.516 52.896C231.715 52.9945 231.814 53.1915 232.013 53.29C232.212 53.487 232.311 53.5855 232.51 53.7825C232.808 54.078 233.106 54.3735 233.504 54.7675C234.796 56.1466 236.088 57.5256 237.28 59.2002C237.579 59.5942 237.877 59.9882 238.175 60.4807C238.473 60.8747 238.771 61.3672 239.069 61.7612C239.367 62.2538 239.665 62.6478 239.964 63.1403C240.262 63.6328 240.461 64.1253 240.759 64.6178C241.752 66.5879 242.746 68.6564 243.442 70.922C244.138 73.1876 244.635 75.5516 244.933 78.0142C245.231 80.4768 245.231 83.0378 245.032 85.5989C245.032 86.8794 244.833 88.16 244.635 89.539C244.436 90.8195 244.237 92.1986 243.939 93.4791C243.74 94.8582 243.343 96.1387 242.945 97.5177C242.746 98.2073 242.548 98.8968 242.349 99.4878C242.249 99.7833 242.15 100.177 242.051 100.473L241.653 101.458C241.355 102.147 241.156 102.837 240.858 103.428C240.56 104.117 240.262 104.708 239.964 105.398L239.765 105.89L239.665 106.186V106.284L239.566 106.383L239.069 107.368C238.672 108.058 238.374 108.747 237.976 109.437L237.678 109.929L237.38 110.422L236.883 111.308C236.485 111.899 236.187 112.589 235.79 113.18C235.392 113.771 234.995 114.46 234.597 115.051C234.2 115.642 233.802 116.332 233.305 116.923L232.013 118.696C231.814 118.991 231.616 119.287 231.318 119.582L230.622 120.469L229.231 122.242C228.734 122.833 228.237 123.424 227.74 123.916C225.752 126.182 223.665 128.349 221.479 130.418C220.883 130.91 220.386 131.403 219.789 131.994C219.193 132.486 218.696 133.077 218.1 133.57C216.907 134.555 215.814 135.54 214.622 136.525C209.951 140.465 205.181 144.11 200.51 147.656C195.839 151.202 191.267 154.748 186.994 158.195C182.721 161.742 178.944 165.288 175.565 168.932C172.286 172.577 169.503 176.123 167.317 179.571C166.82 180.457 166.323 181.245 165.826 182.033C165.329 182.821 164.931 183.708 164.534 184.397C164.335 184.791 164.136 185.185 163.938 185.481C163.739 185.875 163.54 186.269 163.441 186.564C163.143 187.254 162.745 187.943 162.447 188.633C162.348 188.928 162.149 189.322 162.049 189.618C160.36 187.352 158.372 185.284 156.285 183.511C156.285 183.412 156.285 183.412 156.285 183.314C156.087 181.935 155.789 179.866 155.987 177.305C156.087 174.744 156.683 171.592 157.975 168.144C159.267 164.697 161.254 160.757 163.739 156.619C165.031 154.551 166.422 152.384 167.913 150.217C169.404 148.05 170.994 145.784 172.683 143.42C174.373 141.154 176.062 138.692 177.95 136.328C179.739 133.865 181.627 131.403 183.516 128.94C187.292 123.916 191.168 118.597 194.944 113.081C195.839 111.702 196.833 110.323 197.727 108.846C198.621 107.368 199.516 105.989 200.41 104.511C201.305 103.034 202.1 101.556 202.994 100.079C203.392 99.3893 203.789 98.6012 204.187 97.8132L205.379 95.5477C208.559 89.4405 211.243 82.9393 212.932 76.2411C213.33 74.5666 213.727 72.892 214.025 71.2175C214.324 69.5429 214.622 67.8684 214.82 66.1939C214.92 65.3073 215.019 64.5193 215.019 63.7313C215.019 63.3373 215.119 62.9433 215.119 62.4507C215.119 62.0567 215.218 61.6627 215.218 61.1702C215.317 59.4957 215.317 57.8211 215.417 56.1466C215.417 54.5705 215.317 52.9945 215.317 51.5169V51.4185V51.2214V51.1229V50.8274V50.2364C215.317 49.8424 215.218 49.4484 215.218 49.0544C215.119 48.2663 215.019 47.3798 214.92 46.5918C214.423 43.3412 213.528 40.2876 212.336 37.431C211.143 34.5745 209.553 31.9149 207.864 29.6493C206.075 27.2853 204.187 25.3152 202.1 23.5422C198.025 19.9961 193.652 17.7305 189.578 16.3515C188.584 15.9575 187.59 15.662 186.596 15.4649C185.603 15.2679 184.708 14.9724 183.814 14.8739C182.025 14.4799 180.335 14.3814 178.845 14.2829C178.05 14.2829 177.354 14.1844 176.658 14.2829C175.963 14.2829 175.366 14.2829 174.77 14.3814C174.174 14.4799 173.677 14.4799 173.18 14.4799C172.683 14.5784 172.286 14.5784 171.888 14.6769C171.689 14.6769 171.491 14.7754 171.292 14.7754C171.093 14.7754 170.994 14.8739 170.795 14.8739C170.497 14.9724 170.298 14.9724 170 15.0709C169.602 15.1694 169.404 15.1694 169.404 15.1694C169.404 15.1694 169.602 15.1694 170 15.1694C170.199 15.1694 170.497 15.1694 170.795 15.1694C170.994 15.1694 171.093 15.1694 171.292 15.1694C171.491 15.1694 171.689 15.1694 171.888 15.1694C173.478 15.2679 175.764 15.4649 178.547 16.0559C178.944 16.1544 179.242 16.253 179.64 16.3515C180.037 16.45 180.435 16.5485 180.733 16.647C181.528 16.844 182.323 17.1395 183.118 17.435C184.708 18.026 186.497 18.7155 188.186 19.602C189.975 20.4886 191.764 21.5721 193.553 22.7541C193.951 23.0497 194.447 23.4437 194.845 23.7392C195.242 24.0347 195.739 24.4287 196.137 24.8227C197.031 25.5122 197.826 26.3002 198.721 27.1868C202 30.5359 204.982 34.7715 206.87 39.6966C207.764 42.1592 208.46 44.8187 208.858 47.5768C208.957 48.2663 208.957 48.9559 209.056 49.6454C209.056 50.0394 209.056 50.3349 209.056 50.7289V51.2214L208.957 51.5169H208.858L208.957 51.6154C208.957 53.1915 208.957 54.669 208.957 56.2451C208.858 57.7226 208.758 59.2002 208.659 60.7762C208.659 61.1702 208.559 61.5642 208.559 61.9582C208.46 62.3522 208.46 62.7463 208.46 63.1403C208.361 63.9283 208.261 64.7163 208.162 65.4058C207.963 66.9819 207.566 68.4594 207.268 69.937C206.87 71.4145 206.472 72.9906 206.075 74.4681C204.286 80.4768 201.802 86.4854 198.721 92.1986C195.64 97.9118 192.062 103.428 188.286 108.747C184.509 114.066 180.733 119.287 176.956 124.212C175.963 125.493 175.068 126.675 174.174 127.955C173.279 129.236 172.286 130.418 171.391 131.6C169.602 134.062 167.814 136.426 166.124 138.79C164.435 141.154 162.745 143.519 161.254 145.784C159.764 148.05 158.273 150.315 156.882 152.581C154.198 157.013 152.012 161.348 150.521 165.583C149.031 169.72 148.434 173.759 148.335 177.009C148.335 177.502 148.335 177.896 148.335 178.389C144.36 176.418 140.186 175.236 135.515 174.744C135.515 174.251 135.515 173.66 135.614 173.069C135.614 172.478 135.614 171.789 135.714 171.198C135.714 170.508 135.813 169.819 135.813 169.129C135.813 168.932 135.813 168.735 135.813 168.538C135.813 168.341 135.813 168.144 135.912 167.947C135.912 167.553 136.012 167.159 136.012 166.765C136.111 165.189 136.409 163.515 136.608 161.742C137.204 158.097 138.099 154.058 139.391 149.724C140.683 145.39 142.372 140.662 144.36 135.737C146.347 130.812 148.633 125.69 151.018 120.272C153.403 114.953 155.987 109.338 158.372 103.625C160.857 97.9118 163.143 91.9031 165.23 85.8944C167.317 79.7872 169.105 73.5816 170.397 67.3759C170.596 66.5879 170.696 65.7998 170.894 65.0118C171.093 64.2238 171.192 63.4358 171.292 62.6478C171.391 61.8597 171.59 61.0717 171.689 60.2837C171.789 59.4957 171.888 58.8061 171.987 58.0181C172.087 57.2301 172.186 56.4421 172.286 55.7526C172.385 54.9645 172.484 54.1765 172.484 53.3885C172.584 51.8125 172.683 50.2364 172.683 48.6604C172.683 45.5083 172.484 42.4547 172.087 39.4996C171.689 36.5445 170.994 33.6879 170.199 30.9299C169.404 28.1718 168.41 25.6107 167.217 23.1481C166.025 20.7841 164.733 18.5185 163.341 16.45C162.944 15.9575 162.646 15.4649 162.248 14.9724C161.851 14.4799 161.553 13.9874 161.155 13.5934C160.36 12.7068 159.664 11.8203 158.869 11.0323C158.472 10.6383 158.074 10.2443 157.677 9.85028C157.279 9.45627 156.882 9.06225 156.484 8.76674C155.689 8.07722 154.894 7.3877 154.099 6.79668C153.304 6.20567 152.509 5.71317 151.714 5.12216C151.316 4.82665 150.919 4.62963 150.521 4.43262C150.124 4.23562 149.726 3.9401 149.329 3.74309C148.931 3.54609 148.534 3.34911 148.236 3.1521C147.838 2.95509 147.441 2.85659 147.142 2.65959C146.745 2.46258 146.447 2.36408 146.049 2.16707C145.652 2.06857 145.354 1.87154 145.055 1.77304C142.372 0.78801 140.186 0.394023 138.695 0.197018C137.999 0.0985148 137.403 0.0985028 137.006 0C136.608 0 136.409 0 136.409 0C136.409 0 136.608 0.0985148 137.006 0.197018C137.204 0.29552 137.403 0.295502 137.701 0.394005C137.999 0.492508 138.298 0.591029 138.596 0.689531C139.291 0.98504 140.186 1.18205 141.08 1.67456C141.279 1.77306 141.577 1.87155 141.875 1.97006C142.173 2.06856 142.372 2.26556 142.67 2.36406C142.968 2.46256 143.267 2.65956 143.465 2.75807C143.764 2.85657 144.062 3.05357 144.36 3.25058C146.745 4.53112 149.428 6.40269 152.012 9.06227C152.708 9.65328 153.304 10.4413 154 11.1308C154.298 11.5248 154.596 11.9188 154.993 12.3128C155.292 12.7069 155.59 13.1009 155.888 13.4949C157.08 15.1694 158.273 16.9425 159.366 18.9125C160.459 20.8826 161.453 23.0497 162.248 25.3152C163.043 27.5808 163.739 29.9448 164.335 32.5059C165.428 37.5296 165.826 42.9472 165.528 48.4634C165.428 49.8424 165.329 51.2214 165.13 52.699C165.031 53.3885 164.932 54.078 164.832 54.7675C164.733 55.4571 164.633 56.2451 164.435 56.9346C164.335 57.7226 164.136 58.4121 164.037 59.2002C163.838 59.8897 163.739 60.6777 163.54 61.3672C163.341 62.0567 163.242 62.8448 163.043 63.5343C162.844 64.2238 162.646 65.0118 162.546 65.7014C161.056 71.513 159.267 77.4232 157.18 83.2348C155.093 89.0465 152.708 94.7597 150.223 100.374C147.739 105.989 145.155 111.505 142.77 116.923C140.385 122.34 137.999 127.561 136.012 132.683C134.223 137.214 132.633 141.647 131.44 145.883C130.248 141.647 128.658 137.214 126.869 132.683C124.881 127.561 122.496 122.242 120.111 116.923C117.726 111.505 115.142 105.989 112.657 100.374C110.173 94.7597 107.788 89.0465 105.701 83.2348C103.514 77.4232 101.726 71.6115 100.334 65.7014C100.136 65.0118 99.9368 64.2238 99.8374 63.5343C99.6386 62.8448 99.5393 62.0567 99.3405 61.3672C99.1417 60.6777 99.0424 59.8897 98.8436 59.2002C98.7442 58.4121 98.5454 57.7226 98.4461 56.9346C98.3467 56.2451 98.1479 55.4571 98.0485 54.7675C97.9492 54.078 97.8498 53.3885 97.7504 52.699C97.5517 51.3199 97.4523 49.9409 97.3529 48.4634C97.0548 42.9472 97.4523 37.431 98.5454 32.5059C99.0424 30.0433 99.738 27.5808 100.632 25.3152C101.427 23.0497 102.421 20.9811 103.514 18.9125C104.608 16.9425 105.8 15.1694 106.993 13.4949C107.291 13.1009 107.589 12.7069 107.887 12.3128C108.185 11.9188 108.483 11.5248 108.881 11.1308C109.577 10.4413 110.173 9.65328 110.869 9.06227C113.452 6.40269 116.235 4.62962 118.521 3.25058C118.819 3.05357 119.117 2.95507 119.415 2.75807C119.713 2.65956 120.012 2.46256 120.21 2.36406C120.509 2.26556 120.707 2.06856 121.005 1.97006C121.304 1.87155 121.502 1.77306 121.8 1.67456C122.794 1.28055 123.589 0.98504 124.285 0.689531C124.583 0.591029 124.981 0.492508 125.179 0.394005C125.478 0.295502 125.676 0.29552 125.875 0.197018C126.273 0.0985148 126.471 0 126.471 0C126.471 0 126.273 0 125.875 0C125.478 0 124.881 0.0985148 124.186 0.197018C122.695 0.394023 120.508 0.78801 117.825 1.77304C117.527 1.87154 117.13 2.06857 116.831 2.16707C116.533 2.26558 116.136 2.46258 115.738 2.65959C115.341 2.85659 115.043 2.95509 114.645 3.1521C114.248 3.34911 113.949 3.54609 113.552 3.74309C113.154 3.9401 112.757 4.13712 112.359 4.43262C111.962 4.62963 111.564 4.92515 111.167 5.12216C110.372 5.61467 109.577 6.10717 108.782 6.79668C107.987 7.3877 107.192 8.07722 106.396 8.76674C105.999 9.16075 105.601 9.45627 105.204 9.85028C104.806 10.2443 104.409 10.6383 104.011 11.0323C103.216 11.8203 102.521 12.7068 101.726 13.5934C101.328 14.0859 101.03 14.5784 100.632 14.9724C100.235 15.4649 99.9368 15.9575 99.5393 16.45C98.1479 18.5185 96.856 20.7841 95.6634 23.1481C94.4709 25.6107 93.5764 28.1718 92.682 30.9299C91.887 33.6879 91.1913 36.5445 90.7938 39.4996C90.3963 42.4547 90.1975 45.5083 90.1975 48.6604C90.1975 50.2364 90.2969 51.8125 90.3963 53.3885C90.4957 54.1765 90.595 54.9645 90.595 55.7526C90.6944 56.5406 90.7938 57.3286 90.8932 58.0181C90.9926 58.8061 91.0919 59.4957 91.1913 60.2837C91.2907 61.0717 91.4894 61.8597 91.5888 62.6478C91.6882 63.4358 91.887 64.2238 91.9863 65.0118C92.1851 65.7998 92.2845 66.5879 92.4832 67.3759C93.7752 73.5816 95.564 79.7872 97.651 85.8944C99.738 92.0016 102.123 97.9118 104.508 103.625C106.893 109.437 109.477 114.953 111.862 120.272C114.248 125.591 116.533 130.812 118.521 135.737C120.508 140.662 122.198 145.39 123.49 149.724C124.782 154.058 125.676 158.097 126.273 161.742C126.571 163.515 126.769 165.189 126.869 166.765C126.869 167.159 126.968 167.553 126.968 167.947C126.968 168.144 126.968 168.341 127.068 168.538C127.068 168.735 127.068 168.932 127.068 169.129C127.068 169.819 127.167 170.508 127.167 171.198C127.167 171.789 127.266 172.478 127.266 173.069C127.266 173.66 127.266 174.251 127.266 174.744C122.695 175.236 118.322 176.418 114.446 178.389C114.446 177.994 114.446 177.502 114.446 177.009C114.347 173.759 113.751 169.72 112.26 165.583C110.769 161.348 108.583 157.013 105.9 152.581C104.608 150.315 103.117 148.05 101.527 145.784C99.9368 143.519 98.3467 141.154 96.6572 138.79C94.9678 136.426 93.1789 134.062 91.3901 131.6C90.4957 130.418 89.6012 129.137 88.6074 127.955C87.713 126.773 86.7192 125.493 85.8248 124.212C82.0483 119.287 78.1725 114.066 74.4954 108.747C70.8184 103.428 67.1413 97.9118 64.0605 92.1986C60.9797 86.4854 58.3958 80.5753 56.7063 74.4681C56.3088 72.9906 55.9113 71.4145 55.5138 69.937C55.2156 68.3609 54.9175 66.8834 54.6194 65.4058C54.52 64.6178 54.4206 63.8298 54.3212 63.1403C54.3212 62.7463 54.2218 62.3522 54.2218 61.9582C54.2218 61.5642 54.1225 61.1702 54.1225 60.7762C54.0231 59.2987 53.9237 57.8211 53.8243 56.2451C53.8243 54.669 53.6255 53.093 53.6255 51.6154L53.5262 51.5169H53.6255L53.7249 51.2214L53.8243 50.7289C53.8243 50.3349 53.8243 50.0394 53.9237 49.6454C54.0231 48.9559 54.0231 48.2663 54.1225 47.5768C54.4206 44.8187 55.1163 42.1592 56.1101 39.6966C57.9983 34.7715 60.8803 30.5359 64.2592 27.1868C65.0543 26.3002 65.9487 25.6107 66.8431 24.8227C67.2407 24.4287 67.7375 24.1332 68.1351 23.7392C68.5326 23.4437 69.0295 23.0497 69.427 22.7541C71.2159 21.4736 73.0047 20.4886 74.7936 19.602C76.5824 18.7155 78.2719 18.026 79.862 17.435C80.657 17.1395 81.452 16.9425 82.2471 16.647C82.6446 16.5485 83.0421 16.45 83.3403 16.3515C83.7378 16.253 84.0359 16.1544 84.4335 16.0559C87.2161 15.4649 89.6012 15.1694 91.0919 15.1694C91.2907 15.1694 91.4894 15.1694 91.6882 15.1694C91.887 15.1694 91.9864 15.1694 92.1851 15.1694C92.4833 15.1694 92.7814 15.1694 92.9801 15.1694C93.3777 15.1694 93.5764 15.1694 93.5764 15.1694C93.5764 15.1694 93.3777 15.1694 92.9801 15.0709C92.7814 15.0709 92.4833 14.9724 92.1851 14.8739C91.9864 14.8739 91.887 14.7754 91.6882 14.7754C91.4894 14.7754 91.2907 14.6769 91.0919 14.6769C90.6944 14.5784 90.2969 14.5784 89.8 14.4799C89.3031 14.4799 88.8062 14.3814 88.2099 14.3814C87.6136 14.2829 87.0173 14.2829 86.3217 14.2829C85.626 14.2829 84.9303 14.2829 84.1353 14.2829C82.6446 14.3814 80.9551 14.4799 79.1663 14.8739C78.2719 15.0709 77.2781 15.2679 76.3837 15.4649C75.3898 15.7605 74.396 16.056 73.4022 16.3515C69.3277 17.7305 64.9549 20.0946 60.8803 23.5422C58.7933 25.3152 56.9051 27.2853 55.1163 29.6493C53.3274 32.0134 51.8367 34.5745 50.6441 37.431C49.4516 40.2876 48.5572 43.4397 48.0603 46.5918C47.9609 47.3798 47.8615 48.1678 47.7621 49.0544C47.7621 49.4484 47.6627 49.8424 47.6627 50.2364V50.8274V51.1229V51.2214V51.4185V51.5169C47.6627 53.093 47.5634 54.5705 47.5634 56.1466C47.5634 57.8211 47.6627 59.4957 47.7621 61.1702C47.7621 61.5642 47.8615 61.9582 47.8615 62.4507C47.8615 62.8448 47.9609 63.2388 47.9609 63.7313C48.0603 64.5193 48.1596 65.4058 48.1596 66.1939C48.3584 67.8684 48.6565 69.5429 48.9547 71.2175C49.3522 72.892 49.6503 74.5666 50.0479 76.2411C51.7373 82.9393 54.4206 89.4405 57.6008 95.5477L58.7933 97.8132C59.1908 98.6012 59.5884 99.3893 59.9859 100.079C60.8803 101.556 61.6754 103.034 62.5698 104.511C63.4642 105.989 64.3586 107.368 65.253 108.846C66.1475 110.225 67.1413 111.604 68.0357 113.081C71.8122 118.597 75.688 123.916 79.4644 128.94C81.3527 131.403 83.2409 133.964 85.0297 136.328C86.8186 138.692 88.6074 141.154 90.2969 143.42C91.9864 145.686 93.5764 147.951 95.0671 150.217C96.5578 152.384 97.9492 154.551 99.2411 156.619C101.825 160.757 103.713 164.697 105.005 168.144C106.297 171.592 106.794 174.744 106.993 177.305C107.092 179.866 106.893 181.935 106.695 183.314C106.695 183.412 106.695 183.511 106.695 183.511C104.508 185.284 102.62 187.352 100.931 189.618C100.831 189.322 100.632 189.027 100.533 188.633C100.235 187.943 99.9368 187.254 99.5393 186.564C99.3405 186.17 99.2411 185.776 99.0424 185.481C98.8436 185.087 98.6448 184.693 98.4461 184.397C98.0485 183.609 97.651 182.821 97.1541 182.033C96.6572 181.245 96.1603 180.359 95.6634 179.571C93.4771 176.221 90.6944 172.577 87.4149 168.932C84.1353 165.288 80.2595 161.742 75.9861 158.195C71.8122 154.649 67.1413 151.202 62.4704 147.656C57.7995 144.11 53.0293 140.465 48.3584 136.525C47.1658 135.54 46.0726 134.555 44.8801 133.57C44.2838 133.077 43.7869 132.585 43.1906 131.994C42.5943 131.501 42.0974 131.009 41.5012 130.418C39.3148 128.349 37.2278 126.182 35.2402 123.916C34.7433 123.325 34.2464 122.833 33.7495 122.242L32.3582 120.469L31.6625 119.582C31.4638 119.287 31.265 118.991 30.9668 118.696L29.6749 116.923C29.178 116.332 28.8799 115.642 28.383 115.051C27.9854 114.46 27.5879 113.771 27.1904 113.18C26.7929 112.589 26.4947 111.899 26.0972 111.308L25.6003 110.422L25.3022 109.929L25.004 109.437C24.6065 108.747 24.3084 108.058 24.0102 107.368L23.5133 106.383V106.284V106.186L23.4139 105.89L23.2152 105.398C22.917 104.708 22.6189 104.117 22.3208 103.428C22.0226 102.738 21.8238 102.049 21.5257 101.458L21.1282 100.473C21.0288 100.177 20.9294 99.7833 20.83 99.4878C20.6313 98.7983 20.4325 98.1087 20.2338 97.5177C19.9356 96.1387 19.5381 94.8582 19.24 93.4791C18.9418 92.1986 18.7431 90.8195 18.5443 89.539C18.4449 88.2585 18.2462 86.8794 18.1468 85.5989C17.948 83.0378 17.948 80.4768 18.2462 78.0142C18.5443 75.5516 19.0412 73.1876 19.7369 70.922C20.4325 68.6564 21.327 66.5879 22.4201 64.6178C22.7183 64.1253 22.917 63.6328 23.2152 63.1403C23.5133 62.6478 23.8115 62.2538 24.1096 61.7612C24.4077 61.2687 24.7059 60.8747 25.004 60.4807C25.3022 60.0867 25.6003 59.5942 25.8985 59.2002C27.091 57.5256 28.4823 56.1466 29.6749 54.7675C29.973 54.472 30.3706 54.078 30.6687 53.7825C30.8675 53.5855 30.9668 53.487 31.1656 53.29C31.3644 53.093 31.4638 52.9945 31.6625 52.896C31.9607 52.6005 32.2588 52.305 32.6563 52.0094C32.9545 51.7139 33.2526 51.5169 33.6501 51.2214C34.2464 50.7289 34.8427 50.2364 35.4389 49.7439C36.0352 49.2514 36.6315 48.8574 37.1284 48.4634C39.3148 46.8873 41.203 45.8038 42.495 45.1143C43.0912 44.7202 43.6875 44.5232 43.9857 44.3262C44.2838 44.1292 44.4826 44.0307 44.4826 44.0307C44.4826 44.0307 44.2838 44.1292 43.8863 44.2277C43.4888 44.3262 42.9919 44.5232 42.2962 44.7202C41.6005 44.9173 40.7061 45.2128 39.7123 45.6068C39.2154 45.8038 38.6191 46.0008 38.1222 46.2963C37.526 46.5918 36.9297 46.7888 36.3334 47.0843C35.7371 47.3798 35.0414 47.6753 34.3458 48.0693C33.6501 48.4633 32.9544 48.8574 32.2588 49.2514C31.8613 49.4484 31.5631 49.7439 31.1656 49.9409C30.7681 50.1379 30.4699 50.4334 30.0724 50.7289C29.8737 50.8274 29.6749 51.0244 29.4761 51.1229C29.2774 51.2214 29.0786 51.4184 28.8799 51.5169C28.4823 51.8124 28.0848 52.108 27.6873 52.4035C27.2898 52.699 26.8922 52.9945 26.4947 53.3885C26.296 53.5855 26.0972 53.684 25.8985 53.881C25.6997 54.078 25.5009 54.275 25.3022 54.3735C24.9046 54.7675 24.5071 55.063 24.1096 55.457C23.7121 55.8511 23.3146 56.2451 22.917 56.6391C21.327 58.2151 19.7369 59.9882 18.3455 62.0567C16.9542 64.1253 15.5629 66.3909 14.4697 68.8534C13.3765 71.316 12.4821 74.0741 11.8858 76.8322C11.1902 79.6887 10.892 82.6438 10.9914 85.6974C10.9914 87.1749 11.0908 88.751 11.2895 90.327C11.3889 91.1151 11.4883 91.9031 11.5877 92.5926L11.6871 93.1836L11.7864 93.7746C11.8858 94.1687 11.9852 94.5626 11.9852 94.9567C12.184 95.7447 12.2833 96.5327 12.5815 97.2222C12.7802 98.0103 12.979 98.6998 13.1778 99.4878C13.4759 100.276 13.6747 100.965 13.9728 101.753C14.0722 102.147 14.1716 102.541 14.3703 102.837L14.7679 103.92C15.066 104.61 15.3641 105.398 15.6623 106.186C15.9604 106.875 16.3579 107.664 16.6561 108.353L16.8548 108.944L16.9542 109.24V109.338L17.0536 109.535L17.153 109.634L17.6499 110.619C17.948 111.308 18.3455 111.998 18.6437 112.687L18.9418 113.18L19.24 113.672L19.8362 114.756C20.2338 115.445 20.6313 116.233 21.1282 116.923C21.5257 117.612 22.0226 118.302 22.4201 118.991C22.917 119.681 23.3146 120.37 23.8115 121.06L25.2028 123.03C25.4016 123.325 25.6997 123.719 25.8985 124.015L26.6935 125L28.1842 126.872C28.6811 127.463 29.2774 128.054 29.7743 128.743C31.8613 131.206 34.147 133.471 36.5321 135.737C37.1284 136.328 37.7247 136.82 38.321 137.411C38.9173 137.904 39.5136 138.495 40.1098 138.987C41.3024 140.071 42.495 141.056 43.6875 142.139C48.5572 146.178 53.4268 149.921 58.0977 153.467C62.7686 157.013 67.2407 160.461 71.3152 163.81C75.3898 167.159 78.9675 170.607 82.0483 173.857C85.1291 177.206 87.6136 180.457 89.6012 183.412C90.0981 184.2 90.4956 184.89 90.9925 185.678C91.3901 186.367 91.7876 187.155 92.1851 187.845C92.3839 188.14 92.5826 188.534 92.682 188.83C92.8808 189.125 92.9802 189.519 93.1789 189.815C93.4771 190.504 93.7752 191.095 94.0733 191.686C95.0671 194.05 95.7628 195.922 96.1603 197.301C96.2597 197.597 96.3591 197.892 96.4585 198.089C95.564 200.355 94.8684 202.719 94.3715 205.181C93.2783 203.999 92.0857 202.817 90.6944 201.635C88.3093 199.468 85.4272 197.203 82.1477 195.134C78.8681 192.967 75.1911 190.898 71.3152 188.928C67.4394 186.86 63.2654 184.988 58.9921 182.92C54.7187 180.95 50.346 178.98 45.9733 176.812C41.6005 174.645 37.2278 172.478 33.1532 169.917C31.1656 168.637 29.0786 167.356 27.2898 165.879C26.296 165.189 25.5009 164.5 24.6065 163.712C24.5071 163.613 24.4077 163.515 24.3084 163.416L24.0102 163.121L23.3146 162.53L22.6189 161.939L22.3208 161.643L22.0226 161.348C21.2276 160.559 20.3331 159.673 19.5381 158.885C19.1406 158.491 18.7431 157.998 18.3455 157.604C17.948 157.21 17.6499 156.718 17.2524 156.324C16.8548 155.93 16.5567 155.437 16.1592 155.043C15.861 154.551 15.4635 154.157 15.1654 153.763C14.5691 152.876 13.8734 151.99 13.2772 151.005C12.0846 149.232 10.9914 147.36 10.097 145.489C9.10317 143.617 8.40751 141.745 7.71185 139.874C7.51309 139.381 7.41371 138.987 7.21495 138.495C7.11557 138.002 6.91681 137.608 6.81743 137.116C6.71805 136.623 6.61866 136.229 6.4199 135.737C6.32052 135.244 6.22114 134.85 6.12176 134.358C5.923 133.471 5.82362 132.486 5.62486 131.6C5.52548 130.713 5.42611 129.827 5.32673 128.94C5.22735 128.054 5.22734 127.167 5.22734 126.379C5.22734 125.985 5.22734 125.493 5.22734 125.099C5.22734 124.902 5.22734 124.704 5.22734 124.507C5.22734 124.31 5.22734 124.113 5.22734 123.916C5.32672 122.34 5.52548 120.764 5.72425 119.287C6.22115 116.43 6.9168 113.968 7.61246 111.899C8.30813 109.929 9.0038 108.353 9.5007 107.27C9.9976 106.186 10.2957 105.693 10.2957 105.693L10.1964 105.595C10.1964 105.595 10.097 105.693 9.89821 105.89C9.69945 106.087 9.40132 106.481 9.0038 106.875C8.60628 107.368 8.10937 107.861 7.61246 108.649C7.31432 109.043 7.11558 109.338 6.81743 109.831C6.51929 110.225 6.22114 110.717 5.923 111.21C4.73044 113.081 3.4385 115.544 2.34532 118.499C1.84842 119.976 1.35151 121.651 0.953987 123.325C0.556466 125.099 0.258322 126.97 0.158942 128.94C0.158942 129.433 0.0595703 129.925 0.0595703 130.418C0.0595703 130.91 0.0595703 131.403 0.0595703 131.994C0.0595703 132.979 0.0595612 134.062 0.158942 135.146C0.357702 137.313 0.655849 139.48 1.25213 141.745C1.35151 142.041 1.35151 142.336 1.45089 142.632C1.55027 142.927 1.64965 143.223 1.64965 143.42C1.84841 144.011 1.94779 144.504 2.14655 145.095C2.34531 145.686 2.54408 146.178 2.74284 146.769C2.9416 147.36 3.14035 147.853 3.43849 148.444C3.53787 148.739 3.63726 149.035 3.83602 149.232C3.93541 149.527 4.13416 149.823 4.23354 150.02C4.53168 150.611 4.73044 151.103 5.02859 151.694C5.62487 152.778 6.22114 153.861 6.91681 154.945C9.60007 159.18 12.8796 163.121 16.5567 166.667L16.8548 166.962L17.2524 167.356L17.948 167.947L18.6437 168.538L18.9418 168.834L19.3393 169.129C20.3331 170.016 21.4263 170.902 22.4201 171.69C24.5071 173.266 26.6935 174.744 28.8799 176.123C33.2526 178.881 37.8241 181.245 42.2962 183.412C46.7683 185.579 51.2404 187.648 55.4144 189.618C59.6878 191.588 63.663 193.459 67.4394 195.429C71.2159 197.4 74.5948 199.271 77.5762 201.241C80.5576 203.211 83.1415 205.181 85.3279 207.053C87.4149 208.924 89.2037 210.697 90.3963 212.273C90.6944 212.667 90.9926 213.061 91.2907 213.357C91.5888 213.751 91.7876 214.046 91.9863 214.342C92.1851 214.637 92.3839 214.933 92.5826 215.229C92.7814 215.524 92.8808 215.721 93.0795 216.017C93.2783 216.312 93.3777 216.509 93.477 216.706C93.6758 218.676 94.1727 220.646 94.6696 222.518C92.8808 221.533 91.0919 220.449 89.1043 219.464C86.1229 217.987 82.8434 216.608 79.3651 215.327C77.6756 214.736 75.8867 214.145 74.0979 213.554C72.309 213.061 70.5202 212.569 68.632 212.076C64.9549 211.19 61.2778 210.402 57.6008 209.614C55.8119 209.22 53.9237 208.826 52.2342 208.432C50.4454 208.038 48.6565 207.545 46.9671 207.151L46.3708 206.954L45.7745 206.757C45.377 206.659 44.9795 206.56 44.582 206.363C44.1844 206.265 43.6875 206.068 43.29 205.969L42.9919 205.871L42.6937 205.772L42.0974 205.575C41.3024 205.28 40.5074 204.984 39.7123 204.689C38.9173 204.295 38.2216 203.999 37.4266 203.605C34.5445 202.128 31.8613 200.453 29.6749 198.483C27.4885 196.513 25.6003 194.444 24.209 192.179C22.8177 190.012 21.7245 187.746 21.0288 185.678C20.3331 183.609 19.8362 181.738 19.5381 180.162C19.4387 179.768 19.4387 179.374 19.3393 179.078C19.24 178.684 19.24 178.388 19.24 178.093C19.1406 177.502 19.1406 176.911 19.0412 176.517C18.9418 175.63 18.9418 175.138 18.9418 175.138C18.9418 175.138 18.9418 175.236 18.8424 175.433C18.8424 175.63 18.7431 176.024 18.6437 176.418C18.4449 177.305 18.2462 178.586 18.1468 180.26C18.0474 181.048 18.0474 182.033 18.1468 183.018C18.1468 183.511 18.2462 184.102 18.2462 184.594C18.3456 185.185 18.3455 185.678 18.4449 186.269C18.7431 188.633 19.4387 191.292 20.6313 193.952C21.2276 195.331 21.9232 196.71 22.917 198.089C23.8115 199.468 24.8053 200.749 25.9978 202.128C28.3829 204.689 31.1656 207.053 34.4451 209.023C36.0352 210.008 37.7247 210.894 39.5135 211.682L40.2092 211.978L40.5074 212.175L40.9049 212.372C41.3024 212.569 41.6999 212.667 42.1968 212.864C42.5943 213.061 43.0912 213.16 43.5882 213.357L44.2838 213.653L44.9795 213.849C48.6565 215.13 52.3336 216.115 56.0107 217.1C57.7995 217.593 59.5884 217.987 61.4766 218.479C63.2654 218.972 65.0543 219.464 66.7438 219.957C69.2283 220.646 71.6134 221.434 73.8991 222.222C73.7004 222.419 73.601 222.518 73.4022 222.715C73.0047 223.109 72.7066 223.503 72.4084 224.094C72.1103 224.586 71.8122 225.177 71.514 225.965C71.3153 226.655 71.2159 227.443 71.2159 228.329C71.3152 229.216 71.514 230.102 71.9115 230.891C72.3091 231.679 72.806 232.467 73.4022 233.156C73.5016 233.255 73.5016 233.353 73.601 233.353L73.7004 233.452L73.7998 233.55L73.8991 233.649L74.0979 233.846L74.1973 233.944L74.2967 234.043L74.5948 234.338C74.6942 234.437 74.7936 234.437 74.8929 234.535C75.0917 234.634 75.2905 234.831 75.3898 234.929C76.8806 235.914 78.4706 236.604 80.0607 237.195C81.6508 237.687 83.2409 238.081 84.831 238.377C86.4211 238.672 88.0111 238.869 89.5018 239.066C90.9925 239.263 92.4833 239.46 93.8746 239.559C96.6572 239.854 99.2411 240.15 101.328 240.445C103.415 240.741 105.005 241.135 106.098 241.43C106.595 241.627 106.993 241.726 107.291 241.824C107.589 241.923 107.688 242.021 107.688 242.021L107.788 241.923C114.248 246.946 122.397 250 131.242 250C140.086 250 148.236 246.946 154.695 241.923L154.795 242.021C154.795 242.021 154.894 241.923 155.192 241.824C155.49 241.726 155.888 241.627 156.385 241.43C157.478 241.135 159.068 240.741 161.155 240.445C163.242 240.15 165.826 239.854 168.609 239.559C170 239.362 171.491 239.263 172.981 239.066C174.472 238.869 176.062 238.672 177.652 238.377C179.242 238.081 180.832 237.687 182.422 237.195C184.013 236.702 185.603 236.013 187.093 234.929C187.292 234.831 187.491 234.634 187.59 234.535C187.69 234.437 187.789 234.437 187.888 234.338L188.186 234.043L188.286 233.944L188.385 233.846L188.584 233.649L188.683 233.55L188.783 233.452L188.882 233.353C188.982 233.255 188.982 233.156 189.081 233.156C189.677 232.467 190.174 231.777 190.572 230.891C190.969 230.102 191.168 229.216 191.267 228.329C191.267 227.443 191.168 226.655 190.969 225.965C190.77 225.276 190.472 224.685 190.075 224.094C189.777 223.601 189.379 223.109 189.081 222.715C188.882 222.518 188.783 222.419 188.584 222.222C190.87 221.434 193.255 220.646 195.739 219.957C197.429 219.464 199.218 218.972 201.007 218.479C202.795 217.987 204.584 217.593 206.472 217.1C210.15 216.115 213.827 215.13 217.504 213.849L218.199 213.653L218.895 213.357C219.392 213.16 219.789 213.061 220.286 212.864C220.684 212.667 221.181 212.569 221.578 212.372L221.976 212.175L222.274 211.978L222.97 211.682C224.758 210.894 226.448 210.008 228.038 209.023C231.318 207.053 234.1 204.787 236.485 202.128C237.678 200.847 238.672 199.468 239.566 198.089C240.461 196.71 241.156 195.331 241.752 193.952C242.945 191.194 243.641 188.534 243.939 186.269C244.038 185.678 244.038 185.087 244.138 184.594C244.138 184.003 244.237 183.511 244.237 183.018C244.237 182.033 244.237 181.048 244.237 180.26C244.138 178.586 243.939 177.305 243.74 176.418C243.641 176.024 243.541 175.63 243.541 175.433C243.442 175.236 243.442 175.138 243.442 175.138C243.442 175.138 243.442 175.63 243.343 176.517C243.343 176.911 243.243 177.502 243.144 178.093C243.144 178.388 243.044 178.783 243.044 179.078C242.945 179.472 242.945 179.768 242.846 180.162C242.548 181.738 242.15 183.609 241.355 185.678C240.659 187.746 239.566 190.012 238.175 192.179C236.783 194.346 234.895 196.513 232.709 198.483C230.423 200.453 227.839 202.128 224.957 203.605C224.262 203.999 223.466 204.295 222.671 204.689C221.876 204.984 221.181 205.378 220.286 205.575L219.69 205.772L219.392 205.871L219.094 205.969C218.696 206.068 218.199 206.265 217.802 206.363C217.404 206.462 217.007 206.659 216.609 206.757L216.013 206.954L215.417 207.151C213.727 207.644 211.938 208.038 210.15 208.432C208.361 208.826 206.572 209.22 204.783 209.614C201.106 210.402 197.429 211.19 193.752 212.076C191.963 212.569 190.075 213.061 188.286 213.554C186.497 214.145 184.708 214.637 183.019 215.327C179.54 216.608 176.261 217.987 173.279 219.464C171.292 220.449 169.404 221.434 167.714 222.518C168.31 220.646 168.708 218.676 168.907 216.706C169.006 216.509 169.205 216.312 169.304 216.017C169.404 215.82 169.602 215.524 169.801 215.229C170 214.933 170.199 214.637 170.397 214.342C170.596 214.046 170.894 213.652 171.093 213.357C171.391 212.963 171.689 212.667 171.987 212.273C173.18 210.697 174.969 208.924 177.056 207.053C179.143 205.181 181.727 203.211 184.808 201.241C187.789 199.271 191.267 197.301 194.944 195.429C198.721 193.459 202.696 191.588 206.969 189.618C211.243 187.648 215.615 185.579 220.088 183.412C224.56 181.245 229.131 178.783 233.504 176.123C235.69 174.744 237.877 173.266 239.964 171.69C240.957 170.902 242.051 170.016 243.044 169.129L243.442 168.834L243.74 168.538L244.436 167.947L245.131 167.356L245.529 166.962L245.827 166.667C249.504 163.022 252.883 159.18 255.467 154.945C256.163 153.861 256.759 152.778 257.355 151.694C257.653 151.103 257.852 150.611 258.15 150.02C258.25 149.724 258.448 149.429 258.548 149.232C258.647 148.936 258.747 148.641 258.945 148.444C259.144 147.853 259.442 147.36 259.641 146.769C259.84 146.178 260.038 145.686 260.237 145.095C260.436 144.504 260.535 144.011 260.734 143.42C260.834 143.125 260.933 142.829 260.933 142.632C261.032 142.336 261.032 142.041 261.132 141.745C261.728 139.48 262.026 137.313 262.225 135.146C262.324 134.062 262.324 132.979 262.324 131.994C263.119 131.403 263.119 130.91 263.119 130.418ZM90.8932 231.974C89.4025 231.876 87.9118 231.876 86.5204 231.679C85.1291 231.58 83.7378 231.383 82.4459 231.186C81.1539 230.989 79.9613 230.595 78.9675 230.102C78.8682 230.004 78.7688 230.004 78.57 229.905L78.2719 229.708C78.2719 229.708 78.2719 229.708 78.1725 229.708L78.0731 229.61L77.8744 229.413L77.775 229.314C77.6756 229.314 77.6756 229.216 77.5762 229.216C77.1787 228.92 76.7812 228.625 76.5824 228.329C76.2842 228.034 76.0855 227.738 75.9861 227.344C75.7874 226.95 75.7874 226.655 75.688 226.162C75.5886 225.374 75.7874 224.389 76.0855 223.601C76.1849 223.207 76.3837 222.912 76.483 222.616C76.7812 222.715 77.0793 222.813 77.3775 222.912C78.1725 223.207 78.9675 223.503 79.6632 223.798C80.0607 223.995 80.4582 224.094 80.8558 224.291C81.2533 224.488 81.6508 224.586 81.949 224.783C82.3465 224.98 82.6446 225.079 83.0421 225.276C83.4396 225.473 83.7378 225.571 84.1353 225.768C84.5328 225.965 84.831 226.064 85.2285 226.261C85.626 226.458 85.9242 226.556 86.2223 226.753C89.0049 228.132 91.4895 229.511 93.7752 230.891C94.3715 231.186 94.8684 231.58 95.4647 231.876C95.3653 231.876 95.2659 231.876 95.1665 231.876C93.8746 232.073 92.3839 231.974 90.8932 231.974ZM112.359 235.52C111.962 235.126 111.564 234.831 111.067 234.338C110.67 233.944 110.173 233.55 109.676 233.058C104.508 227.64 101.328 220.351 101.328 212.273C101.328 195.528 115.043 181.935 131.937 181.935C148.832 181.935 162.546 195.528 162.546 212.273C162.546 220.351 159.366 227.64 154.198 233.058C153.702 233.55 153.205 233.944 152.807 234.338C152.31 234.831 151.913 235.225 151.615 235.52C146.347 239.953 139.49 242.612 132.037 242.612C124.484 242.612 117.726 239.953 112.359 235.52ZM177.553 226.95C177.851 226.753 178.248 226.655 178.547 226.458C178.944 226.261 179.242 226.162 179.64 225.965C180.037 225.768 180.335 225.67 180.733 225.473C181.13 225.276 181.429 225.177 181.826 224.98C182.224 224.783 182.522 224.685 182.919 224.488C183.317 224.291 183.714 224.192 184.112 223.995C184.907 223.7 185.702 223.404 186.398 223.109C186.696 223.01 186.994 222.912 187.292 222.813C187.391 223.109 187.59 223.503 187.69 223.798C187.988 224.586 188.186 225.473 188.087 226.359C188.087 226.753 187.988 227.147 187.789 227.541C187.69 227.935 187.391 228.231 187.193 228.526C186.895 228.822 186.596 229.117 186.199 229.413C186.199 229.413 186.1 229.511 186 229.511H186.1L185.901 229.708L185.801 229.807C185.801 229.807 185.801 229.807 185.702 229.807L185.404 230.004C185.304 230.102 185.205 230.102 185.006 230.201C184.013 230.693 182.82 230.989 181.528 231.284C180.236 231.481 178.845 231.678 177.453 231.777C176.062 231.875 174.571 231.974 173.081 232.072C171.59 232.171 170.099 232.171 168.708 232.27C168.609 232.27 168.509 232.27 168.41 232.27C168.907 231.974 169.503 231.58 170.099 231.284C172.286 229.708 174.87 228.231 177.553 226.95Z" fill="#505E69"/>
<g clip-path="url(#clip0_573_1475)">
<g clip-path="url(#clip1_573_1475)">
<path d="M153.27 162.535C144.564 152.936 141.996 144.05 141.416 138.105C143.789 128.785 140.893 117.915 132.962 109.984C121.544 98.567 104.009 97.5674 93.8138 107.763C83.6278 117.949 84.6276 135.484 96.0448 146.901C103.98 154.836 114.857 157.731 124.177 155.355C130.123 155.936 139.004 158.508 148.598 167.209C148.64 167.152 148.682 167.095 148.739 167.053L153.115 162.676C153.171 162.62 153.214 162.578 153.27 162.535ZM106.599 147.055L109.662 143.992L113.512 147.841L112.254 149.099C110.328 148.678 108.428 147.994 106.599 147.055ZM100.927 143.032L104.815 139.144L108.664 142.993L105.308 146.349C103.766 145.435 102.296 144.326 100.927 143.032ZM96.6087 137.655L99.9668 134.296L103.817 138.146L99.9279 142.035C98.6329 140.666 97.5241 139.197 96.6087 137.655ZM93.8565 130.711L95.1194 129.449L98.9686 133.298L95.9025 136.365C94.9636 134.537 94.2784 132.637 93.8565 130.711ZM93.4112 127.74L94.1212 128.45L93.5453 129.026C93.4853 128.597 93.4453 128.169 93.4112 127.74ZM94.5431 119.177L98.969 123.602L95.1194 127.452L93.346 125.679C93.3857 123.438 93.7783 121.241 94.5431 119.177ZM98.2369 113.175L103.816 118.755L99.9671 122.604L95.1318 117.769C95.9083 116.109 96.9506 114.566 98.2369 113.175ZM103.833 109.076L108.664 113.908L104.815 117.757L99.2354 112.178C100.627 110.892 102.171 109.851 103.833 109.076ZM111.748 107.295L113.512 109.06L109.662 112.909L105.24 108.487C107.306 107.723 109.505 107.333 111.748 107.295ZM122.415 109.851L119.358 112.909L115.508 109.06L116.762 107.806C118.688 108.227 120.588 108.913 122.415 109.851ZM128.085 113.877L124.205 117.757L120.356 113.908L123.705 110.558C125.248 111.473 126.717 112.583 128.085 113.877ZM132.4 119.258L129.053 122.605L125.203 118.755L129.082 114.876C130.377 116.245 131.485 117.715 132.4 119.258ZM135.15 126.204L133.901 127.453L130.051 123.603L133.106 120.549C134.044 122.377 134.729 124.278 135.15 126.204ZM135.592 129.143L134.899 128.451L135.461 127.889C135.519 128.308 135.558 128.726 135.592 129.143ZM134.469 137.715L130.052 133.299L133.901 129.449L135.659 131.207C135.622 133.45 135.232 135.649 134.469 137.715ZM125.187 147.824L120.356 142.993L124.205 139.144L129.78 144.719C128.39 146.005 126.847 147.047 125.187 147.824ZM117.276 149.608L115.508 147.841L119.358 143.992L123.779 148.412C121.715 149.177 119.517 149.57 117.276 149.608ZM113.512 128.45L109.662 132.3L105.813 128.45L109.662 124.601L113.512 128.45ZM110.661 123.603L114.51 119.753L118.36 123.602L114.51 127.452L110.661 123.603ZM114.51 129.449L118.36 133.299L114.51 137.148L110.661 133.298L114.51 129.449ZM115.508 128.45L119.358 124.601L123.207 128.45L119.358 132.3L115.508 128.45ZM120.356 123.602L124.205 119.753L128.055 123.603L124.206 127.452L120.356 123.602ZM119.358 122.604L115.508 118.755L119.358 114.906L123.207 118.755L119.358 122.604ZM114.51 117.757L110.661 113.908L114.51 110.058L118.36 113.908L114.51 117.757ZM113.512 118.755L109.662 122.605L105.813 118.755L109.662 114.906L113.512 118.755ZM108.664 123.603L104.815 127.452L100.965 123.602L104.815 119.753L108.664 123.603ZM103.817 128.45L99.9668 132.3L96.1175 128.45L99.9671 124.601L103.817 128.45ZM104.815 129.449L108.664 133.298L104.815 137.148L100.965 133.298L104.815 129.449ZM109.662 134.296L113.512 138.146L109.662 141.995L105.813 138.146L109.662 134.296ZM114.51 139.144L118.36 142.993L114.51 146.843L110.661 142.993L114.51 139.144ZM119.358 141.995L115.508 138.146L119.358 134.297L123.207 138.146L119.358 141.995ZM120.356 133.299L124.206 129.449L128.055 133.299L124.205 137.148L120.356 133.299ZM125.204 128.45L129.053 124.601L132.903 128.451L129.053 132.3L125.204 128.45ZM114.51 108.062L113.811 107.363C114.233 107.397 114.655 107.435 115.077 107.495L114.51 108.062ZM114.51 148.839L115.214 149.543C114.789 149.509 114.364 149.469 113.94 149.41L114.51 148.839ZM130.778 143.72L125.203 138.146L129.053 134.297L133.88 139.123C133.105 140.785 132.063 142.329 130.778 143.72ZM138.884 155.547C136.232 154.077 133.731 152.998 131.408 152.189C132.749 151.314 134.024 150.311 135.192 149.142C136.364 147.97 137.37 146.693 138.247 145.348C139.056 147.671 140.137 150.171 141.609 152.822C142.583 154.587 140.649 156.521 138.884 155.547Z" fill="#505E69"/>
<path d="M176.494 182.011L158.168 163.685C157.051 162.569 155.232 162.56 154.115 163.676L149.736 168.055C148.62 169.172 148.629 170.991 149.746 172.108L168.072 190.434C169.189 191.55 171.007 191.56 172.124 190.443L176.503 186.064C177.62 184.947 177.611 183.128 176.494 182.011Z" fill="#505E69"/>
<path d="M101.176 158.85C97.5762 163.608 95.6281 170.018 94.1598 176.921L95.3599 178.093L104.014 160.7L103.661 159.331C103.365 158.201 101.882 157.919 101.176 158.85Z" fill="#505E69"/>
<path d="M97.548 180.211L110.452 167.307L109.548 163.848C109.407 163.354 109.026 162.973 108.546 162.846L105.073 161.928C105.045 161.914 105.016 161.914 104.988 161.885L96.4188 179.109L97.548 180.211Z" fill="#505E69"/>
<path d="M116.833 173.717V173.702C116.833 173.702 116.818 173.702 116.818 173.688L115.915 170.215C115.788 169.721 115.407 169.34 114.913 169.213L111.454 168.309L98.5502 181.199L99.6514 182.257L116.833 173.717Z" fill="#505E69"/>
<path d="M119.416 175.1L117.99 174.719L100.739 183.303L102.136 184.672C108.955 183.203 115.195 181.157 119.91 177.584C120.842 176.879 120.56 175.396 119.416 175.1Z" fill="#505E69"/>
<path d="M96.5456 181.213L93.4539 178.206L90.6586 181.001C88.6678 182.992 88.6678 186.225 90.6586 188.215C92.6491 190.206 95.8821 190.206 97.8726 188.215L100.767 185.321L97.5479 182.201L96.5456 181.213Z" fill="#505E69"/>
</g>
</g>
<defs>
<clipPath id="clip0_573_1475">
<rect width="96" height="96" fill="white" transform="translate(84.0596 98)"/>
</clipPath>
<clipPath id="clip1_573_1475">
<rect width="96" height="96" fill="white" transform="translate(84.0596 98)"/>
</clipPath>
</defs>
</svg>
