<svg width="264" height="250" viewBox="0 0 264 250" fill="none" xmlns="http://www.w3.org/2000/svg">
<path opacity="0.05" fill-rule="evenodd" clip-rule="evenodd" d="M263.179 130.418C263.179 129.925 263.079 129.433 263.079 128.94C262.98 126.97 262.682 125.099 262.284 123.325C261.887 121.552 261.39 119.976 260.893 118.499C259.8 115.544 258.508 113.081 257.315 111.21C257.017 110.717 256.719 110.323 256.421 109.831C256.123 109.437 255.924 109.043 255.626 108.649C255.129 107.959 254.632 107.368 254.235 106.875C253.837 106.383 253.539 106.087 253.34 105.89C253.141 105.693 253.042 105.595 253.042 105.595L252.943 105.693C252.943 105.693 253.241 106.284 253.738 107.27C254.235 108.353 254.93 109.831 255.626 111.899C256.322 113.968 257.017 116.43 257.514 119.287C257.713 120.764 258.011 122.242 258.011 123.916C258.011 124.113 258.011 124.31 258.011 124.507C258.011 124.704 258.011 124.902 258.011 125.099C258.011 125.493 258.011 125.887 258.011 126.379C258.011 127.266 258.011 128.054 257.912 128.94C257.912 129.827 257.713 130.713 257.614 131.6C257.514 132.486 257.315 133.373 257.117 134.358C257.017 134.85 256.918 135.244 256.818 135.737C256.719 136.229 256.62 136.623 256.421 137.116C256.322 137.608 256.123 138.002 256.023 138.495C255.924 138.987 255.725 139.381 255.527 139.874C254.831 141.745 254.135 143.617 253.141 145.489C252.247 147.36 251.154 149.232 249.961 151.005C249.365 151.891 248.769 152.778 248.073 153.763C247.775 154.255 247.377 154.649 247.079 155.043C246.781 155.437 246.384 155.93 245.986 156.324C245.589 156.718 245.29 157.21 244.893 157.604C244.495 157.998 244.098 158.491 243.7 158.885C242.905 159.771 242.11 160.559 241.216 161.348L240.918 161.643L240.619 161.939L239.924 162.53L239.228 163.121L238.93 163.416C238.831 163.515 238.731 163.613 238.632 163.712C237.737 164.401 236.942 165.189 235.949 165.879C234.06 167.356 232.073 168.637 230.085 169.917C226.011 172.478 221.638 174.645 217.265 176.812C212.892 178.98 208.52 180.95 204.246 182.92C199.973 184.89 195.799 186.86 191.923 188.928C188.047 190.997 184.37 193.065 181.091 195.134C177.811 197.301 174.929 199.468 172.544 201.635C171.153 202.916 169.96 204.098 168.867 205.181C168.37 202.719 167.674 200.355 166.78 198.089C166.879 197.892 166.979 197.597 167.078 197.301C167.476 196.02 168.171 194.05 169.165 191.686C169.463 191.095 169.761 190.504 170.059 189.815C170.258 189.519 170.358 189.125 170.556 188.83C170.755 188.534 170.954 188.14 171.053 187.845C171.451 187.155 171.749 186.466 172.246 185.678C172.643 184.988 173.14 184.2 173.637 183.412C175.625 180.359 178.109 177.108 181.19 173.857C184.271 170.508 187.849 167.159 191.923 163.81C195.998 160.461 200.47 157.013 205.141 153.467C209.812 149.921 214.681 146.178 219.551 142.139C220.743 141.154 221.936 140.071 223.129 138.987C223.725 138.495 224.321 137.904 224.917 137.411C225.514 136.82 226.11 136.328 226.706 135.737C228.992 133.471 231.278 131.206 233.464 128.743C233.961 128.152 234.557 127.561 235.054 126.872L236.545 125L237.34 124.015C237.638 123.719 237.837 123.325 238.036 123.03L239.427 121.06C239.924 120.37 240.321 119.681 240.818 118.991C241.216 118.302 241.713 117.612 242.11 116.923C242.508 116.233 242.905 115.445 243.402 114.756L243.998 113.672L244.297 113.18L244.595 112.687C244.893 111.998 245.29 111.308 245.588 110.619L246.085 109.634L246.185 109.535L246.284 109.338V109.24L246.384 108.944L246.582 108.353C246.88 107.664 247.278 106.875 247.576 106.186C247.874 105.496 248.172 104.708 248.471 103.92L248.868 102.837C248.967 102.443 249.166 102.049 249.266 101.753C249.564 100.965 249.762 100.276 250.061 99.4878C250.259 98.6998 250.458 98.0103 250.657 97.2222C250.856 96.4342 251.054 95.7447 251.253 94.9567C251.353 94.5626 251.452 94.1687 251.452 93.7746L251.551 93.1836L251.651 92.5926C251.75 91.8046 251.849 91.0166 251.949 90.327C252.048 88.751 252.247 87.2734 252.247 85.6974C252.247 82.6438 251.949 79.6887 251.353 76.8322C250.756 73.9756 249.862 71.316 248.769 68.8534C247.675 66.3909 246.284 64.1253 244.893 62.0567C243.502 59.9882 241.911 58.2151 240.321 56.6391C239.924 56.2451 239.526 55.8511 239.129 55.457C238.731 55.063 238.334 54.7675 237.936 54.3735C237.737 54.1765 237.539 53.9795 237.34 53.881C237.141 53.684 236.942 53.5855 236.744 53.3885C236.346 53.093 235.949 52.699 235.551 52.4035C235.154 52.108 234.756 51.8124 234.359 51.5169C234.16 51.4184 233.961 51.2214 233.762 51.1229C233.563 51.0244 233.365 50.8274 233.166 50.7289C232.768 50.4334 232.371 50.2364 232.073 49.9409C231.675 49.7439 231.278 49.4484 230.98 49.2514C230.284 48.7589 229.489 48.4633 228.893 48.0693C228.197 47.6753 227.501 47.3798 226.905 47.0843C226.309 46.7888 225.712 46.4933 225.116 46.2963C224.52 46.0008 224.023 45.8038 223.526 45.6068C222.532 45.2128 221.638 44.9173 220.942 44.7202C220.247 44.5232 219.65 44.3262 219.352 44.2277C218.955 44.1292 218.756 44.0307 218.756 44.0307C218.756 44.0307 218.955 44.1292 219.253 44.3262C219.551 44.5232 220.147 44.7202 220.743 45.1143C222.035 45.8038 223.924 46.8873 226.11 48.4634C226.706 48.8574 227.303 49.2514 227.799 49.7439C228.396 50.2364 228.992 50.6304 229.588 51.2214C229.886 51.5169 230.185 51.7139 230.582 52.0094C230.88 52.305 231.178 52.6005 231.576 52.896C231.775 52.9945 231.874 53.1915 232.073 53.29C232.272 53.487 232.371 53.5855 232.57 53.7825C232.868 54.078 233.166 54.3735 233.563 54.7675C234.855 56.1466 236.147 57.5256 237.34 59.2002C237.638 59.5942 237.936 59.9882 238.234 60.4807C238.532 60.8747 238.831 61.3672 239.129 61.7612C239.427 62.2538 239.725 62.6478 240.023 63.1403C240.321 63.6328 240.52 64.1253 240.818 64.6178C241.812 66.5879 242.806 68.6564 243.502 70.922C244.197 73.1876 244.694 75.5516 244.992 78.0142C245.29 80.4768 245.29 83.0378 245.092 85.5989C245.092 86.8794 244.893 88.16 244.694 89.539C244.495 90.8195 244.297 92.1986 243.998 93.4791C243.8 94.8582 243.402 96.1387 243.005 97.5177C242.806 98.2073 242.607 98.8968 242.408 99.4878C242.309 99.7833 242.21 100.177 242.11 100.473L241.713 101.458C241.415 102.147 241.216 102.837 240.918 103.428C240.619 104.117 240.321 104.708 240.023 105.398L239.824 105.89L239.725 106.186V106.284L239.626 106.383L239.129 107.368C238.731 108.058 238.433 108.747 238.036 109.437L237.737 109.929L237.439 110.422L236.942 111.308C236.545 111.899 236.247 112.589 235.849 113.18C235.452 113.771 235.054 114.46 234.657 115.051C234.259 115.642 233.862 116.332 233.365 116.923L232.073 118.696C231.874 118.991 231.675 119.287 231.377 119.582L230.681 120.469L229.29 122.242C228.793 122.833 228.296 123.424 227.799 123.916C225.812 126.182 223.725 128.349 221.538 130.418C220.942 130.91 220.445 131.403 219.849 131.994C219.253 132.486 218.756 133.077 218.16 133.57C216.967 134.555 215.874 135.54 214.681 136.525C210.01 140.465 205.24 144.11 200.569 147.656C195.898 151.202 191.327 154.748 187.053 158.195C182.78 161.742 179.004 165.288 175.625 168.932C172.345 172.577 169.563 176.123 167.376 179.571C166.879 180.457 166.382 181.245 165.885 182.033C165.389 182.821 164.991 183.708 164.594 184.397C164.395 184.791 164.196 185.185 163.997 185.481C163.799 185.875 163.6 186.269 163.5 186.564C163.202 187.254 162.805 187.943 162.507 188.633C162.407 188.928 162.208 189.322 162.109 189.618C160.42 187.352 158.432 185.284 156.345 183.511C156.345 183.412 156.345 183.412 156.345 183.314C156.146 181.935 155.848 179.866 156.047 177.305C156.146 174.744 156.743 171.592 158.034 168.144C159.326 164.697 161.314 160.757 163.799 156.619C165.09 154.551 166.482 152.384 167.972 150.217C169.463 148.05 171.053 145.784 172.743 143.42C174.432 141.154 176.122 138.692 178.01 136.328C179.799 133.865 181.687 131.403 183.575 128.94C187.352 123.916 191.227 118.597 195.004 113.081C195.898 111.702 196.892 110.323 197.787 108.846C198.681 107.368 199.575 105.989 200.47 104.511C201.364 103.034 202.159 101.556 203.054 100.079C203.451 99.3893 203.849 98.6012 204.246 97.8132L205.439 95.5477C208.619 89.4405 211.302 82.9393 212.992 76.2411C213.389 74.5666 213.787 72.892 214.085 71.2175C214.383 69.5429 214.681 67.8684 214.88 66.1939C214.979 65.3073 215.079 64.5193 215.079 63.7313C215.079 63.3373 215.178 62.9433 215.178 62.4507C215.178 62.0567 215.277 61.6627 215.277 61.1702C215.377 59.4957 215.377 57.8211 215.476 56.1466C215.476 54.5705 215.377 52.9945 215.377 51.5169V51.4185V51.2214V51.1229V50.8274V50.2364C215.377 49.8424 215.277 49.4484 215.277 49.0544C215.178 48.2663 215.079 47.3798 214.979 46.5918C214.482 43.3412 213.588 40.2876 212.395 37.431C211.203 34.5745 209.613 31.9149 207.923 29.6493C206.135 27.2853 204.246 25.3152 202.159 23.5422C198.085 19.9961 193.712 17.7305 189.637 16.3515C188.644 15.9575 187.65 15.662 186.656 15.4649C185.662 15.2679 184.768 14.9724 183.873 14.8739C182.084 14.4799 180.395 14.3814 178.904 14.2829C178.109 14.2829 177.414 14.1844 176.718 14.2829C176.022 14.2829 175.426 14.2829 174.83 14.3814C174.233 14.4799 173.737 14.4799 173.24 14.4799C172.743 14.5784 172.345 14.5784 171.948 14.6769C171.749 14.6769 171.55 14.7754 171.351 14.7754C171.153 14.7754 171.053 14.8739 170.855 14.8739C170.556 14.9724 170.358 14.9724 170.059 15.0709C169.662 15.1694 169.463 15.1694 169.463 15.1694C169.463 15.1694 169.662 15.1694 170.059 15.1694C170.258 15.1694 170.556 15.1694 170.855 15.1694C171.053 15.1694 171.153 15.1694 171.351 15.1694C171.55 15.1694 171.749 15.1694 171.948 15.1694C173.538 15.2679 175.824 15.4649 178.606 16.0559C179.004 16.1544 179.302 16.253 179.699 16.3515C180.097 16.45 180.494 16.5485 180.793 16.647C181.588 16.844 182.383 17.1395 183.178 17.435C184.768 18.026 186.557 18.7155 188.246 19.602C190.035 20.4886 191.824 21.5721 193.613 22.7541C194.01 23.0497 194.507 23.4437 194.905 23.7392C195.302 24.0347 195.799 24.4287 196.196 24.8227C197.091 25.5122 197.886 26.3002 198.78 27.1868C202.06 30.5359 205.041 34.7715 206.93 39.6966C207.824 42.1592 208.52 44.8187 208.917 47.5768C209.017 48.2663 209.017 48.9559 209.116 49.6454C209.116 50.0394 209.116 50.3349 209.116 50.7289V51.2214L209.017 51.5169H208.917L209.017 51.6154C209.017 53.1915 209.017 54.669 209.017 56.2451C208.917 57.7226 208.818 59.2002 208.718 60.7762C208.718 61.1702 208.619 61.5642 208.619 61.9582C208.52 62.3522 208.52 62.7463 208.52 63.1403C208.42 63.9283 208.321 64.7163 208.222 65.4058C208.023 66.9819 207.625 68.4594 207.327 69.937C206.93 71.4145 206.532 72.9906 206.135 74.4681C204.346 80.4768 201.861 86.4854 198.78 92.1986C195.7 97.9118 192.122 103.428 188.345 108.747C184.569 114.066 180.793 119.287 177.016 124.212C176.022 125.493 175.128 126.675 174.233 127.955C173.339 129.236 172.345 130.418 171.451 131.6C169.662 134.062 167.873 136.426 166.184 138.79C164.494 141.154 162.805 143.519 161.314 145.784C159.823 148.05 158.333 150.315 156.941 152.581C154.258 157.013 152.072 161.348 150.581 165.583C149.09 169.72 148.494 173.759 148.395 177.009C148.395 177.502 148.395 177.896 148.395 178.389C144.419 176.418 140.245 175.236 135.575 174.744C135.575 174.251 135.575 173.66 135.674 173.069C135.674 172.478 135.674 171.789 135.773 171.198C135.773 170.508 135.873 169.819 135.873 169.129C135.873 168.932 135.873 168.735 135.873 168.538C135.873 168.341 135.873 168.144 135.972 167.947C135.972 167.553 136.071 167.159 136.071 166.765C136.171 165.189 136.469 163.515 136.668 161.742C137.264 158.097 138.158 154.058 139.45 149.724C140.742 145.39 142.432 140.662 144.419 135.737C146.407 130.812 148.693 125.69 151.078 120.272C153.463 114.953 156.047 109.338 158.432 103.625C160.916 97.9118 163.202 91.9031 165.289 85.8944C167.376 79.7872 169.165 73.5816 170.457 67.3759C170.656 66.5879 170.755 65.7998 170.954 65.0118C171.153 64.2238 171.252 63.4358 171.351 62.6478C171.451 61.8597 171.65 61.0717 171.749 60.2837C171.848 59.4957 171.948 58.8061 172.047 58.0181C172.146 57.2301 172.246 56.4421 172.345 55.7526C172.445 54.9645 172.544 54.1765 172.544 53.3885C172.643 51.8125 172.743 50.2364 172.743 48.6604C172.743 45.5083 172.544 42.4547 172.146 39.4996C171.749 36.5445 171.053 33.6879 170.258 30.9299C169.463 28.1718 168.469 25.6107 167.277 23.1481C166.084 20.7841 164.792 18.5185 163.401 16.45C163.003 15.9575 162.705 15.4649 162.308 14.9724C161.91 14.4799 161.612 13.9874 161.215 13.5934C160.42 12.7068 159.724 11.8203 158.929 11.0323C158.531 10.6383 158.134 10.2443 157.736 9.85028C157.339 9.45627 156.941 9.06225 156.544 8.76674C155.749 8.07722 154.954 7.3877 154.159 6.79668C153.364 6.20567 152.569 5.71317 151.773 5.12216C151.376 4.82665 150.978 4.62963 150.581 4.43262C150.183 4.23562 149.786 3.9401 149.388 3.74309C148.991 3.54609 148.593 3.34911 148.295 3.1521C147.898 2.95509 147.5 2.85659 147.202 2.65959C146.804 2.46258 146.506 2.36408 146.109 2.16707C145.711 2.06857 145.413 1.87154 145.115 1.77304C142.432 0.78801 140.245 0.394023 138.755 0.197018C138.059 0.0985148 137.463 0.0985028 137.065 0C136.668 0 136.469 0 136.469 0C136.469 0 136.668 0.0985148 137.065 0.197018C137.264 0.29552 137.463 0.295502 137.761 0.394005C138.059 0.492508 138.357 0.591029 138.655 0.689531C139.351 0.98504 140.245 1.18205 141.14 1.67456C141.339 1.77306 141.637 1.87155 141.935 1.97006C142.233 2.06856 142.432 2.26556 142.73 2.36406C143.028 2.46256 143.326 2.65956 143.525 2.75807C143.823 2.85657 144.121 3.05357 144.419 3.25058C146.804 4.53112 149.488 6.40269 152.072 9.06227C152.767 9.65328 153.364 10.4413 154.059 11.1308C154.357 11.5248 154.656 11.9188 155.053 12.3128C155.351 12.7069 155.649 13.1009 155.947 13.4949C157.14 15.1694 158.333 16.9425 159.426 18.9125C160.519 20.8826 161.513 23.0497 162.308 25.3152C163.103 27.5808 163.799 29.9448 164.395 32.5059C165.488 37.5296 165.885 42.9472 165.587 48.4634C165.488 49.8424 165.389 51.2214 165.19 52.699C165.09 53.3885 164.991 54.078 164.892 54.7675C164.792 55.4571 164.693 56.2451 164.494 56.9346C164.395 57.7226 164.196 58.4121 164.097 59.2002C163.898 59.8897 163.798 60.6777 163.6 61.3672C163.401 62.0567 163.302 62.8448 163.103 63.5343C162.904 64.2238 162.705 65.0118 162.606 65.7014C161.115 71.513 159.326 77.4232 157.239 83.2348C155.152 89.0465 152.767 94.7597 150.283 100.374C147.798 105.989 145.214 111.505 142.829 116.923C140.444 122.34 138.059 127.561 136.071 132.683C134.283 137.214 132.692 141.647 131.5 145.883C130.307 141.647 128.717 137.214 126.928 132.683C124.941 127.561 122.556 122.242 120.171 116.923C117.785 111.505 115.202 105.989 112.717 100.374C110.233 94.7597 107.847 89.0465 105.76 83.2348C103.574 77.4232 101.785 71.6115 100.394 65.7014C100.195 65.0118 99.9964 64.2238 99.897 63.5343C99.6982 62.8448 99.5988 62.0567 99.4001 61.3672C99.2013 60.6777 99.1019 59.8897 98.9032 59.2002C98.8038 58.4121 98.605 57.7226 98.5056 56.9346C98.4062 56.2451 98.2075 55.4571 98.1081 54.7675C98.0087 54.078 97.9094 53.3885 97.81 52.699C97.6112 51.3199 97.5118 49.9409 97.4125 48.4634C97.1143 42.9472 97.5118 37.431 98.605 32.5059C99.1019 30.0433 99.7976 27.5808 100.692 25.3152C101.487 23.0497 102.481 20.9811 103.574 18.9125C104.667 16.9425 105.86 15.1694 107.052 13.4949C107.35 13.1009 107.649 12.7069 107.947 12.3128C108.245 11.9188 108.543 11.5248 108.941 11.1308C109.636 10.4413 110.233 9.65328 110.928 9.06227C113.512 6.40269 116.295 4.62962 118.58 3.25058C118.879 3.05357 119.177 2.95507 119.475 2.75807C119.773 2.65956 120.071 2.46256 120.27 2.36406C120.568 2.26556 120.767 2.06856 121.065 1.97006C121.363 1.87155 121.562 1.77306 121.86 1.67456C122.854 1.28055 123.649 0.98504 124.345 0.689531C124.643 0.591029 125.04 0.492508 125.239 0.394005C125.537 0.295502 125.736 0.29552 125.935 0.197018C126.332 0.0985148 126.531 0 126.531 0C126.531 0 126.332 0 125.935 0C125.537 0 124.941 0.0985148 124.245 0.197018C122.754 0.394023 120.568 0.78801 117.885 1.77304C117.587 1.87154 117.189 2.06857 116.891 2.16707C116.593 2.26558 116.195 2.46258 115.798 2.65959C115.4 2.85659 115.102 2.95509 114.705 3.1521C114.307 3.34911 114.009 3.54609 113.611 3.74309C113.214 3.9401 112.816 4.13712 112.419 4.43262C112.021 4.62963 111.624 4.92515 111.226 5.12216C110.431 5.61467 109.636 6.10717 108.841 6.79668C108.046 7.3877 107.251 8.07722 106.456 8.76674C106.059 9.16075 105.661 9.45627 105.264 9.85028C104.866 10.2443 104.468 10.6383 104.071 11.0323C103.276 11.8203 102.58 12.7068 101.785 13.5934C101.388 14.0859 101.09 14.5784 100.692 14.9724C100.294 15.4649 99.9963 15.9575 99.5988 16.45C98.2075 18.5185 96.9156 20.7841 95.723 23.1481C94.5304 25.6107 93.636 28.1718 92.7416 30.9299C91.9465 33.6879 91.2509 36.5445 90.8534 39.4996C90.4558 42.4547 90.2571 45.5083 90.2571 48.6604C90.2571 50.2364 90.3565 51.8125 90.4558 53.3885C90.5552 54.1765 90.6546 54.9645 90.6546 55.7526C90.754 56.5406 90.8534 57.3286 90.9528 58.0181C91.0521 58.8061 91.1515 59.4957 91.2509 60.2837C91.3503 61.0717 91.549 61.8597 91.6484 62.6478C91.7478 63.4358 91.9465 64.2238 92.0459 65.0118C92.2447 65.7998 92.3441 66.5879 92.5428 67.3759C93.8348 73.5816 95.6236 79.7872 97.7106 85.8944C99.7976 92.0016 102.183 97.9118 104.568 103.625C106.953 109.437 109.537 114.953 111.922 120.272C114.307 125.591 116.593 130.812 118.58 135.737C120.568 140.662 122.258 145.39 123.549 149.724C124.841 154.058 125.736 158.097 126.332 161.742C126.63 163.515 126.829 165.189 126.928 166.765C126.928 167.159 127.028 167.553 127.028 167.947C127.028 168.144 127.028 168.341 127.127 168.538C127.127 168.735 127.127 168.932 127.127 169.129C127.127 169.819 127.227 170.508 127.227 171.198C127.227 171.789 127.326 172.478 127.326 173.069C127.326 173.66 127.326 174.251 127.326 174.744C122.754 175.236 118.382 176.418 114.506 178.389C114.506 177.994 114.506 177.502 114.506 177.009C114.406 173.759 113.81 169.72 112.32 165.583C110.829 161.348 108.642 157.013 105.959 152.581C104.667 150.315 103.177 148.05 101.586 145.784C99.9963 143.519 98.4063 141.154 96.7168 138.79C95.0273 136.426 93.2385 134.062 91.4497 131.6C90.5552 130.418 89.6608 129.137 88.667 127.955C87.7726 126.773 86.7788 125.493 85.8843 124.212C82.1079 119.287 78.2321 114.066 74.555 108.747C70.8779 103.428 67.2009 97.9118 64.1201 92.1986C61.0393 86.4854 58.4554 80.5753 56.7659 74.4681C56.3684 72.9906 55.9709 71.4145 55.5734 69.937C55.2752 68.3609 54.9771 66.8834 54.6789 65.4058C54.5795 64.6178 54.4802 63.8298 54.3808 63.1403C54.3808 62.7463 54.2814 62.3522 54.2814 61.9582C54.2814 61.5642 54.182 61.1702 54.182 60.7762C54.0826 59.2987 53.9833 57.8211 53.8839 56.2451C53.8839 54.669 53.6851 53.093 53.6851 51.6154L53.5858 51.5169H53.6851L53.7845 51.2214L53.8839 50.7289C53.8839 50.3349 53.8839 50.0394 53.9833 49.6454C54.0826 48.9559 54.0826 48.2663 54.182 47.5768C54.4802 44.8187 55.1758 42.1592 56.1696 39.6966C58.0579 34.7715 60.9399 30.5359 64.3188 27.1868C65.1139 26.3002 66.0083 25.6107 66.9027 24.8227C67.3002 24.4287 67.7971 24.1332 68.1946 23.7392C68.5922 23.4437 69.0891 23.0497 69.4866 22.7541C71.2754 21.4736 73.0643 20.4886 74.8531 19.602C76.642 18.7155 78.3314 18.026 79.9215 17.435C80.7166 17.1395 81.5116 16.9425 82.3067 16.647C82.7042 16.5485 83.1017 16.45 83.3998 16.3515C83.7974 16.253 84.0955 16.1544 84.493 16.0559C87.2757 15.4649 89.6608 15.1694 91.1515 15.1694C91.3503 15.1694 91.549 15.1694 91.7478 15.1694C91.9465 15.1694 92.0459 15.1694 92.2447 15.1694C92.5428 15.1694 92.841 15.1694 93.0397 15.1694C93.4372 15.1694 93.636 15.1694 93.636 15.1694C93.636 15.1694 93.4372 15.1694 93.0397 15.0709C92.841 15.0709 92.5428 14.9724 92.2447 14.8739C92.0459 14.8739 91.9465 14.7754 91.7478 14.7754C91.549 14.7754 91.3503 14.6769 91.1515 14.6769C90.754 14.5784 90.3565 14.5784 89.8596 14.4799C89.3627 14.4799 88.8658 14.3814 88.2695 14.3814C87.6732 14.2829 87.0769 14.2829 86.3812 14.2829C85.6856 14.2829 84.9899 14.2829 84.1949 14.2829C82.7042 14.3814 81.0147 14.4799 79.2259 14.8739C78.3314 15.0709 77.3376 15.2679 76.4432 15.4649C75.4494 15.7605 74.4556 16.056 73.4618 16.3515C69.3872 17.7305 65.0145 20.0946 60.9399 23.5422C58.8529 25.3152 56.9647 27.2853 55.1758 29.6493C53.387 32.0134 51.8963 34.5745 50.7037 37.431C49.5111 40.2876 48.6167 43.4397 48.1198 46.5918C48.0205 47.3798 47.9211 48.1678 47.8217 49.0544C47.8217 49.4484 47.7223 49.8424 47.7223 50.2364V50.8274V51.1229V51.2214V51.4185V51.5169C47.7223 53.093 47.6229 54.5705 47.6229 56.1466C47.6229 57.8211 47.7223 59.4957 47.8217 61.1702C47.8217 61.5642 47.9211 61.9582 47.9211 62.4507C47.9211 62.8448 48.0204 63.2388 48.0204 63.7313C48.1198 64.5193 48.2192 65.4058 48.2192 66.1939C48.418 67.8684 48.7161 69.5429 49.0142 71.2175C49.4118 72.892 49.7099 74.5666 50.1074 76.2411C51.7969 82.9393 54.4802 89.4405 57.6603 95.5477L58.8529 97.8132C59.2504 98.6012 59.6479 99.3893 60.0455 100.079C60.9399 101.556 61.7349 103.034 62.6294 104.511C63.5238 105.989 64.4182 107.368 65.3126 108.846C66.207 110.225 67.2009 111.604 68.0953 113.081C71.8717 118.597 75.7476 123.916 79.524 128.94C81.4122 131.403 83.3004 133.964 85.0893 136.328C86.8781 138.692 88.667 141.154 90.3565 143.42C92.0459 145.686 93.636 147.951 95.1267 150.217C96.6174 152.384 98.0088 154.551 99.3007 156.619C101.885 160.757 103.773 164.697 105.065 168.144C106.357 171.592 106.854 174.744 107.052 177.305C107.152 179.866 106.953 181.935 106.754 183.314C106.754 183.412 106.754 183.511 106.754 183.511C104.568 185.284 102.68 187.352 100.99 189.618C100.891 189.322 100.692 189.027 100.593 188.633C100.294 187.943 99.9963 187.254 99.5988 186.564C99.4001 186.17 99.3007 185.776 99.1019 185.481C98.9032 185.087 98.7044 184.693 98.5056 184.397C98.1081 183.609 97.7106 182.821 97.2137 182.033C96.7168 181.245 96.2199 180.359 95.723 179.571C93.5366 176.221 90.754 172.577 87.4744 168.932C84.1949 165.288 80.3191 161.742 76.0457 158.195C71.8717 154.649 67.2009 151.202 62.53 147.656C57.8591 144.11 53.0888 140.465 48.418 136.525C47.2254 135.54 46.1322 134.555 44.9397 133.57C44.3434 133.077 43.8465 132.585 43.2502 131.994C42.6539 131.501 42.157 131.009 41.5607 130.418C39.3744 128.349 37.2874 126.182 35.2998 123.916C34.8029 123.325 34.306 122.833 33.8091 122.242L32.4177 120.469L31.7221 119.582C31.5233 119.287 31.3245 118.991 31.0264 118.696L29.7345 116.923C29.2376 116.332 28.9394 115.642 28.4425 115.051C28.045 114.46 27.6475 113.771 27.25 113.18C26.8524 112.589 26.5543 111.899 26.1568 111.308L25.6599 110.422L25.3617 109.929L25.0636 109.437C24.6661 108.747 24.3679 108.058 24.0698 107.368L23.5729 106.383V106.284V106.186L23.4735 105.89L23.2748 105.398C22.9766 104.708 22.6785 104.117 22.3803 103.428C22.0822 102.738 21.8834 102.049 21.5853 101.458L21.1878 100.473C21.0884 100.177 20.989 99.7833 20.8896 99.4878C20.6909 98.7983 20.4921 98.1087 20.2933 97.5177C19.9952 96.1387 19.5977 94.8582 19.2995 93.4791C19.0014 92.1986 18.8026 90.8195 18.6039 89.539C18.5045 88.2585 18.3057 86.8794 18.2064 85.5989C18.0076 83.0378 18.0076 80.4768 18.3057 78.0142C18.6039 75.5516 19.1008 73.1876 19.7964 70.922C20.4921 68.6564 21.3865 66.5879 22.4797 64.6178C22.7779 64.1253 22.9766 63.6328 23.2748 63.1403C23.5729 62.6478 23.871 62.2538 24.1692 61.7612C24.4673 61.2687 24.7654 60.8747 25.0636 60.4807C25.3617 60.0867 25.6599 59.5942 25.958 59.2002C27.1506 57.5256 28.5419 56.1466 29.7345 54.7675C30.0326 54.472 30.4301 54.078 30.7283 53.7825C30.927 53.5855 31.0264 53.487 31.2252 53.29C31.4239 53.093 31.5233 52.9945 31.7221 52.896C32.0202 52.6005 32.3184 52.305 32.7159 52.0094C33.014 51.7139 33.3122 51.5169 33.7097 51.2214C34.306 50.7289 34.9022 50.2364 35.4985 49.7439C36.0948 49.2514 36.6911 48.8574 37.188 48.4634C39.3744 46.8873 41.2626 45.8038 42.5545 45.1143C43.1508 44.7202 43.7471 44.5232 44.0452 44.3262C44.3434 44.1292 44.5421 44.0307 44.5421 44.0307C44.5421 44.0307 44.3434 44.1292 43.9458 44.2277C43.5483 44.3262 43.0514 44.5232 42.3558 44.7202C41.6601 44.9173 40.7657 45.2128 39.7719 45.6068C39.275 45.8038 38.6787 46.0008 38.1818 46.2963C37.5855 46.5918 36.9892 46.7888 36.393 47.0843C35.7967 47.3798 35.101 47.6753 34.4053 48.0693C33.7097 48.4633 33.014 48.8574 32.3184 49.2514C31.9208 49.4484 31.6227 49.7439 31.2252 49.9409C30.8277 50.1379 30.5295 50.4334 30.132 50.7289C29.9332 50.8274 29.7345 51.0244 29.5357 51.1229C29.3369 51.2214 29.1382 51.4184 28.9394 51.5169C28.5419 51.8124 28.1444 52.108 27.7469 52.4035C27.3493 52.699 26.9518 52.9945 26.5543 53.3885C26.3555 53.5855 26.1568 53.684 25.958 53.881C25.7593 54.078 25.5605 54.275 25.3617 54.3735C24.9642 54.7675 24.5667 55.063 24.1692 55.457C23.7717 55.8511 23.3741 56.2451 22.9766 56.6391C21.3865 58.2151 19.7964 59.9882 18.4051 62.0567C17.0138 64.1253 15.6225 66.3909 14.5293 68.8534C13.4361 71.316 12.5417 74.0741 11.9454 76.8322C11.2497 79.6887 10.9516 82.6438 11.051 85.6974C11.051 87.1749 11.1504 88.751 11.3491 90.327C11.4485 91.1151 11.5479 91.9031 11.6472 92.5926L11.7466 93.1836L11.846 93.7746C11.9454 94.1687 12.0448 94.5626 12.0448 94.9567C12.2435 95.7447 12.3429 96.5327 12.6411 97.2222C12.8398 98.0103 13.0386 98.6998 13.2373 99.4878C13.5355 100.276 13.7342 100.965 14.0324 101.753C14.1318 102.147 14.2311 102.541 14.4299 102.837L14.8274 103.92C15.1256 104.61 15.4237 105.398 15.7218 106.186C16.02 106.875 16.4175 107.664 16.7156 108.353L16.9144 108.944L17.0138 109.24V109.338L17.1132 109.535L17.2126 109.634L17.7095 110.619C18.0076 111.308 18.4051 111.998 18.7033 112.687L19.0014 113.18L19.2995 113.672L19.8958 114.756C20.2933 115.445 20.6909 116.233 21.1878 116.923C21.5853 117.612 22.0822 118.302 22.4797 118.991C22.9766 119.681 23.3741 120.37 23.871 121.06L25.2624 123.03C25.4611 123.325 25.7593 123.719 25.958 124.015L26.7531 125L28.2438 126.872C28.7407 127.463 29.3369 128.054 29.8338 128.743C31.9208 131.206 34.2066 133.471 36.5917 135.737C37.188 136.328 37.7843 136.82 38.3806 137.411C38.9768 137.904 39.5731 138.495 40.1694 138.987C41.362 140.071 42.5545 141.056 43.7471 142.139C48.6167 146.178 53.4864 149.921 58.1572 153.467C62.8281 157.013 67.3002 160.461 71.3748 163.81C75.4494 167.159 79.0271 170.607 82.1079 173.857C85.1887 177.206 87.6732 180.457 89.6608 183.412C90.1577 184.2 90.5552 184.89 91.0521 185.678C91.4496 186.367 91.8472 187.155 92.2447 187.845C92.4434 188.14 92.6422 188.534 92.7416 188.83C92.9403 189.125 93.0397 189.519 93.2385 189.815C93.5366 190.504 93.8348 191.095 94.1329 191.686C95.1267 194.05 95.8224 195.922 96.2199 197.301C96.3193 197.597 96.4186 197.892 96.518 198.089C95.6236 200.355 94.928 202.719 94.4311 205.181C93.3379 203.999 92.1453 202.817 90.754 201.635C88.3689 199.468 85.4868 197.203 82.2073 195.134C78.9277 192.967 75.2506 190.898 71.3748 188.928C67.499 186.86 63.325 184.988 59.0517 182.92C54.7783 180.95 50.4056 178.98 46.0328 176.812C41.6601 174.645 37.2874 172.478 33.2128 169.917C31.2252 168.637 29.1382 167.356 27.3493 165.879C26.3555 165.189 25.5605 164.5 24.6661 163.712C24.5667 163.613 24.4673 163.515 24.3679 163.416L24.0698 163.121L23.3741 162.53L22.6785 161.939L22.3803 161.643L22.0822 161.348C21.2871 160.559 20.3927 159.673 19.5977 158.885C19.2002 158.491 18.8026 157.998 18.4051 157.604C18.0076 157.21 17.7095 156.718 17.3119 156.324C16.9144 155.93 16.6163 155.437 16.2187 155.043C15.9206 154.551 15.5231 154.157 15.2249 153.763C14.6287 152.876 13.933 151.99 13.3367 151.005C12.1442 149.232 11.051 147.36 10.1565 145.489C9.16274 143.617 8.46708 141.745 7.77142 139.874C7.57266 139.381 7.47328 138.987 7.27452 138.495C7.17514 138.002 6.97639 137.608 6.877 137.116C6.77762 136.623 6.67824 136.229 6.47947 135.737C6.38009 135.244 6.28071 134.85 6.18133 134.358C5.98257 133.471 5.88319 132.486 5.68443 131.6C5.58505 130.713 5.48568 129.827 5.3863 128.94C5.28692 128.054 5.28691 127.167 5.28691 126.379C5.28691 125.985 5.28691 125.493 5.28691 125.099C5.28691 124.902 5.28691 124.704 5.28691 124.507C5.28691 124.31 5.28691 124.113 5.28691 123.916C5.38629 122.34 5.58505 120.764 5.78382 119.287C6.28072 116.43 6.97637 113.968 7.67203 111.899C8.3677 109.929 9.06337 108.353 9.56027 107.27C10.0572 106.186 10.3553 105.693 10.3553 105.693L10.2559 105.595C10.2559 105.595 10.1565 105.693 9.95778 105.89C9.75902 106.087 9.46089 106.481 9.06337 106.875C8.66585 107.368 8.16894 107.861 7.67203 108.649C7.37389 109.043 7.17515 109.338 6.877 109.831C6.57886 110.225 6.28071 110.717 5.98257 111.21C4.79001 113.081 3.49807 115.544 2.40489 118.499C1.90799 119.976 1.41108 121.651 1.01356 123.325C0.616036 125.099 0.317892 126.97 0.218512 128.94C0.218512 129.433 0.119141 129.925 0.119141 130.418C0.119141 130.91 0.119141 131.403 0.119141 131.994C0.119141 132.979 0.119132 134.062 0.218512 135.146C0.417272 137.313 0.715419 139.48 1.3117 141.745C1.41108 142.041 1.41108 142.336 1.51046 142.632C1.60984 142.927 1.70922 143.223 1.70922 143.42C1.90798 144.011 2.00736 144.504 2.20612 145.095C2.40488 145.686 2.60365 146.178 2.80241 146.769C3.00117 147.36 3.19992 147.853 3.49806 148.444C3.59745 148.739 3.69683 149.035 3.8956 149.232C3.99498 149.527 4.19373 149.823 4.29311 150.02C4.59125 150.611 4.79002 151.103 5.08816 151.694C5.68444 152.778 6.28071 153.861 6.97638 154.945C9.65964 159.18 12.9392 163.121 16.6163 166.667L16.9144 166.962L17.3119 167.356L18.0076 167.947L18.7033 168.538L19.0014 168.834L19.3989 169.129C20.3927 170.016 21.4859 170.902 22.4797 171.69C24.5667 173.266 26.7531 174.744 28.9394 176.123C33.3122 178.881 37.8837 181.245 42.3558 183.412C46.8279 185.579 51.3 187.648 55.474 189.618C59.7473 191.588 63.7225 193.459 67.499 195.429C71.2754 197.4 74.6544 199.271 77.6358 201.241C80.6172 203.211 83.2011 205.181 85.3875 207.053C87.4744 208.924 89.2633 210.697 90.4558 212.273C90.754 212.667 91.0521 213.061 91.3503 213.357C91.6484 213.751 91.8472 214.046 92.0459 214.342C92.2447 214.637 92.4434 214.933 92.6422 215.229C92.841 215.524 92.9403 215.721 93.1391 216.017C93.3379 216.312 93.4372 216.509 93.5366 216.706C93.7354 218.676 94.2323 220.646 94.7292 222.518C92.9403 221.533 91.1515 220.449 89.1639 219.464C86.1825 217.987 82.9029 216.608 79.4246 215.327C77.7352 214.736 75.9463 214.145 74.1575 213.554C72.3686 213.061 70.5798 212.569 68.6915 212.076C65.0145 211.19 61.3374 210.402 57.6603 209.614C55.8715 209.22 53.9833 208.826 52.2938 208.432C50.505 208.038 48.7161 207.545 47.0266 207.151L46.4304 206.954L45.8341 206.757C45.4366 206.659 45.039 206.56 44.6415 206.363C44.244 206.265 43.7471 206.068 43.3496 205.969L43.0514 205.871L42.7533 205.772L42.157 205.575C41.362 205.28 40.5669 204.984 39.7719 204.689C38.9768 204.295 38.2812 203.999 37.4861 203.605C34.6041 202.128 31.9208 200.453 29.7345 198.483C27.5481 196.513 25.6599 194.444 24.2686 192.179C22.8772 190.012 21.784 187.746 21.0884 185.678C20.3927 183.609 19.8958 181.738 19.5977 180.162C19.4983 179.768 19.4983 179.374 19.3989 179.078C19.2995 178.684 19.2995 178.388 19.2995 178.093C19.2002 177.502 19.2002 176.911 19.1008 176.517C19.0014 175.63 19.0014 175.138 19.0014 175.138C19.0014 175.138 19.0014 175.236 18.902 175.433C18.902 175.63 18.8026 176.024 18.7033 176.418C18.5045 177.305 18.3057 178.586 18.2064 180.26C18.107 181.048 18.107 182.033 18.2064 183.018C18.2064 183.511 18.3057 184.102 18.3057 184.594C18.4051 185.185 18.4051 185.678 18.5045 186.269C18.8026 188.633 19.4983 191.292 20.6909 193.952C21.2871 195.331 21.9828 196.71 22.9766 198.089C23.871 199.468 24.8648 200.749 26.0574 202.128C28.4425 204.689 31.2252 207.053 34.5047 209.023C36.0948 210.008 37.7843 210.894 39.5731 211.682L40.2688 211.978L40.5669 212.175L40.9644 212.372C41.362 212.569 41.7595 212.667 42.2564 212.864C42.6539 213.061 43.1508 213.16 43.6477 213.357L44.3434 213.653L45.039 213.849C48.7161 215.13 52.3932 216.115 56.0703 217.1C57.8591 217.593 59.6479 217.987 61.5362 218.479C63.325 218.972 65.1139 219.464 66.8033 219.957C69.2878 220.646 71.673 221.434 73.9587 222.222C73.7599 222.419 73.6606 222.518 73.4618 222.715C73.0643 223.109 72.7662 223.503 72.468 224.094C72.1699 224.586 71.8717 225.177 71.5736 225.965C71.3748 226.655 71.2754 227.443 71.2754 228.329C71.3748 229.216 71.5736 230.102 71.9711 230.891C72.3686 231.679 72.8655 232.467 73.4618 233.156C73.5612 233.255 73.5612 233.353 73.6606 233.353L73.7599 233.452L73.8593 233.55L73.9587 233.649L74.1575 233.846L74.2568 233.944L74.3562 234.043L74.6544 234.338C74.7537 234.437 74.8531 234.437 74.9525 234.535C75.1513 234.634 75.35 234.831 75.4494 234.929C76.9401 235.914 78.5302 236.604 80.1203 237.195C81.7104 237.687 83.3005 238.081 84.8905 238.377C86.4806 238.672 88.0707 238.869 89.5614 239.066C91.0521 239.263 92.5428 239.46 93.9342 239.559C96.7168 239.854 99.3007 240.15 101.388 240.445C103.475 240.741 105.065 241.135 106.158 241.43C106.655 241.627 107.052 241.726 107.351 241.824C107.649 241.923 107.748 242.021 107.748 242.021L107.847 241.923C114.307 246.946 122.456 250 131.301 250C140.146 250 148.295 246.946 154.755 241.923L154.854 242.021C154.854 242.021 154.954 241.923 155.252 241.824C155.55 241.726 155.947 241.627 156.444 241.43C157.538 241.135 159.128 240.741 161.215 240.445C163.302 240.15 165.885 239.854 168.668 239.559C170.059 239.362 171.55 239.263 173.041 239.066C174.532 238.869 176.122 238.672 177.712 238.377C179.302 238.081 180.892 237.687 182.482 237.195C184.072 236.702 185.662 236.013 187.153 234.929C187.352 234.831 187.55 234.634 187.65 234.535C187.749 234.437 187.849 234.437 187.948 234.338L188.246 234.043L188.345 233.944L188.445 233.846L188.644 233.649L188.743 233.55L188.842 233.452L188.942 233.353C189.041 233.255 189.041 233.156 189.14 233.156C189.737 232.467 190.234 231.777 190.631 230.891C191.029 230.102 191.227 229.216 191.327 228.329C191.327 227.443 191.227 226.655 191.029 225.965C190.83 225.276 190.532 224.685 190.134 224.094C189.836 223.601 189.439 223.109 189.14 222.715C188.942 222.518 188.842 222.419 188.644 222.222C190.929 221.434 193.314 220.646 195.799 219.957C197.488 219.464 199.277 218.972 201.066 218.479C202.855 217.987 204.644 217.593 206.532 217.1C210.209 216.115 213.886 215.13 217.563 213.849L218.259 213.653L218.955 213.357C219.451 213.16 219.849 213.061 220.346 212.864C220.743 212.667 221.24 212.569 221.638 212.372L222.035 212.175L222.333 211.978L223.029 211.682C224.818 210.894 226.507 210.008 228.098 209.023C231.377 207.053 234.16 204.787 236.545 202.128C237.737 200.847 238.731 199.468 239.626 198.089C240.52 196.71 241.216 195.331 241.812 193.952C243.005 191.194 243.7 188.534 243.998 186.269C244.098 185.678 244.098 185.087 244.197 184.594C244.197 184.003 244.297 183.511 244.297 183.018C244.297 182.033 244.297 181.048 244.297 180.26C244.197 178.586 243.998 177.305 243.8 176.418C243.7 176.024 243.601 175.63 243.601 175.433C243.501 175.236 243.502 175.138 243.502 175.138C243.502 175.138 243.502 175.63 243.402 176.517C243.402 176.911 243.303 177.502 243.203 178.093C243.203 178.388 243.104 178.783 243.104 179.078C243.005 179.472 243.005 179.768 242.905 180.162C242.607 181.738 242.21 183.609 241.415 185.678C240.719 187.746 239.626 190.012 238.234 192.179C236.843 194.346 234.955 196.513 232.768 198.483C230.483 200.453 227.899 202.128 225.017 203.605C224.321 203.999 223.526 204.295 222.731 204.689C221.936 204.984 221.24 205.378 220.346 205.575L219.75 205.772L219.451 205.871L219.153 205.969C218.756 206.068 218.259 206.265 217.861 206.363C217.464 206.462 217.066 206.659 216.669 206.757L216.073 206.954L215.476 207.151C213.787 207.644 211.998 208.038 210.209 208.432C208.42 208.826 206.631 209.22 204.843 209.614C201.165 210.402 197.488 211.19 193.811 212.076C192.023 212.569 190.134 213.061 188.345 213.554C186.557 214.145 184.768 214.637 183.078 215.327C179.6 216.608 176.32 217.987 173.339 219.464C171.351 220.449 169.463 221.434 167.774 222.518C168.37 220.646 168.768 218.676 168.966 216.706C169.066 216.509 169.264 216.312 169.364 216.017C169.463 215.82 169.662 215.524 169.861 215.229C170.059 214.933 170.258 214.637 170.457 214.342C170.656 214.046 170.954 213.652 171.153 213.357C171.451 212.963 171.749 212.667 172.047 212.273C173.24 210.697 175.028 208.924 177.115 207.053C179.202 205.181 181.786 203.211 184.867 201.241C187.849 199.271 191.327 197.301 195.004 195.429C198.78 193.459 202.756 191.588 207.029 189.618C211.302 187.648 215.675 185.579 220.147 183.412C224.619 181.245 229.191 178.783 233.563 176.123C235.75 174.744 237.936 173.266 240.023 171.69C241.017 170.902 242.11 170.016 243.104 169.129L243.502 168.834L243.8 168.538L244.495 167.947L245.191 167.356L245.588 166.962L245.887 166.667C249.564 163.022 252.943 159.18 255.527 154.945C256.222 153.861 256.819 152.778 257.415 151.694C257.713 151.103 257.912 150.611 258.21 150.02C258.309 149.724 258.508 149.429 258.607 149.232C258.707 148.936 258.806 148.641 259.005 148.444C259.204 147.853 259.502 147.36 259.701 146.769C259.899 146.178 260.098 145.686 260.297 145.095C260.496 144.504 260.595 144.011 260.794 143.42C260.893 143.125 260.992 142.829 260.992 142.632C261.092 142.336 261.092 142.041 261.191 141.745C261.788 139.48 262.086 137.313 262.284 135.146C262.384 134.062 262.384 132.979 262.384 131.994C263.179 131.403 263.179 130.91 263.179 130.418ZM90.9528 231.974C89.462 231.876 87.9713 231.876 86.58 231.679C85.1887 231.58 83.7974 231.383 82.5054 231.186C81.2135 230.989 80.0209 230.595 79.0271 230.102C78.9277 230.004 78.8283 230.004 78.6296 229.905L78.3314 229.708C78.3314 229.708 78.3314 229.708 78.2321 229.708L78.1327 229.61L77.9339 229.413L77.8345 229.314C77.7352 229.314 77.7351 229.216 77.6358 229.216C77.2382 228.92 76.8407 228.625 76.642 228.329C76.3438 228.034 76.1451 227.738 76.0457 227.344C75.8469 226.95 75.8469 226.655 75.7475 226.162C75.6482 225.374 75.8469 224.389 76.1451 223.601C76.2444 223.207 76.4432 222.912 76.5426 222.616C76.8407 222.715 77.1389 222.813 77.437 222.912C78.2321 223.207 79.0271 223.503 79.7228 223.798C80.1203 223.995 80.5178 224.094 80.9153 224.291C81.3129 224.488 81.7104 224.586 82.0085 224.783C82.406 224.98 82.7042 225.079 83.1017 225.276C83.4992 225.473 83.7973 225.571 84.1949 225.768C84.5924 225.965 84.8905 226.064 85.2881 226.261C85.6856 226.458 85.9837 226.556 86.2819 226.753C89.0645 228.132 91.549 229.511 93.8348 230.891C94.4311 231.186 94.9279 231.58 95.5242 231.876C95.4248 231.876 95.3255 231.876 95.2261 231.876C93.9342 232.073 92.4435 231.974 90.9528 231.974ZM112.419 235.52C112.021 235.126 111.624 234.831 111.127 234.338C110.729 233.944 110.233 233.55 109.736 233.058C104.568 227.64 101.388 220.351 101.388 212.273C101.388 195.528 115.102 181.935 131.997 181.935C148.891 181.935 162.606 195.528 162.606 212.273C162.606 220.351 159.426 227.64 154.258 233.058C153.761 233.55 153.264 233.944 152.867 234.338C152.37 234.831 151.972 235.225 151.674 235.52C146.407 239.953 139.55 242.612 132.096 242.612C124.543 242.612 117.785 239.953 112.419 235.52ZM177.612 226.95C177.911 226.753 178.308 226.655 178.606 226.458C179.004 226.261 179.302 226.162 179.699 225.965C180.097 225.768 180.395 225.67 180.793 225.473C181.19 225.276 181.488 225.177 181.886 224.98C182.283 224.783 182.581 224.685 182.979 224.488C183.376 224.291 183.774 224.192 184.171 223.995C184.967 223.7 185.762 223.404 186.457 223.109C186.755 223.01 187.054 222.912 187.352 222.813C187.451 223.109 187.65 223.503 187.749 223.798C188.047 224.586 188.246 225.473 188.147 226.359C188.147 226.753 188.047 227.147 187.849 227.541C187.749 227.935 187.451 228.231 187.252 228.526C186.954 228.822 186.656 229.117 186.258 229.413C186.258 229.413 186.159 229.511 186.06 229.511H186.159L185.96 229.708L185.861 229.807C185.861 229.807 185.861 229.807 185.762 229.807L185.463 230.004C185.364 230.102 185.265 230.102 185.066 230.201C184.072 230.693 182.88 230.989 181.588 231.284C180.296 231.481 178.904 231.678 177.513 231.777C176.122 231.875 174.631 231.974 173.14 232.072C171.65 232.171 170.159 232.171 168.768 232.27C168.668 232.27 168.569 232.27 168.469 232.27C168.966 231.974 169.563 231.58 170.159 231.284C172.345 229.708 174.929 228.231 177.612 226.95Z" fill="#505E69"/>
<g clip-path="url(#clip0_573_1488)">
<g clip-path="url(#clip1_573_1488)">
<path d="M134.138 194H164.269C165.088 194 165.779 193.393 165.883 192.581L170.744 154.949H127.664L132.524 192.581C132.629 193.393 133.32 194 134.138 194Z" fill="#505E69"/>
<path d="M127.295 123.8C130.309 125.69 133.817 126.642 137.373 126.536C140.138 126.514 142.888 126.118 145.546 125.357C146.531 127.888 147.188 130.535 147.499 133.234L147.554 137.051H124.797C124.329 137.051 123.883 137.252 123.574 137.604C123.265 137.956 123.123 138.424 123.183 138.888L124.665 150.278C124.771 151.088 125.461 151.694 126.278 151.695H172.13C172.947 151.694 173.637 151.088 173.742 150.278L175.225 138.888C175.285 138.424 175.143 137.956 174.834 137.604C174.524 137.252 174.079 137.051 173.611 137.051H150.831L150.909 133.24C151.205 130.538 151.862 127.887 152.862 125.358C155.52 126.118 158.269 126.514 161.033 126.536C164.589 126.642 168.097 125.69 171.111 123.8C178.922 118.572 180.061 106.533 180.111 106.022C180.113 105.923 180.106 105.824 180.088 105.727C180.087 105.662 180.082 105.598 180.074 105.534C180.032 105.339 179.956 105.154 179.847 104.987V104.974C179.831 104.949 179.805 104.938 179.789 104.915C179.69 104.783 179.572 104.665 179.439 104.567C179.378 104.528 179.314 104.493 179.249 104.461C179.184 104.418 179.115 104.38 179.044 104.347C178.575 104.185 167.458 100.288 159.616 105.538C152.564 110.257 150.951 120.508 150.667 122.835C149.998 123.751 149.502 124.782 149.202 125.876C148.901 124.778 148.405 123.743 147.738 122.82C147.453 120.474 145.832 110.252 138.789 105.538C130.954 100.289 119.838 104.183 119.367 104.346C119.296 104.378 119.228 104.416 119.162 104.46C119.097 104.491 119.034 104.526 118.974 104.565C118.839 104.663 118.721 104.78 118.622 104.914C118.606 104.936 118.58 104.948 118.564 104.972V104.985C118.455 105.152 118.379 105.337 118.337 105.532C118.329 105.596 118.324 105.661 118.323 105.726C118.301 105.823 118.29 105.922 118.289 106.022C118.341 106.533 119.486 118.572 127.295 123.8ZM132.933 145.186H129.678C128.78 145.186 128.051 144.458 128.051 143.559C128.051 142.661 128.78 141.932 129.678 141.932H132.933C133.831 141.932 134.56 142.661 134.56 143.559C134.56 144.458 133.831 145.186 132.933 145.186ZM150.831 141.932C151.73 141.932 152.458 142.661 152.458 143.559C152.458 144.458 151.73 145.186 150.831 145.186H139.441C138.542 145.186 137.814 144.458 137.814 143.559C137.814 142.661 138.542 141.932 139.441 141.932H150.831Z" fill="#505E69"/>
<path d="M97.1361 132.918C99.1488 134.08 101.628 134.081 103.642 132.92C105.655 131.759 106.896 129.612 106.899 127.288V104.508C106.899 100.914 103.985 98 100.39 98C96.7958 98 93.8818 100.914 93.8818 104.508V127.288C93.8775 129.613 95.1195 131.761 97.1361 132.918ZM100.39 102.881C101.289 102.881 102.017 103.61 102.017 104.508C102.017 105.407 101.289 106.136 100.39 106.136C99.4917 106.136 98.7632 105.407 98.7632 104.508C98.7632 103.61 99.4917 102.881 100.39 102.881Z" fill="#505E69"/>
<path d="M97.1361 136.481V142.079C97.1486 142.092 97.1545 142.11 97.1524 142.127C98.0473 151.077 99.4954 155.421 100.39 156.43C101.285 155.421 102.733 151.077 103.628 142.127C103.626 142.11 103.632 142.092 103.645 142.079V136.481C101.542 137.241 99.2392 137.241 97.1361 136.481Z" fill="#505E69"/>
<path d="M100.39 192.373C108.526 192.373 116.662 168.292 116.662 156.344C116.662 147.394 112.563 143.759 106.721 142.513C105.075 159.831 101.793 159.831 100.39 159.831C98.9878 159.831 95.7059 159.831 94.0592 142.505C88.2179 143.759 84.1191 147.386 84.1191 156.335C84.1191 168.292 92.2547 192.373 100.39 192.373Z" fill="#505E69"/>
</g>
</g>
<defs>
<clipPath id="clip0_573_1488">
<rect width="96" height="96" fill="white" transform="translate(84.1191 98)"/>
</clipPath>
<clipPath id="clip1_573_1488">
<rect width="96" height="96" fill="white" transform="translate(84.1191 98)"/>
</clipPath>
</defs>
</svg>
