<svg width="264" height="250" viewBox="0 0 264 250" fill="none" xmlns="http://www.w3.org/2000/svg">
<path opacity="0.05" fill-rule="evenodd" clip-rule="evenodd" d="M263.239 130.418C263.239 129.925 263.139 129.433 263.139 128.94C263.04 126.97 262.742 125.099 262.344 123.325C261.947 121.552 261.45 119.976 260.953 118.499C259.86 115.544 258.568 113.081 257.375 111.21C257.077 110.717 256.779 110.323 256.481 109.831C256.183 109.437 255.984 109.043 255.686 108.649C255.189 107.959 254.692 107.368 254.294 106.875C253.897 106.383 253.599 106.087 253.4 105.89C253.201 105.693 253.102 105.595 253.102 105.595L253.002 105.693C253.002 105.693 253.3 106.284 253.797 107.27C254.294 108.353 254.99 109.831 255.686 111.899C256.381 113.968 257.077 116.43 257.574 119.287C257.773 120.764 258.071 122.242 258.071 123.916C258.071 124.113 258.071 124.31 258.071 124.507C258.071 124.704 258.071 124.902 258.071 125.099C258.071 125.493 258.071 125.887 258.071 126.379C258.071 127.266 258.071 128.054 257.971 128.94C257.971 129.827 257.773 130.713 257.673 131.6C257.574 132.486 257.375 133.373 257.176 134.358C257.077 134.85 256.978 135.244 256.878 135.737C256.779 136.229 256.679 136.623 256.481 137.116C256.381 137.608 256.182 138.002 256.083 138.495C255.984 138.987 255.785 139.381 255.586 139.874C254.891 141.745 254.195 143.617 253.201 145.489C252.307 147.36 251.214 149.232 250.021 151.005C249.425 151.891 248.828 152.778 248.133 153.763C247.835 154.255 247.437 154.649 247.139 155.043C246.841 155.437 246.443 155.93 246.046 156.324C245.648 156.718 245.35 157.21 244.953 157.604C244.555 157.998 244.157 158.491 243.76 158.885C242.965 159.771 242.17 160.559 241.275 161.348L240.977 161.643L240.679 161.939L239.984 162.53L239.288 163.121L238.99 163.416C238.89 163.515 238.791 163.613 238.692 163.712C237.797 164.401 237.002 165.189 236.008 165.879C234.12 167.356 232.132 168.637 230.145 169.917C226.07 172.478 221.698 174.645 217.325 176.812C212.952 178.98 208.579 180.95 204.306 182.92C200.033 184.89 195.859 186.86 191.983 188.928C188.107 190.997 184.43 193.065 181.15 195.134C177.871 197.301 174.989 199.468 172.604 201.635C171.212 202.916 170.02 204.098 168.927 205.181C168.43 202.719 167.734 200.355 166.84 198.089C166.939 197.892 167.038 197.597 167.138 197.301C167.535 196.02 168.231 194.05 169.225 191.686C169.523 191.095 169.821 190.504 170.119 189.815C170.318 189.519 170.417 189.125 170.616 188.83C170.815 188.534 171.014 188.14 171.113 187.845C171.51 187.155 171.809 186.466 172.306 185.678C172.703 184.988 173.2 184.2 173.697 183.412C175.684 180.359 178.169 177.108 181.25 173.857C184.331 170.508 187.908 167.159 191.983 163.81C196.057 160.461 200.53 157.013 205.2 153.467C209.871 149.921 214.741 146.178 219.611 142.139C220.803 141.154 221.996 140.071 223.188 138.987C223.785 138.495 224.381 137.904 224.977 137.411C225.573 136.82 226.17 136.328 226.766 135.737C229.052 133.471 231.337 131.206 233.524 128.743C234.021 128.152 234.617 127.561 235.114 126.872L236.605 125L237.4 124.015C237.698 123.719 237.897 123.325 238.095 123.03L239.487 121.06C239.984 120.37 240.381 119.681 240.878 118.991C241.275 118.302 241.772 117.612 242.17 116.923C242.567 116.233 242.965 115.445 243.462 114.756L244.058 113.672L244.356 113.18L244.654 112.687C244.953 111.998 245.35 111.308 245.648 110.619L246.145 109.634L246.244 109.535L246.344 109.338V109.24L246.443 108.944L246.642 108.353C246.94 107.664 247.338 106.875 247.636 106.186C247.934 105.496 248.232 104.708 248.53 103.92L248.928 102.837C249.027 102.443 249.226 102.049 249.325 101.753C249.623 100.965 249.822 100.276 250.12 99.4878C250.319 98.6998 250.518 98.0103 250.717 97.2222C250.915 96.4342 251.114 95.7447 251.313 94.9567C251.412 94.5626 251.512 94.1687 251.512 93.7746L251.611 93.1836L251.71 92.5926C251.81 91.8046 251.909 91.0166 252.009 90.327C252.108 88.751 252.307 87.2734 252.307 85.6974C252.307 82.6438 252.009 79.6887 251.412 76.8322C250.816 73.9756 249.922 71.316 248.828 68.8534C247.735 66.3909 246.344 64.1253 244.953 62.0567C243.561 59.9882 241.971 58.2151 240.381 56.6391C239.984 56.2451 239.586 55.8511 239.188 55.457C238.791 55.063 238.393 54.7675 237.996 54.3735C237.797 54.1765 237.598 53.9795 237.4 53.881C237.201 53.684 237.002 53.5855 236.803 53.3885C236.406 53.093 236.008 52.699 235.611 52.4035C235.213 52.108 234.816 51.8124 234.418 51.5169C234.219 51.4184 234.021 51.2214 233.822 51.1229C233.623 51.0244 233.424 50.8274 233.226 50.7289C232.828 50.4334 232.431 50.2364 232.132 49.9409C231.735 49.7439 231.337 49.4484 231.039 49.2514C230.344 48.7589 229.549 48.4633 228.952 48.0693C228.257 47.6753 227.561 47.3798 226.965 47.0843C226.368 46.7888 225.772 46.4933 225.176 46.2963C224.58 46.0008 224.083 45.8038 223.586 45.6068C222.592 45.2128 221.698 44.9173 221.002 44.7202C220.306 44.5232 219.71 44.3262 219.412 44.2277C219.014 44.1292 218.815 44.0307 218.815 44.0307C218.815 44.0307 219.014 44.1292 219.312 44.3262C219.611 44.5232 220.207 44.7202 220.803 45.1143C222.095 45.8038 223.983 46.8873 226.17 48.4634C226.766 48.8574 227.362 49.2514 227.859 49.7439C228.455 50.2364 229.052 50.6304 229.648 51.2214C229.946 51.5169 230.244 51.7139 230.642 52.0094C230.94 52.305 231.238 52.6005 231.636 52.896C231.834 52.9945 231.934 53.1915 232.132 53.29C232.331 53.487 232.431 53.5855 232.629 53.7825C232.928 54.078 233.226 54.3735 233.623 54.7675C234.915 56.1466 236.207 57.5256 237.4 59.2002C237.698 59.5942 237.996 59.9882 238.294 60.4807C238.592 60.8747 238.89 61.3672 239.188 61.7612C239.487 62.2538 239.785 62.6478 240.083 63.1403C240.381 63.6328 240.58 64.1253 240.878 64.6178C241.872 66.5879 242.866 68.6564 243.561 70.922C244.257 73.1876 244.754 75.5516 245.052 78.0142C245.35 80.4768 245.35 83.0378 245.151 85.5989C245.151 86.8794 244.953 88.16 244.754 89.539C244.555 90.8195 244.356 92.1986 244.058 93.4791C243.859 94.8582 243.462 96.1387 243.064 97.5177C242.866 98.2073 242.667 98.8968 242.468 99.4878C242.369 99.7833 242.269 100.177 242.17 100.473L241.772 101.458C241.474 102.147 241.275 102.837 240.977 103.428C240.679 104.117 240.381 104.708 240.083 105.398L239.884 105.89L239.785 106.186V106.284L239.685 106.383L239.188 107.368C238.791 108.058 238.493 108.747 238.095 109.437L237.797 109.929L237.499 110.422L237.002 111.308C236.605 111.899 236.306 112.589 235.909 113.18C235.511 113.771 235.114 114.46 234.716 115.051C234.319 115.642 233.921 116.332 233.424 116.923L232.132 118.696C231.934 118.991 231.735 119.287 231.437 119.582L230.741 120.469L229.35 122.242C228.853 122.833 228.356 123.424 227.859 123.916C225.872 126.182 223.785 128.349 221.598 130.418C221.002 130.91 220.505 131.403 219.909 131.994C219.312 132.486 218.816 133.077 218.219 133.57C217.027 134.555 215.933 135.54 214.741 136.525C210.07 140.465 205.3 144.11 200.629 147.656C195.958 151.202 191.387 154.748 187.113 158.195C182.84 161.742 179.063 165.288 175.684 168.932C172.405 172.577 169.622 176.123 167.436 179.571C166.939 180.457 166.442 181.245 165.945 182.033C165.448 182.821 165.051 183.708 164.653 184.397C164.454 184.791 164.256 185.185 164.057 185.481C163.858 185.875 163.659 186.269 163.56 186.564C163.262 187.254 162.864 187.943 162.566 188.633C162.467 188.928 162.268 189.322 162.169 189.618C160.479 187.352 158.492 185.284 156.405 183.511C156.405 183.412 156.405 183.412 156.405 183.314C156.206 181.935 155.908 179.866 156.107 177.305C156.206 174.744 156.802 171.592 158.094 168.144C159.386 164.697 161.374 160.757 163.858 156.619C165.15 154.551 166.541 152.384 168.032 150.217C169.523 148.05 171.113 145.784 172.802 143.42C174.492 141.154 176.181 138.692 178.07 136.328C179.858 133.865 181.747 131.403 183.635 128.94C187.411 123.916 191.287 118.597 195.064 113.081C195.958 111.702 196.952 110.323 197.846 108.846C198.741 107.368 199.635 105.989 200.53 104.511C201.424 103.034 202.219 101.556 203.113 100.079C203.511 99.3893 203.908 98.6012 204.306 97.8132L205.499 95.5477C208.679 89.4405 211.362 82.9393 213.051 76.2411C213.449 74.5666 213.846 72.892 214.145 71.2175C214.443 69.5429 214.741 67.8684 214.94 66.1939C215.039 65.3073 215.138 64.5193 215.138 63.7313C215.138 63.3373 215.238 62.9433 215.238 62.4507C215.238 62.0567 215.337 61.6627 215.337 61.1702C215.437 59.4957 215.437 57.8211 215.536 56.1466C215.536 54.5705 215.437 52.9945 215.437 51.5169V51.4185V51.2214V51.1229V50.8274V50.2364C215.437 49.8424 215.337 49.4484 215.337 49.0544C215.238 48.2663 215.138 47.3798 215.039 46.5918C214.542 43.3412 213.648 40.2876 212.455 37.431C211.263 34.5745 209.673 31.9149 207.983 29.6493C206.194 27.2853 204.306 25.3152 202.219 23.5422C198.144 19.9961 193.772 17.7305 189.697 16.3515C188.703 15.9575 187.709 15.662 186.716 15.4649C185.722 15.2679 184.827 14.9724 183.933 14.8739C182.144 14.4799 180.455 14.3814 178.964 14.2829C178.169 14.2829 177.473 14.1844 176.778 14.2829C176.082 14.2829 175.486 14.2829 174.889 14.3814C174.293 14.4799 173.796 14.4799 173.299 14.4799C172.802 14.5784 172.405 14.5784 172.007 14.6769C171.809 14.6769 171.61 14.7754 171.411 14.7754C171.212 14.7754 171.113 14.8739 170.914 14.8739C170.616 14.9724 170.417 14.9724 170.119 15.0709C169.722 15.1694 169.523 15.1694 169.523 15.1694C169.523 15.1694 169.722 15.1694 170.119 15.1694C170.318 15.1694 170.616 15.1694 170.914 15.1694C171.113 15.1694 171.212 15.1694 171.411 15.1694C171.61 15.1694 171.809 15.1694 172.007 15.1694C173.597 15.2679 175.883 15.4649 178.666 16.0559C179.063 16.1544 179.362 16.253 179.759 16.3515C180.157 16.45 180.554 16.5485 180.852 16.647C181.647 16.844 182.442 17.1395 183.237 17.435C184.827 18.026 186.616 18.7155 188.306 19.602C190.095 20.4886 191.883 21.5721 193.672 22.7541C194.07 23.0497 194.567 23.4437 194.964 23.7392C195.362 24.0347 195.859 24.4287 196.256 24.8227C197.151 25.5122 197.946 26.3002 198.84 27.1868C202.12 30.5359 205.101 34.7715 206.989 39.6966C207.884 42.1592 208.579 44.8187 208.977 47.5768C209.076 48.2663 209.076 48.9559 209.176 49.6454C209.176 50.0394 209.176 50.3349 209.176 50.7289V51.2214L209.076 51.5169H208.977L209.076 51.6154C209.076 53.1915 209.076 54.669 209.076 56.2451C208.977 57.7226 208.877 59.2002 208.778 60.7762C208.778 61.1702 208.679 61.5642 208.679 61.9582C208.579 62.3522 208.579 62.7463 208.579 63.1403C208.48 63.9283 208.381 64.7163 208.281 65.4058C208.082 66.9819 207.685 68.4594 207.387 69.937C206.989 71.4145 206.592 72.9906 206.194 74.4681C204.405 80.4768 201.921 86.4854 198.84 92.1986C195.759 97.9118 192.182 103.428 188.405 108.747C184.629 114.066 180.852 119.287 177.076 124.212C176.082 125.493 175.188 126.675 174.293 127.955C173.399 129.236 172.405 130.418 171.51 131.6C169.722 134.062 167.933 136.426 166.243 138.79C164.554 141.154 162.864 143.519 161.374 145.784C159.883 148.05 158.392 150.315 157.001 152.581C154.318 157.013 152.131 161.348 150.641 165.583C149.15 169.72 148.554 173.759 148.454 177.009C148.454 177.502 148.454 177.896 148.454 178.389C144.479 176.418 140.305 175.236 135.634 174.744C135.634 174.251 135.634 173.66 135.734 173.069C135.734 172.478 135.734 171.789 135.833 171.198C135.833 170.508 135.932 169.819 135.932 169.129C135.932 168.932 135.932 168.735 135.932 168.538C135.932 168.341 135.932 168.144 136.032 167.947C136.032 167.553 136.131 167.159 136.131 166.765C136.23 165.189 136.529 163.515 136.727 161.742C137.324 158.097 138.218 154.058 139.51 149.724C140.802 145.39 142.491 140.662 144.479 135.737C146.467 130.812 148.752 125.69 151.138 120.272C153.523 114.953 156.107 109.338 158.492 103.625C160.976 97.9118 163.262 91.9031 165.349 85.8944C167.436 79.7872 169.225 73.5816 170.517 67.3759C170.715 66.5879 170.815 65.7998 171.014 65.0118C171.212 64.2238 171.312 63.4358 171.411 62.6478C171.51 61.8597 171.709 61.0717 171.809 60.2837C171.908 59.4957 172.007 58.8061 172.107 58.0181C172.206 57.2301 172.306 56.4421 172.405 55.7526C172.504 54.9645 172.604 54.1765 172.604 53.3885C172.703 51.8125 172.802 50.2364 172.802 48.6604C172.802 45.5083 172.604 42.4547 172.206 39.4996C171.809 36.5445 171.113 33.6879 170.318 30.9299C169.523 28.1718 168.529 25.6107 167.337 23.1481C166.144 20.7841 164.852 18.5185 163.461 16.45C163.063 15.9575 162.765 15.4649 162.367 14.9724C161.97 14.4799 161.672 13.9874 161.274 13.5934C160.479 12.7068 159.784 11.8203 158.989 11.0323C158.591 10.6383 158.194 10.2443 157.796 9.85028C157.398 9.45627 157.001 9.06225 156.603 8.76674C155.808 8.07722 155.013 7.3877 154.218 6.79668C153.423 6.20567 152.628 5.71317 151.833 5.12216C151.436 4.82665 151.038 4.62963 150.641 4.43262C150.243 4.23562 149.846 3.9401 149.448 3.74309C149.051 3.54609 148.653 3.34911 148.355 3.1521C147.957 2.95509 147.56 2.85659 147.262 2.65959C146.864 2.46258 146.566 2.36408 146.169 2.16707C145.771 2.06857 145.473 1.87154 145.175 1.77304C142.491 0.78801 140.305 0.394023 138.814 0.197018C138.119 0.0985148 137.522 0.0985028 137.125 0C136.727 0 136.529 0 136.529 0C136.529 0 136.727 0.0985148 137.125 0.197018C137.324 0.29552 137.522 0.295502 137.821 0.394005C138.119 0.492508 138.417 0.591029 138.715 0.689531C139.411 0.98504 140.305 1.18205 141.199 1.67456C141.398 1.77306 141.696 1.87155 141.995 1.97006C142.293 2.06856 142.491 2.26556 142.79 2.36406C143.088 2.46256 143.386 2.65956 143.585 2.75807C143.883 2.85657 144.181 3.05357 144.479 3.25058C146.864 4.53112 149.547 6.40269 152.131 9.06227C152.827 9.65328 153.423 10.4413 154.119 11.1308C154.417 11.5248 154.715 11.9188 155.113 12.3128C155.411 12.7069 155.709 13.1009 156.007 13.4949C157.2 15.1694 158.392 16.9425 159.485 18.9125C160.579 20.8826 161.572 23.0497 162.367 25.3152C163.163 27.5808 163.858 29.9448 164.454 32.5059C165.548 37.5296 165.945 42.9472 165.647 48.4634C165.548 49.8424 165.448 51.2214 165.25 52.699C165.15 53.3885 165.051 54.078 164.951 54.7675C164.852 55.4571 164.753 56.2451 164.554 56.9346C164.454 57.7226 164.256 58.4121 164.156 59.2002C163.958 59.8897 163.858 60.6777 163.659 61.3672C163.461 62.0567 163.361 62.8448 163.163 63.5343C162.964 64.2238 162.765 65.0118 162.666 65.7014C161.175 71.513 159.386 77.4232 157.299 83.2348C155.212 89.0465 152.827 94.7597 150.342 100.374C147.858 105.989 145.274 111.505 142.889 116.923C140.504 122.34 138.119 127.561 136.131 132.683C134.342 137.214 132.752 141.647 131.56 145.883C130.367 141.647 128.777 137.214 126.988 132.683C125 127.561 122.615 122.242 120.23 116.923C117.845 111.505 115.261 105.989 112.777 100.374C110.292 94.7597 107.907 89.0465 105.82 83.2348C103.634 77.4232 101.845 71.6115 100.454 65.7014C100.255 65.0118 100.056 64.2238 99.9567 63.5343C99.7579 62.8448 99.6585 62.0567 99.4598 61.3672C99.261 60.6777 99.1616 59.8897 98.9629 59.2002C98.8635 58.4121 98.6647 57.7226 98.5653 56.9346C98.4659 56.2451 98.2672 55.4571 98.1678 54.7675C98.0684 54.078 97.9691 53.3885 97.8697 52.699C97.6709 51.3199 97.5715 49.9409 97.4722 48.4634C97.174 42.9472 97.5715 37.431 98.6647 32.5059C99.1616 30.0433 99.8573 27.5808 100.752 25.3152C101.547 23.0497 102.541 20.9811 103.634 18.9125C104.727 16.9425 105.919 15.1694 107.112 13.4949C107.41 13.1009 107.708 12.7069 108.006 12.3128C108.305 11.9188 108.603 11.5248 109 11.1308C109.696 10.4413 110.292 9.65328 110.988 9.06227C113.572 6.40269 116.354 4.62962 118.64 3.25058C118.938 3.05357 119.236 2.95507 119.535 2.75807C119.833 2.65956 120.131 2.46256 120.33 2.36406C120.628 2.26556 120.827 2.06856 121.125 1.97006C121.423 1.87155 121.622 1.77306 121.92 1.67456C122.913 1.28055 123.709 0.98504 124.404 0.689531C124.702 0.591029 125.1 0.492508 125.299 0.394005C125.597 0.295502 125.796 0.29552 125.994 0.197018C126.392 0.0985148 126.591 0 126.591 0C126.591 0 126.392 0 125.994 0C125.597 0 125.001 0.0985148 124.305 0.197018C122.814 0.394023 120.628 0.78801 117.944 1.77304C117.646 1.87154 117.249 2.06857 116.951 2.16707C116.653 2.26558 116.255 2.46258 115.858 2.65959C115.46 2.85659 115.162 2.95509 114.764 3.1521C114.367 3.34911 114.069 3.54609 113.671 3.74309C113.274 3.9401 112.876 4.13712 112.479 4.43262C112.081 4.62963 111.684 4.92515 111.286 5.12216C110.491 5.61467 109.696 6.10717 108.901 6.79668C108.106 7.3877 107.311 8.07722 106.516 8.76674C106.118 9.16075 105.721 9.45627 105.323 9.85028C104.926 10.2443 104.528 10.6383 104.131 11.0323C103.336 11.8203 102.64 12.7068 101.845 13.5934C101.447 14.0859 101.149 14.5784 100.752 14.9724C100.354 15.4649 100.056 15.9575 99.6585 16.45C98.2672 18.5185 96.9753 20.7841 95.7827 23.1481C94.5901 25.6107 93.6957 28.1718 92.8013 30.9299C92.0062 33.6879 91.3106 36.5445 90.9131 39.4996C90.5155 42.4547 90.3168 45.5083 90.3168 48.6604C90.3168 50.2364 90.4162 51.8125 90.5155 53.3885C90.6149 54.1765 90.7143 54.9645 90.7143 55.7526C90.8137 56.5406 90.9131 57.3286 91.0124 58.0181C91.1118 58.8061 91.2112 59.4957 91.3106 60.2837C91.41 61.0717 91.6087 61.8597 91.7081 62.6478C91.8075 63.4358 92.0062 64.2238 92.1056 65.0118C92.3044 65.7998 92.4037 66.5879 92.6025 67.3759C93.8944 73.5816 95.6833 79.7872 97.7703 85.8944C99.8573 92.0016 102.242 97.9118 104.628 103.625C107.013 109.437 109.597 114.953 111.982 120.272C114.367 125.591 116.653 130.812 118.64 135.737C120.628 140.662 122.317 145.39 123.609 149.724C124.901 154.058 125.796 158.097 126.392 161.742C126.69 163.515 126.889 165.189 126.988 166.765C126.988 167.159 127.087 167.553 127.087 167.947C127.087 168.144 127.087 168.341 127.187 168.538C127.187 168.735 127.187 168.932 127.187 169.129C127.187 169.819 127.286 170.508 127.286 171.198C127.286 171.789 127.386 172.478 127.386 173.069C127.386 173.66 127.386 174.251 127.386 174.744C122.814 175.236 118.441 176.418 114.566 178.389C114.566 177.994 114.566 177.502 114.566 177.009C114.466 173.759 113.87 169.72 112.379 165.583C110.889 161.348 108.702 157.013 106.019 152.581C104.727 150.315 103.236 148.05 101.646 145.784C100.056 143.519 98.466 141.154 96.7765 138.79C95.087 136.426 93.2982 134.062 91.5093 131.6C90.6149 130.418 89.7205 129.137 88.7267 127.955C87.8323 126.773 86.8385 125.493 85.944 124.212C82.1676 119.287 78.2918 114.066 74.6147 108.747C70.9376 103.428 67.2606 97.9118 64.1798 92.1986C61.099 86.4854 58.5151 80.5753 56.8256 74.4681C56.4281 72.9906 56.0306 71.4145 55.633 69.937C55.3349 68.3609 55.0368 66.8834 54.7386 65.4058C54.6392 64.6178 54.5399 63.8298 54.4405 63.1403C54.4405 62.7463 54.3411 62.3522 54.3411 61.9582C54.3411 61.5642 54.2417 61.1702 54.2417 60.7762C54.1423 59.2987 54.0429 57.8211 53.9436 56.2451C53.9436 54.669 53.7448 53.093 53.7448 51.6154L53.6454 51.5169H53.7448L53.8442 51.2214L53.9436 50.7289C53.9436 50.3349 53.9436 50.0394 54.043 49.6454C54.1423 48.9559 54.1423 48.2663 54.2417 47.5768C54.5399 44.8187 55.2355 42.1592 56.2293 39.6966C58.1175 34.7715 60.9996 30.5359 64.3785 27.1868C65.1735 26.3002 66.068 25.6107 66.9624 24.8227C67.3599 24.4287 67.8568 24.1332 68.2543 23.7392C68.6518 23.4437 69.1488 23.0497 69.5463 22.7541C71.3351 21.4736 73.124 20.4886 74.9128 19.602C76.7017 18.7155 78.3911 18.026 79.9812 17.435C80.7763 17.1395 81.5713 16.9425 82.3663 16.647C82.7639 16.5485 83.1614 16.45 83.4595 16.3515C83.8571 16.253 84.1552 16.1544 84.5527 16.0559C87.3354 15.4649 89.7205 15.1694 91.2112 15.1694C91.41 15.1694 91.6087 15.1694 91.8075 15.1694C92.0062 15.1694 92.1056 15.1694 92.3044 15.1694C92.6025 15.1694 92.9006 15.1694 93.0994 15.1694C93.4969 15.1694 93.6957 15.1694 93.6957 15.1694C93.6957 15.1694 93.4969 15.1694 93.0994 15.0709C92.9006 15.0709 92.6025 14.9724 92.3044 14.8739C92.1056 14.8739 92.0062 14.7754 91.8075 14.7754C91.6087 14.7754 91.41 14.6769 91.2112 14.6769C90.8137 14.5784 90.4162 14.5784 89.9193 14.4799C89.4224 14.4799 88.9254 14.3814 88.3292 14.3814C87.7329 14.2829 87.1366 14.2829 86.4409 14.2829C85.7453 14.2829 85.0496 14.2829 84.2546 14.2829C82.7639 14.3814 81.0744 14.4799 79.2856 14.8739C78.3911 15.0709 77.3973 15.2679 76.5029 15.4649C75.5091 15.7605 74.5153 16.056 73.5215 16.3515C69.4469 17.7305 65.0742 20.0946 60.9996 23.5422C58.9126 25.3152 57.0244 27.2853 55.2355 29.6493C53.4467 32.0134 51.956 34.5745 50.7634 37.431C49.5708 40.2876 48.6764 43.4397 48.1795 46.5918C48.0801 47.3798 47.9808 48.1678 47.8814 49.0544C47.8814 49.4484 47.782 49.8424 47.782 50.2364V50.8274V51.1229V51.2214V51.4185V51.5169C47.782 53.093 47.6826 54.5705 47.6826 56.1466C47.6826 57.8211 47.782 59.4957 47.8814 61.1702C47.8814 61.5642 47.9808 61.9582 47.9808 62.4507C47.9808 62.8448 48.0801 63.2388 48.0801 63.7313C48.1795 64.5193 48.2789 65.4058 48.2789 66.1939C48.4777 67.8684 48.7758 69.5429 49.0739 71.2175C49.4715 72.892 49.7696 74.5666 50.1671 76.2411C51.8566 82.9393 54.5399 89.4405 57.72 95.5477L58.9126 97.8132C59.3101 98.6012 59.7076 99.3893 60.1052 100.079C60.9996 101.556 61.7946 103.034 62.6891 104.511C63.5835 105.989 64.4779 107.368 65.3723 108.846C66.2667 110.225 67.2606 111.604 68.155 113.081C71.9314 118.597 75.8073 123.916 79.5837 128.94C81.4719 131.403 83.3601 133.964 85.149 136.328C86.9378 138.692 88.7267 141.154 90.4162 143.42C92.1056 145.686 93.6957 147.951 95.1864 150.217C96.6771 152.384 98.0684 154.551 99.3604 156.619C101.944 160.757 103.832 164.697 105.124 168.144C106.416 171.592 106.913 174.744 107.112 177.305C107.211 179.866 107.013 181.935 106.814 183.314C106.814 183.412 106.814 183.511 106.814 183.511C104.628 185.284 102.739 187.352 101.05 189.618C100.95 189.322 100.752 189.027 100.652 188.633C100.354 187.943 100.056 187.254 99.6585 186.564C99.4598 186.17 99.3604 185.776 99.1616 185.481C98.9629 185.087 98.7641 184.693 98.5653 184.397C98.1678 183.609 97.7703 182.821 97.2734 182.033C96.7765 181.245 96.2796 180.359 95.7827 179.571C93.5963 176.221 90.8137 172.577 87.5341 168.932C84.2546 165.288 80.3788 161.742 76.1054 158.195C71.9314 154.649 67.2605 151.202 62.5897 147.656C57.9188 144.11 53.1485 140.465 48.4777 136.525C47.2851 135.54 46.1919 134.555 44.9993 133.57C44.4031 133.077 43.9062 132.585 43.3099 131.994C42.7136 131.501 42.2167 131.009 41.6204 130.418C39.4341 128.349 37.3471 126.182 35.3595 123.916C34.8626 123.325 34.3657 122.833 33.8688 122.242L32.4774 120.469L31.7818 119.582C31.583 119.287 31.3842 118.991 31.0861 118.696L29.7942 116.923C29.2973 116.332 28.9991 115.642 28.5022 115.051C28.1047 114.46 27.7072 113.771 27.3097 113.18C26.9121 112.589 26.614 111.899 26.2165 111.308L25.7196 110.422L25.4214 109.929L25.1233 109.437C24.7258 108.747 24.4276 108.058 24.1295 107.368L23.6326 106.383V106.284V106.186L23.5332 105.89L23.3344 105.398C23.0363 104.708 22.7382 104.117 22.44 103.428C22.1419 102.738 21.9431 102.049 21.645 101.458L21.2475 100.473C21.1481 100.177 21.0487 99.7833 20.9493 99.4878C20.7506 98.7983 20.5518 98.1087 20.353 97.5177C20.0549 96.1387 19.6574 94.8582 19.3592 93.4791C19.0611 92.1986 18.8623 90.8195 18.6636 89.539C18.5642 88.2585 18.3654 86.8794 18.266 85.5989C18.0673 83.0378 18.0673 80.4768 18.3654 78.0142C18.6636 75.5516 19.1605 73.1876 19.8561 70.922C20.5518 68.6564 21.4462 66.5879 22.5394 64.6178C22.8375 64.1253 23.0363 63.6328 23.3344 63.1403C23.6326 62.6478 23.9307 62.2538 24.2289 61.7612C24.527 61.2687 24.8251 60.8747 25.1233 60.4807C25.4214 60.0867 25.7196 59.5942 26.0177 59.2002C27.2103 57.5256 28.6016 56.1466 29.7942 54.7675C30.0923 54.472 30.4898 54.078 30.788 53.7825C30.9867 53.5855 31.0861 53.487 31.2849 53.29C31.4836 53.093 31.583 52.9945 31.7818 52.896C32.0799 52.6005 32.3781 52.305 32.7756 52.0094C33.0737 51.7139 33.3719 51.5169 33.7694 51.2214C34.3657 50.7289 34.9619 50.2364 35.5582 49.7439C36.1545 49.2514 36.7508 48.8574 37.2477 48.4634C39.4341 46.8873 41.3223 45.8038 42.6142 45.1143C43.2105 44.7202 43.8068 44.5232 44.1049 44.3262C44.4031 44.1292 44.6018 44.0307 44.6018 44.0307C44.6018 44.0307 44.4031 44.1292 44.0055 44.2277C43.608 44.3262 43.1111 44.5232 42.4155 44.7202C41.7198 44.9173 40.8254 45.2128 39.8316 45.6068C39.3347 45.8038 38.7384 46.0008 38.2415 46.2963C37.6452 46.5918 37.0489 46.7888 36.4526 47.0843C35.8564 47.3798 35.1607 47.6753 34.465 48.0693C33.7694 48.4633 33.0737 48.8574 32.378 49.2514C31.9805 49.4484 31.6824 49.7439 31.2849 49.9409C30.8874 50.1379 30.5892 50.4334 30.1917 50.7289C29.9929 50.8274 29.7942 51.0244 29.5954 51.1229C29.3966 51.2214 29.1979 51.4184 28.9991 51.5169C28.6016 51.8124 28.2041 52.108 27.8066 52.4035C27.409 52.699 27.0115 52.9945 26.614 53.3885C26.4152 53.5855 26.2165 53.684 26.0177 53.881C25.819 54.078 25.6202 54.275 25.4214 54.3735C25.0239 54.7675 24.6264 55.063 24.2289 55.457C23.8313 55.8511 23.4338 56.2451 23.0363 56.6391C21.4462 58.2151 19.8561 59.9882 18.4648 62.0567C17.0735 64.1253 15.6822 66.3909 14.589 68.8534C13.4958 71.316 12.6014 74.0741 12.0051 76.8322C11.3094 79.6887 11.0113 82.6438 11.1107 85.6974C11.1107 87.1749 11.2101 88.751 11.4088 90.327C11.5082 91.1151 11.6076 91.9031 11.7069 92.5926L11.8063 93.1836L11.9057 93.7746C12.0051 94.1687 12.1045 94.5626 12.1045 94.9567C12.3032 95.7447 12.4026 96.5327 12.7007 97.2222C12.8995 98.0103 13.0983 98.6998 13.297 99.4878C13.5952 100.276 13.7939 100.965 14.0921 101.753C14.1915 102.147 14.2908 102.541 14.4896 102.837L14.8871 103.92C15.1853 104.61 15.4834 105.398 15.7815 106.186C16.0797 106.875 16.4772 107.664 16.7753 108.353L16.9741 108.944L17.0735 109.24V109.338L17.1729 109.535L17.2722 109.634L17.7691 110.619C18.0673 111.308 18.4648 111.998 18.7629 112.687L19.0611 113.18L19.3592 113.672L19.9555 114.756C20.353 115.445 20.7506 116.233 21.2475 116.923C21.645 117.612 22.1419 118.302 22.5394 118.991C23.0363 119.681 23.4338 120.37 23.9307 121.06L25.3221 123.03C25.5208 123.325 25.819 123.719 26.0177 124.015L26.8128 125L28.3035 126.872C28.8004 127.463 29.3966 128.054 29.8935 128.743C31.9805 131.206 34.2663 133.471 36.6514 135.737C37.2477 136.328 37.844 136.82 38.4403 137.411C39.0365 137.904 39.6328 138.495 40.2291 138.987C41.4217 140.071 42.6142 141.056 43.8068 142.139C48.6764 146.178 53.5461 149.921 58.2169 153.467C62.8878 157.013 67.3599 160.461 71.4345 163.81C75.5091 167.159 79.0868 170.607 82.1676 173.857C85.2484 177.206 87.7329 180.457 89.7205 183.412C90.2174 184.2 90.6149 184.89 91.1118 185.678C91.5093 186.367 91.9069 187.155 92.3044 187.845C92.5031 188.14 92.7019 188.534 92.8013 188.83C93 189.125 93.0994 189.519 93.2982 189.815C93.5963 190.504 93.8945 191.095 94.1926 191.686C95.1864 194.05 95.8821 195.922 96.2796 197.301C96.379 197.597 96.4783 197.892 96.5777 198.089C95.6833 200.355 94.9877 202.719 94.4908 205.181C93.3976 203.999 92.205 202.817 90.8137 201.635C88.4285 199.468 85.5465 197.203 82.267 195.134C78.9874 192.967 75.3103 190.898 71.4345 188.928C67.5587 186.86 63.3847 184.988 59.1114 182.92C54.838 180.95 50.4653 178.98 46.0925 176.812C41.7198 174.645 37.3471 172.478 33.2725 169.917C31.2849 168.637 29.1979 167.356 27.409 165.879C26.4152 165.189 25.6202 164.5 24.7258 163.712C24.6264 163.613 24.527 163.515 24.4276 163.416L24.1295 163.121L23.4338 162.53L22.7382 161.939L22.44 161.643L22.1419 161.348C21.3468 160.559 20.4524 159.673 19.6574 158.885C19.2598 158.491 18.8623 157.998 18.4648 157.604C18.0673 157.21 17.7691 156.718 17.3716 156.324C16.9741 155.93 16.676 155.437 16.2784 155.043C15.9803 154.551 15.5828 154.157 15.2846 153.763C14.6884 152.876 13.9927 151.99 13.3964 151.005C12.2039 149.232 11.1107 147.36 10.2162 145.489C9.22243 143.617 8.52678 141.745 7.83111 139.874C7.63235 139.381 7.53297 138.987 7.33421 138.495C7.23483 138.002 7.03608 137.608 6.9367 137.116C6.83732 136.623 6.73793 136.229 6.53917 135.737C6.43979 135.244 6.3404 134.85 6.24102 134.358C6.04226 133.471 5.94288 132.486 5.74412 131.6C5.64474 130.713 5.54537 129.827 5.44599 128.94C5.34661 128.054 5.34661 127.167 5.34661 126.379C5.34661 125.985 5.34661 125.493 5.34661 125.099C5.34661 124.902 5.34661 124.704 5.34661 124.507C5.34661 124.31 5.34661 124.113 5.34661 123.916C5.44599 122.34 5.64475 120.764 5.84351 119.287C6.34041 116.43 7.03607 113.968 7.73173 111.899C8.42739 109.929 9.12306 108.353 9.61996 107.27C10.1169 106.186 10.415 105.693 10.415 105.693L10.3156 105.595C10.3156 105.595 10.2162 105.693 10.0175 105.89C9.81872 106.087 9.52058 106.481 9.12306 106.875C8.72554 107.368 8.22863 107.861 7.73173 108.649C7.43359 109.043 7.23484 109.338 6.9367 109.831C6.63856 110.225 6.34041 110.717 6.04226 111.21C4.8497 113.081 3.55777 115.544 2.46458 118.499C1.96768 119.976 1.47077 121.651 1.07325 123.325C0.675728 125.099 0.377585 126.97 0.278204 128.94C0.278204 129.433 0.178833 129.925 0.178833 130.418C0.178833 130.91 0.178833 131.403 0.178833 131.994C0.178833 132.979 0.178824 134.062 0.278204 135.146C0.476965 137.313 0.775112 139.48 1.37139 141.745C1.47077 142.041 1.47077 142.336 1.57015 142.632C1.66953 142.927 1.76891 143.223 1.76891 143.42C1.96767 144.011 2.06705 144.504 2.26581 145.095C2.46457 145.686 2.66334 146.178 2.8621 146.769C3.06086 147.36 3.25962 147.853 3.55776 148.444C3.65714 148.739 3.75653 149.035 3.95529 149.232C4.05467 149.527 4.25342 149.823 4.3528 150.02C4.65094 150.611 4.84971 151.103 5.14785 151.694C5.74413 152.778 6.34041 153.861 7.03607 154.945C9.71934 159.18 12.9989 163.121 16.676 166.667L16.9741 166.962L17.3716 167.356L18.0673 167.947L18.7629 168.538L19.0611 168.834L19.4586 169.129C20.4524 170.016 21.5456 170.902 22.5394 171.69C24.6264 173.266 26.8128 174.744 28.9991 176.123C33.3719 178.881 37.9434 181.245 42.4155 183.412C46.8876 185.579 51.3597 187.648 55.5337 189.618C59.807 191.588 63.7822 193.459 67.5587 195.429C71.3351 197.4 74.7141 199.271 77.6955 201.241C80.6769 203.211 83.2608 205.181 85.4471 207.053C87.5341 208.924 89.323 210.697 90.5155 212.273C90.8137 212.667 91.1118 213.061 91.41 213.357C91.7081 213.751 91.9068 214.046 92.1056 214.342C92.3044 214.637 92.5031 214.933 92.7019 215.229C92.9007 215.524 93 215.721 93.1988 216.017C93.3976 216.312 93.4969 216.509 93.5963 216.706C93.7951 218.676 94.292 220.646 94.7889 222.518C93 221.533 91.2112 220.449 89.2236 219.464C86.2422 217.987 82.9626 216.608 79.4843 215.327C77.7949 214.736 76.006 214.145 74.2171 213.554C72.4283 213.061 70.6395 212.569 68.7512 212.076C65.0742 211.19 61.3971 210.402 57.72 209.614C55.9312 209.22 54.043 208.826 52.3535 208.432C50.5646 208.038 48.7758 207.545 47.0863 207.151L46.49 206.954L45.8938 206.757C45.4963 206.659 45.0987 206.56 44.7012 206.363C44.3037 206.265 43.8068 206.068 43.4093 205.969L43.1111 205.871L42.813 205.772L42.2167 205.575C41.4217 205.28 40.6266 204.984 39.8316 204.689C39.0365 204.295 38.3409 203.999 37.5458 203.605C34.6638 202.128 31.9805 200.453 29.7942 198.483C27.6078 196.513 25.7196 194.444 24.3283 192.179C22.9369 190.012 21.8437 187.746 21.1481 185.678C20.4524 183.609 19.9555 181.738 19.6574 180.162C19.558 179.768 19.558 179.374 19.4586 179.078C19.3592 178.684 19.3592 178.388 19.3592 178.093C19.2599 177.502 19.2598 176.911 19.1605 176.517C19.0611 175.63 19.0611 175.138 19.0611 175.138C19.0611 175.138 19.0611 175.236 18.9617 175.433C18.9617 175.63 18.8623 176.024 18.7629 176.418C18.5642 177.305 18.3654 178.586 18.266 180.26C18.1667 181.048 18.1667 182.033 18.266 183.018C18.266 183.511 18.3654 184.102 18.3654 184.594C18.4648 185.185 18.4648 185.678 18.5642 186.269C18.8623 188.633 19.558 191.292 20.7506 193.952C21.3468 195.331 22.0425 196.71 23.0363 198.089C23.9307 199.468 24.9245 200.749 26.1171 202.128C28.5022 204.689 31.2849 207.053 34.5644 209.023C36.1545 210.008 37.844 210.894 39.6328 211.682L40.3285 211.978L40.6266 212.175L41.0241 212.372C41.4217 212.569 41.8192 212.667 42.3161 212.864C42.7136 213.061 43.2105 213.16 43.7074 213.357L44.4031 213.653L45.0987 213.849C48.7758 215.13 52.4529 216.115 56.13 217.1C57.9188 217.593 59.7076 217.987 61.5959 218.479C63.3847 218.972 65.1735 219.464 66.863 219.957C69.3475 220.646 71.7327 221.434 74.0184 222.222C73.8196 222.419 73.7203 222.518 73.5215 222.715C73.124 223.109 72.8258 223.503 72.5277 224.094C72.2296 224.586 71.9314 225.177 71.6333 225.965C71.4345 226.655 71.3351 227.443 71.3351 228.329C71.4345 229.216 71.6333 230.102 72.0308 230.891C72.4283 231.679 72.9252 232.467 73.5215 233.156C73.6209 233.255 73.6209 233.353 73.7202 233.353L73.8196 233.452L73.919 233.55L74.0184 233.649L74.2171 233.846L74.3165 233.944L74.4159 234.043L74.7141 234.338C74.8134 234.437 74.9128 234.437 75.0122 234.535C75.211 234.634 75.4097 234.831 75.5091 234.929C76.9998 235.914 78.5899 236.604 80.18 237.195C81.7701 237.687 83.3602 238.081 84.9502 238.377C86.5403 238.672 88.1304 238.869 89.6211 239.066C91.1118 239.263 92.6025 239.46 93.9939 239.559C96.7765 239.854 99.3604 240.15 101.447 240.445C103.534 240.741 105.124 241.135 106.218 241.43C106.715 241.627 107.112 241.726 107.41 241.824C107.708 241.923 107.808 242.021 107.808 242.021L107.907 241.923C114.367 246.946 122.516 250 131.361 250C140.206 250 148.355 246.946 154.815 241.923L154.914 242.021C154.914 242.021 155.013 241.923 155.311 241.824C155.61 241.726 156.007 241.627 156.504 241.43C157.597 241.135 159.187 240.741 161.274 240.445C163.361 240.15 165.945 239.854 168.728 239.559C170.119 239.362 171.61 239.263 173.101 239.066C174.591 238.869 176.181 238.672 177.771 238.377C179.362 238.081 180.952 237.687 182.542 237.195C184.132 236.702 185.722 236.013 187.213 234.929C187.411 234.831 187.61 234.634 187.709 234.535C187.809 234.437 187.908 234.437 188.008 234.338L188.306 234.043L188.405 233.944L188.505 233.846L188.703 233.649L188.803 233.55L188.902 233.452L189.001 233.353C189.101 233.255 189.101 233.156 189.2 233.156C189.796 232.467 190.293 231.777 190.691 230.891C191.088 230.102 191.287 229.216 191.387 228.329C191.387 227.443 191.287 226.655 191.088 225.965C190.89 225.276 190.592 224.685 190.194 224.094C189.896 223.601 189.498 223.109 189.2 222.715C189.001 222.518 188.902 222.419 188.703 222.222C190.989 221.434 193.374 220.646 195.859 219.957C197.548 219.464 199.337 218.972 201.126 218.479C202.915 217.987 204.704 217.593 206.592 217.1C210.269 216.115 213.946 215.13 217.623 213.849L218.319 213.653L219.014 213.357C219.511 213.16 219.909 213.061 220.406 212.864C220.803 212.667 221.3 212.569 221.698 212.372L222.095 212.175L222.393 211.978L223.089 211.682C224.878 210.894 226.567 210.008 228.157 209.023C231.437 207.053 234.219 204.787 236.605 202.128C237.797 200.847 238.791 199.468 239.685 198.089C240.58 196.71 241.275 195.331 241.872 193.952C243.064 191.194 243.76 188.534 244.058 186.269C244.158 185.678 244.157 185.087 244.257 184.594C244.257 184.003 244.356 183.511 244.356 183.018C244.356 182.033 244.356 181.048 244.356 180.26C244.257 178.586 244.058 177.305 243.859 176.418C243.76 176.024 243.661 175.63 243.661 175.433C243.561 175.236 243.561 175.138 243.561 175.138C243.561 175.138 243.561 175.63 243.462 176.517C243.462 176.911 243.362 177.502 243.263 178.093C243.263 178.388 243.164 178.783 243.164 179.078C243.064 179.472 243.064 179.768 242.965 180.162C242.667 181.738 242.269 183.609 241.474 185.678C240.779 187.746 239.685 190.012 238.294 192.179C236.903 194.346 235.014 196.513 232.828 198.483C230.542 200.453 227.958 202.128 225.076 203.605C224.381 203.999 223.586 204.295 222.791 204.689C221.996 204.984 221.3 205.378 220.406 205.575L219.809 205.772L219.511 205.871L219.213 205.969C218.816 206.068 218.319 206.265 217.921 206.363C217.524 206.462 217.126 206.659 216.729 206.757L216.132 206.954L215.536 207.151C213.846 207.644 212.058 208.038 210.269 208.432C208.48 208.826 206.691 209.22 204.902 209.614C201.225 210.402 197.548 211.19 193.871 212.076C192.082 212.569 190.194 213.061 188.405 213.554C186.616 214.145 184.827 214.637 183.138 215.327C179.66 216.608 176.38 217.987 173.399 219.464C171.411 220.449 169.523 221.434 167.833 222.518C168.43 220.646 168.827 218.676 169.026 216.706C169.125 216.509 169.324 216.312 169.424 216.017C169.523 215.82 169.722 215.524 169.92 215.229C170.119 214.933 170.318 214.637 170.517 214.342C170.715 214.046 171.014 213.652 171.212 213.357C171.51 212.963 171.809 212.667 172.107 212.273C173.299 210.697 175.088 208.924 177.175 207.053C179.262 205.181 181.846 203.211 184.927 201.241C187.908 199.271 191.387 197.301 195.064 195.429C198.84 193.459 202.815 191.588 207.089 189.618C211.362 187.648 215.735 185.579 220.207 183.412C224.679 181.245 229.25 178.783 233.623 176.123C235.81 174.744 237.996 173.266 240.083 171.69C241.077 170.902 242.17 170.016 243.164 169.129L243.561 168.834L243.859 168.538L244.555 167.947L245.251 167.356L245.648 166.962L245.946 166.667C249.623 163.022 253.002 159.18 255.586 154.945C256.282 153.861 256.878 152.778 257.474 151.694C257.773 151.103 257.971 150.611 258.27 150.02C258.369 149.724 258.568 149.429 258.667 149.232C258.766 148.936 258.866 148.641 259.065 148.444C259.263 147.853 259.561 147.36 259.76 146.769C259.959 146.178 260.158 145.686 260.357 145.095C260.555 144.504 260.655 144.011 260.853 143.42C260.953 143.125 261.052 142.829 261.052 142.632C261.152 142.336 261.152 142.041 261.251 141.745C261.847 139.48 262.145 137.313 262.344 135.146C262.443 134.062 262.443 132.979 262.443 131.994C263.239 131.403 263.239 130.91 263.239 130.418ZM91.0124 231.974C89.5217 231.876 88.031 231.876 86.6397 231.679C85.2484 231.58 83.8571 231.383 82.5651 231.186C81.2732 230.989 80.0806 230.595 79.0868 230.102C78.9874 230.004 78.888 230.004 78.6893 229.905L78.3911 229.708C78.3911 229.708 78.3911 229.708 78.2917 229.708L78.1924 229.61L77.9936 229.413L77.8942 229.314C77.7949 229.314 77.7948 229.216 77.6955 229.216C77.2979 228.92 76.9004 228.625 76.7017 228.329C76.4035 228.034 76.2048 227.738 76.1054 227.344C75.9066 226.95 75.9066 226.655 75.8072 226.162C75.7079 225.374 75.9066 224.389 76.2048 223.601C76.3041 223.207 76.5029 222.912 76.6023 222.616C76.9004 222.715 77.1986 222.813 77.4967 222.912C78.2918 223.207 79.0868 223.503 79.7824 223.798C80.18 223.995 80.5775 224.094 80.975 224.291C81.3726 224.488 81.7701 224.586 82.0682 224.783C82.4657 224.98 82.7639 225.079 83.1614 225.276C83.5589 225.473 83.857 225.571 84.2546 225.768C84.6521 225.965 84.9502 226.064 85.3478 226.261C85.7453 226.458 86.0434 226.556 86.3416 226.753C89.1242 228.132 91.6087 229.511 93.8945 230.891C94.4907 231.186 94.9876 231.58 95.5839 231.876C95.4845 231.876 95.3852 231.876 95.2858 231.876C93.9938 232.073 92.5032 231.974 91.0124 231.974ZM112.479 235.52C112.081 235.126 111.684 234.831 111.187 234.338C110.789 233.944 110.292 233.55 109.795 233.058C104.628 227.64 101.447 220.351 101.447 212.273C101.447 195.528 115.162 181.935 132.057 181.935C148.951 181.935 162.666 195.528 162.666 212.273C162.666 220.351 159.485 227.64 154.318 233.058C153.821 233.55 153.324 233.944 152.926 234.338C152.429 234.831 152.032 235.225 151.734 235.52C146.467 239.953 139.609 242.612 132.156 242.612C124.603 242.612 117.845 239.953 112.479 235.52ZM177.672 226.95C177.97 226.753 178.368 226.655 178.666 226.458C179.063 226.261 179.362 226.162 179.759 225.965C180.157 225.768 180.455 225.67 180.852 225.473C181.25 225.276 181.548 225.177 181.945 224.98C182.343 224.783 182.641 224.685 183.039 224.488C183.436 224.291 183.834 224.192 184.231 223.995C185.026 223.7 185.821 223.404 186.517 223.109C186.815 223.01 187.113 222.912 187.411 222.813C187.511 223.109 187.709 223.503 187.809 223.798C188.107 224.586 188.306 225.473 188.206 226.359C188.206 226.753 188.107 227.147 187.908 227.541C187.809 227.935 187.511 228.231 187.312 228.526C187.014 228.822 186.716 229.117 186.318 229.413C186.318 229.413 186.219 229.511 186.119 229.511H186.219L186.02 229.708L185.921 229.807C185.921 229.807 185.921 229.807 185.821 229.807L185.523 230.004C185.424 230.102 185.324 230.102 185.126 230.201C184.132 230.693 182.939 230.989 181.647 231.284C180.355 231.481 178.964 231.678 177.573 231.777C176.181 231.875 174.691 231.974 173.2 232.072C171.709 232.171 170.219 232.171 168.827 232.27C168.728 232.27 168.628 232.27 168.529 232.27C169.026 231.974 169.622 231.58 170.219 231.284C172.405 229.708 174.989 228.231 177.672 226.95Z" fill="#505E69"/>
<path d="M133.5 117.5H139.5V120.5H133.5V117.5Z" fill="#505E69"/>
<path d="M133.5 123.5H139.5V126.5H133.5V123.5Z" fill="#505E69"/>
<path d="M130.5 110C130.5 108.807 130.974 107.662 131.818 106.818C132.662 105.974 133.806 105.5 135 105.5C136.193 105.5 137.338 105.974 138.182 106.818C139.026 107.662 139.5 108.807 139.5 110C139.499 108.305 139.91 106.635 140.7 105.136C139.704 103.971 138.375 103.139 136.892 102.753C135.41 102.366 133.844 102.443 132.406 102.973C130.969 103.502 129.728 104.46 128.85 105.716C127.973 106.973 127.502 108.468 127.5 110V132.5H130.5V110Z" fill="#505E69"/>
<path d="M172.489 186.443L166.864 120.612C166.794 119.767 166.409 118.979 165.787 118.403C165.164 117.827 164.348 117.505 163.5 117.5H148.5V120.5H162C162.373 120.498 162.733 120.635 163.011 120.885C163.288 121.135 163.462 121.479 163.5 121.85L169.5 184.85C169.521 185.059 169.498 185.271 169.432 185.47C169.366 185.67 169.259 185.853 169.117 186.009C168.976 186.165 168.803 186.289 168.611 186.373C168.418 186.458 168.21 186.501 168 186.5H95.9998C95.7902 186.501 95.5827 186.458 95.3908 186.374C95.1989 186.29 95.0267 186.166 94.8854 186.012C94.744 185.857 94.6367 185.674 94.5703 185.475C94.5039 185.277 94.4798 185.066 94.4998 184.857L100.5 121.857C100.537 121.486 100.711 121.142 100.989 120.893C101.266 120.643 101.627 120.506 102 120.508H124.5V117.5H100.5C99.6525 117.504 98.8375 117.825 98.2149 118.4C97.5923 118.974 97.2072 119.761 97.1353 120.605L91.5103 186.445C91.5103 186.524 91.4998 186.604 91.4998 186.685C91.5005 187.431 91.7974 188.147 92.3253 188.674C92.8531 189.202 93.5688 189.499 94.3153 189.5H169.684C170.431 189.499 171.146 189.202 171.674 188.674C172.202 188.147 172.499 187.431 172.5 186.685C172.5 186.604 172.5 186.524 172.489 186.443Z" fill="#505E69"/>
<path d="M124.5 123.5H103.363L97.6498 183.5H166.35L160.636 123.5H148.5V134C148.5 134.398 148.342 134.779 148.06 135.061C147.779 135.342 147.398 135.5 147 135.5H141C140.602 135.5 140.22 135.342 139.939 135.061C139.658 134.779 139.5 134.398 139.5 134V129.5H133.5V134C133.5 134.398 133.342 134.779 133.06 135.061C132.779 135.342 132.398 135.5 132 135.5H126C125.602 135.5 125.22 135.342 124.939 135.061C124.658 134.779 124.5 134.398 124.5 134V123.5ZM137.194 156.683C138.201 155.671 139.399 154.868 140.718 154.322C142.037 153.776 143.451 153.496 144.879 153.5C145.749 153.497 146.611 153.668 147.415 154.001C148.218 154.333 148.948 154.823 149.562 155.439C149.897 155.777 150.296 156.044 150.735 156.226C151.174 156.408 151.645 156.501 152.121 156.5C153.154 156.503 154.178 156.301 155.132 155.906C156.087 155.51 156.954 154.93 157.683 154.198L157.938 153.941L160.062 156.059L159.805 156.317C158.798 157.329 157.601 158.132 156.282 158.678C154.963 159.224 153.548 159.504 152.121 159.5C151.251 159.503 150.389 159.332 149.585 158.999C148.781 158.667 148.051 158.177 147.438 157.561C147.103 157.223 146.704 156.956 146.265 156.774C145.825 156.592 145.354 156.499 144.879 156.5C143.846 156.497 142.822 156.699 141.867 157.094C140.913 157.49 140.046 158.07 139.317 158.802L139.062 159.059L136.938 156.941L137.194 156.683ZM134.121 171.5C135.154 171.503 136.178 171.301 137.132 170.906C138.087 170.51 138.954 169.93 139.683 169.198L139.938 168.941L142.062 171.059L141.805 171.317C140.798 172.329 139.601 173.132 138.282 173.678C136.963 174.224 135.548 174.504 134.121 174.5C133.251 174.503 132.389 174.332 131.585 173.999C130.781 173.667 130.051 173.177 129.438 172.561C129.103 172.223 128.704 171.956 128.265 171.774C127.825 171.592 127.354 171.499 126.879 171.5C125.846 171.497 124.822 171.699 123.867 172.094C122.913 172.49 122.046 173.07 121.317 173.802L121.062 174.059L118.938 171.941L119.194 171.683C120.201 170.671 121.399 169.868 122.718 169.322C124.037 168.776 125.451 168.496 126.879 168.5C127.749 168.497 128.611 168.668 129.415 169.001C130.218 169.333 130.948 169.823 131.562 170.439C131.897 170.777 132.296 171.044 132.735 171.226C133.174 171.408 133.645 171.501 134.121 171.5ZM124.683 143.698L124.938 143.441L127.062 145.559L126.805 145.817C125.798 146.829 124.601 147.632 123.282 148.178C121.963 148.724 120.548 149.004 119.121 149C118.251 149.003 117.389 148.832 116.585 148.499C115.781 148.167 115.051 147.677 114.438 147.061C114.103 146.723 113.704 146.456 113.265 146.274C112.825 146.092 112.354 145.999 111.879 146C110.846 145.997 109.822 146.199 108.867 146.594C107.913 146.99 107.046 147.57 106.317 148.302L106.062 148.559L103.938 146.441L104.194 146.183C105.201 145.171 106.399 144.368 107.718 143.822C109.037 143.276 110.451 142.996 111.879 143C112.749 142.997 113.611 143.168 114.415 143.501C115.218 143.833 115.948 144.323 116.562 144.939C116.897 145.277 117.296 145.544 117.735 145.726C118.174 145.908 118.645 146.001 119.121 146C120.154 146.003 121.178 145.801 122.132 145.406C123.087 145.01 123.954 144.43 124.683 143.698Z" fill="#505E69"/>
<path d="M145.5 110C145.5 108.807 145.974 107.662 146.818 106.818C147.662 105.974 148.806 105.5 150 105.5C151.193 105.5 152.338 105.974 153.182 106.818C154.026 107.662 154.5 108.807 154.5 110H157.5C157.5 108.011 156.71 106.103 155.303 104.697C153.897 103.29 151.989 102.5 150 102.5C148.011 102.5 146.103 103.29 144.696 104.697C143.29 106.103 142.5 108.011 142.5 110V132.5H145.5V110Z" fill="#505E69"/>
</svg>
